<svg width="16" height="16" viewBox="0 0 16 16" fill="none" xmlns="http://www.w3.org/2000/svg">
<g id="icon-arrow-right-small-mono">
<path id="Vector" fill-rule="evenodd" clip-rule="evenodd" d="M10.2501 2.60012C10.4801 2.60012 10.7101 2.69012 10.8901 2.86012C11.0581 3.02879 11.1523 3.25711 11.1523 3.49512C11.1523 3.73313 11.0581 3.96145 10.8901 4.13012L7.02013 8.00012L10.8901 11.8601C11.0581 12.0288 11.1523 12.2571 11.1523 12.4951C11.1523 12.7331 11.0581 12.9615 10.8901 13.1301C10.7215 13.2981 10.4931 13.3923 10.2551 13.3923C10.0171 13.3923 9.7888 13.2981 9.62013 13.1301L5.12013 8.63012C4.9522 8.46145 4.85792 8.23313 4.85792 7.99512C4.85792 7.75711 4.9522 7.52879 5.12013 7.36012L9.62013 2.86012C9.79013 2.69012 10.0201 2.60012 10.2501 2.60012Z" fill="black"/>
</g>
</svg>
