<svg width="53" height="24" viewBox="0 0 53 24" fill="none" xmlns="http://www.w3.org/2000/svg">
<rect x="0.5" y="0.5" width="52" height="23" rx="1.5" fill="white"/>
<rect x="0.5" y="0.5" width="52" height="23" rx="1.5" stroke="#CFCFCF"/>
<g clip-path="url(#clip0_31_2837)">
<path d="M18.75 10.75L18.75 8.25M18.75 8.25H16.25M18.75 8.25L15 12M14.1667 8.25H13.25C12.5499 8.25 12.1999 8.25 11.9325 8.38624C11.6973 8.50608 11.5061 8.69731 11.3862 8.93251C11.25 9.1999 11.25 9.54993 11.25 10.25V13.75C11.25 14.4501 11.25 14.8001 11.3862 15.0675C11.5061 15.3027 11.6973 15.4939 11.9325 15.6138C12.1999 15.75 12.5499 15.75 13.25 15.75H16.75C17.4501 15.75 17.8001 15.75 18.0675 15.6138C18.3027 15.4939 18.4939 15.3027 18.6138 15.0675C18.75 14.8001 18.75 14.4501 18.75 13.75V12.8333" stroke="#555555" stroke-linecap="round" stroke-linejoin="round"/>
</g>
<path d="M31.1412 14.776C31.1412 15.988 29.6412 16.84 27.2292 16.84C24.7932 16.84 23.2932 15.988 23.2932 14.776C23.2932 13.552 24.7932 12.724 27.2292 12.724C29.6412 12.724 31.1412 13.552 31.1412 14.776ZM32.1852 12.352H22.4172V10.888H25.9212V9.148H27.8292V10.888H32.1852V12.352ZM23.4852 6.616H31.0452C31.0572 6.904 31.0692 7.444 31.0572 7.72C31.0212 8.74 30.8532 9.88 30.7092 10.432L28.9332 10.264C29.1012 9.616 29.1972 8.776 29.1732 8.068H23.4852V6.616ZM27.2292 14.2C26.0532 14.2 25.3092 14.38 25.3092 14.788C25.3092 15.184 26.0532 15.376 27.2292 15.376C28.3932 15.376 29.1132 15.184 29.1132 14.788C29.1132 14.38 28.3932 14.2 27.2292 14.2ZM41.632 9.004C41.632 10.48 40.036 11.464 37.684 11.464C35.332 11.464 33.7 10.468 33.7 9.004C33.7 7.552 35.332 6.568 37.684 6.568C40.036 6.568 41.632 7.552 41.632 9.004ZM40.468 16.96H38.584V13.696H36.724V16.96H34.828V13.696H32.8V12.196H42.568V13.696H40.468V16.96ZM37.684 8.032C36.472 8.032 35.716 8.488 35.716 9.004C35.716 9.52 36.472 9.988 37.684 9.988C38.86 9.988 39.604 9.52 39.604 9.004C39.604 8.488 38.86 8.032 37.684 8.032Z" fill="#555555"/>
<defs>
<clipPath id="clip0_31_2837">
<rect width="10" height="10" fill="white" transform="translate(10 7)"/>
</clipPath>
</defs>
</svg>
