<svg width="22" height="22" viewBox="0 0 22 22" fill="none" xmlns="http://www.w3.org/2000/svg">
<g id="ic_cancel">
<path id="Vector" fill-rule="evenodd" clip-rule="evenodd" d="M14.8577 14.0603C14.9428 14.1454 15.0103 14.2465 15.0564 14.3577C15.1025 14.4689 15.1262 14.5881 15.1262 14.7084C15.1262 14.8288 15.1025 14.948 15.0564 15.0592C15.0103 15.1704 14.9428 15.2714 14.8577 15.3565C14.7726 15.4416 14.6716 15.5091 14.5604 15.5552C14.4492 15.6012 14.33 15.6249 14.2096 15.6249C14.0893 15.6249 13.9701 15.6012 13.8589 15.5552C13.7477 15.5091 13.6467 15.4416 13.5616 15.3565L11.0013 12.7962L8.44105 15.3565C8.35612 15.4419 8.25514 15.5097 8.14392 15.556C8.0327 15.6022 7.91343 15.626 7.79297 15.626C7.67251 15.626 7.55324 15.6022 7.44202 15.556C7.3308 15.5097 7.22982 15.4419 7.14489 15.3565C7.05969 15.2714 6.99209 15.1704 6.94597 15.0592C6.89986 14.948 6.87612 14.8288 6.87612 14.7084C6.87612 14.588 6.89986 14.4688 6.94597 14.3576C6.99209 14.2464 7.05969 14.1454 7.14489 14.0603L9.70514 11.5001L7.14489 8.93983C7.05978 8.85472 6.99227 8.75369 6.94621 8.64249C6.90015 8.53129 6.87644 8.41211 6.87644 8.29175C6.87644 8.17139 6.90015 8.05221 6.94621 7.94101C6.99227 7.82981 7.05978 7.72877 7.14489 7.64366C7.22999 7.55856 7.33103 7.49105 7.44223 7.44499C7.55343 7.39893 7.67261 7.37522 7.79297 7.37522C7.91333 7.37522 8.03251 7.39893 8.14371 7.44499C8.25491 7.49105 8.35595 7.55856 8.44105 7.64367L11.0013 10.2039L13.5616 7.64367C13.6467 7.55856 13.7477 7.49105 13.8589 7.44499C13.9701 7.39893 14.0893 7.37522 14.2096 7.37522C14.33 7.37522 14.4492 7.39893 14.5604 7.44499C14.6716 7.49105 14.7726 7.55856 14.8577 7.64367C14.9428 7.72877 15.0103 7.82981 15.0564 7.94101C15.1025 8.05221 15.1262 8.17139 15.1262 8.29175C15.1262 8.41211 15.1025 8.53129 15.0564 8.64249C15.0103 8.75369 14.9428 8.85472 14.8577 8.93983L12.2975 11.5001L14.8577 14.0603ZM11.0013 1.41675C5.43255 1.41675 0.917969 5.93133 0.917969 11.5001C0.917969 17.0688 5.43255 21.5834 11.0013 21.5834C16.5701 21.5834 21.0846 17.0688 21.0846 11.5001C21.0846 5.93133 16.5701 1.41675 11.0013 1.41675Z" fill="#D3D3D3"/>
</g>
</svg>
