<svg width="30" height="31" viewBox="0 0 30 31" fill="none" xmlns="http://www.w3.org/2000/svg">
<path d="M9.375 15.5L13.125 19.25L20.625 11.75M9.75 26.75H20.25C22.3502 26.75 23.4003 26.75 24.2025 26.3413C24.9081 25.9817 25.4817 25.4081 25.8413 24.7025C26.25 23.9003 26.25 22.8502 26.25 20.75V10.25C26.25 8.1498 26.25 7.0997 25.8413 6.29754C25.4817 5.59193 24.9081 5.01825 24.2025 4.65873C23.4003 4.25 22.3502 4.25 20.25 4.25H9.75C7.6498 4.25 6.5997 4.25 5.79754 4.65873C5.09193 5.01825 4.51825 5.59193 4.15873 6.29754C3.75 7.0997 3.75 8.1498 3.75 10.25V20.75C3.75 22.8502 3.75 23.9003 4.15873 24.7025C4.51825 25.4081 5.09193 25.9817 5.79754 26.3413C6.5997 26.75 7.6498 26.75 9.75 26.75Z" stroke="#D3D3D3" stroke-linecap="round" stroke-linejoin="round"/>
</svg>
