<svg width="346" height="155" viewBox="0 0 346 155" fill="none" xmlns="http://www.w3.org/2000/svg">
<path d="M3.26459 5.596C3.26459 6.292 2.70059 6.844 2.00459 6.844C1.32059 6.844 0.756594 6.292 0.756594 5.596C0.756594 4.912 1.32059 4.348 2.00459 4.348C2.70059 4.348 3.26459 4.912 3.26459 5.596ZM12.224 2.896V2.128H17.672V2.896H15.38C15.536 3.904 16.832 4.588 17.972 4.672L17.564 5.392C16.436 5.212 15.332 4.564 14.936 3.82C14.576 4.612 13.532 5.344 12.236 5.584L11.816 4.9C13.016 4.768 14.3 4.024 14.456 2.896H12.224ZM20.036 10.84H19.124V0.352H20.036V10.84ZM15.344 10.456H14.432V6.94C13.424 6.988 12.44 7 11.492 7.024L11.348 6.232C12.596 6.232 13.748 6.208 14.912 6.16C16.268 6.112 17.6 6.016 18.428 5.932L18.536 6.652C17.756 6.748 16.496 6.832 15.344 6.88V10.456ZM13.52 1.432V0.676H16.364V1.432H13.52ZM30.9348 5.536L30.4308 6.268C28.5948 5.752 27.0108 4.444 26.5548 3.268C26.1588 4.468 24.5388 5.764 22.7028 6.268L22.2228 5.536C24.0588 5.188 26.0988 3.688 26.0988 1.888V1.132H27.0468V1.888C27.0468 3.688 29.2068 5.2 30.9348 5.536ZM31.3068 9.508H21.8388V8.74H26.0988V6.052H27.0108V8.74H31.3068V9.508ZM37.4536 8.2H32.5456V1.432H37.4536V8.2ZM36.5416 7.444V2.188H33.4576V7.444H36.5416ZM42.0016 5.344H40.2856V10.84H39.3736V0.352H40.2856V4.576H42.0016V5.344ZM52.2644 3.868H50.6684V6.412H49.7564V0.352H50.6684V3.112H52.2644V3.868ZM50.6684 10.696H44.0804V6.952H50.6684V10.696ZM49.7564 9.94V7.708H44.9924V9.94H49.7564ZM43.0124 1.156H47.8484C47.6924 4.036 45.5924 5.74 42.9164 6.508L42.4964 5.752C44.5604 5.32 46.5644 3.82 46.8164 1.924H43.0124V1.156ZM61.6273 10.84H60.7033V0.352H61.6273V10.84ZM59.3713 7.624L58.7953 8.32C57.8473 7.672 56.6113 6.376 56.2033 5.116C55.8193 6.424 54.7393 7.708 53.5273 8.572L52.9272 7.888C54.4633 6.928 55.7233 5.02 55.7233 3.16V1.264H56.6473V3.124C56.6473 5.044 57.9193 6.76 59.3713 7.624ZM73.0301 4.408H71.4341V8.2H70.5221V0.352H71.4341V3.64H73.0301V4.408ZM71.7581 10.576H64.8341V7.336H65.7461V9.82H71.7581V10.576ZM63.7301 1.276H68.5061C68.3861 4.132 66.4421 6.136 63.7661 6.988L63.2981 6.22C65.5541 5.644 67.2461 3.976 67.5101 2.044H63.7301V1.276ZM85.5332 10.84H84.6212V0.352H85.5332V10.84ZM77.2532 4.84C77.2532 2.632 78.2372 1.144 79.9532 1.144C81.6932 1.144 82.6652 2.632 82.6652 4.852C82.6652 7.072 81.6932 8.56 79.9532 8.56C78.2372 8.56 77.2532 7.072 77.2532 4.84ZM81.8012 4.852C81.8012 3.124 81.0692 1.936 79.9532 1.936C78.8492 1.936 78.1172 3.124 78.1172 4.852C78.1172 6.568 78.8492 7.768 79.9532 7.768C81.0692 7.768 81.8012 6.568 81.8012 4.852ZM95.256 4.912C95.256 5.992 93.888 6.508 92.028 6.508C90.18 6.508 88.8 5.992 88.8 4.912C88.8 3.808 90.18 3.304 92.028 3.304C93.888 3.304 95.256 3.808 95.256 4.912ZM92.472 10.852H91.56V7.852H87.288V7.084H96.756V7.852H92.472V10.852ZM96.252 2.848H87.828V2.08H96.252V2.848ZM94.308 4.912C94.308 4.264 93.084 4.06 92.028 4.06C90.996 4.06 89.748 4.264 89.748 4.912C89.748 5.524 90.996 5.752 92.028 5.752C93.084 5.752 94.308 5.524 94.308 4.912ZM93.78 1.288H90.276V0.508H93.78V1.288ZM110.291 9.508H100.823V8.74H105.083V6.688H105.995V8.74H110.291V9.508ZM109.499 6.1H105.659V1.324H109.487V2.116H106.571V5.344H109.499V6.1ZM105.227 5.884C104.291 6.1 102.803 6.184 101.579 6.184V1.348H105.023V2.128H102.491V5.38C103.211 5.38 104.459 5.284 105.131 5.104L105.227 5.884ZM120.674 6.532H111.206V5.764H120.674V6.532ZM119.666 10.612H112.442V7.516H113.354V9.856H119.666V10.612ZM119.618 4.456H112.478V0.796H113.39V3.7H119.618V4.456ZM134.413 4.492H132.841V8.224H131.929V0.352H132.841V3.724H134.413V4.492ZM133.261 10.588H126.133V7.528H127.045V9.82H133.261V10.588ZM131.293 6.34C130.345 6.484 128.881 6.604 127.885 6.652C126.805 6.688 125.533 6.748 124.681 6.748L124.561 5.932C125.161 5.932 126.121 5.932 126.901 5.908V3.424H127.801V5.884C129.049 5.836 130.345 5.752 131.197 5.608L131.293 6.34ZM130.489 1.108C130.525 2.428 130.381 3.928 130.165 4.804L129.277 4.66C129.469 3.952 129.577 2.68 129.553 1.876H125.197V1.108H130.489ZM144.772 3.904H143.176V6.724H142.276V0.352H143.176V3.136H144.772V3.904ZM143.176 10.684H136.456V7.264H143.176V10.684ZM142.264 9.928V8.02H137.368V9.928H142.264ZM141.208 5.236L141.316 5.98C140.224 6.172 137.956 6.328 136.48 6.328H135.496V3.172H139.276V1.768H135.472V1.012H140.2V3.916H136.408V5.56H136.54C137.764 5.56 139.984 5.488 141.208 5.236ZM154.075 5.656H153.163V0.352H154.075V5.656ZM154.459 10.696H147.283V8.044H153.163V6.952H147.247V6.208H154.075V8.752H148.195V9.952H154.459V10.696ZM148.519 0.676C150.019 0.676 151.231 1.624 151.231 3.052C151.231 4.468 150.019 5.392 148.519 5.392C147.019 5.392 145.783 4.48 145.783 3.052C145.783 1.636 147.007 0.676 148.519 0.676ZM148.519 1.468C147.487 1.468 146.671 2.104 146.671 3.04C146.671 3.976 147.475 4.6 148.519 4.6C149.611 4.6 150.343 3.976 150.343 3.052C150.343 2.116 149.611 1.468 148.519 1.468ZM168.69 3.868H167.094V6.628H166.182V0.352H167.094V3.112H168.69V3.868ZM167.226 8.8C167.226 9.976 166.014 10.792 163.746 10.792C161.466 10.792 160.278 9.988 160.278 8.8C160.278 7.6 161.466 6.796 163.746 6.796C166.014 6.796 167.226 7.624 167.226 8.8ZM166.278 8.8C166.278 8.044 165.33 7.564 163.746 7.564C162.162 7.564 161.226 8.056 161.226 8.8C161.226 9.544 162.162 10.036 163.746 10.036C165.33 10.036 166.278 9.556 166.278 8.8ZM160.302 5.152H160.818C162.27 5.152 164.046 4.996 165.066 4.804L165.162 5.548C163.998 5.752 162.054 5.908 160.242 5.908H159.39V1.192H164.118V1.96H160.302V5.152ZM177.993 5.656H177.081V0.352H177.993V5.656ZM178.377 10.696H171.201V8.044H177.081V6.952H171.165V6.208H177.993V8.752H172.113V9.952H178.377V10.696ZM172.437 0.676C173.937 0.676 175.149 1.624 175.149 3.052C175.149 4.468 173.937 5.392 172.437 5.392C170.937 5.392 169.701 4.48 169.701 3.052C169.701 1.636 170.925 0.676 172.437 0.676ZM172.437 1.468C171.405 1.468 170.589 2.104 170.589 3.04C170.589 3.976 171.393 4.6 172.437 4.6C173.529 4.6 174.261 3.976 174.261 3.052C174.261 2.116 173.529 1.468 172.437 1.468ZM185.36 1.204C186.344 1.204 187.016 1.828 187.364 2.848H188.864V0.555999H189.752V10.312H188.864V6.892H187.364C187.004 7.9 186.344 8.512 185.36 8.512C183.824 8.512 183.044 7.012 183.044 4.852C183.044 2.716 183.824 1.204 185.36 1.204ZM186.788 4.852C186.788 3.112 186.236 1.996 185.36 1.996C184.472 1.996 183.932 3.112 183.932 4.852C183.932 6.628 184.472 7.72 185.36 7.72C186.236 7.72 186.788 6.628 186.788 4.852ZM191.804 10.84H190.904V0.352H191.804V10.84ZM188.864 3.616H187.568C187.64 4 187.676 4.42 187.676 4.852C187.676 5.32 187.628 5.752 187.556 6.124H188.864V3.616ZM197.855 8.032H193.691V1.504H197.855V8.032ZM202.187 10.84H201.287V5.308H200.003V10.312H199.115V0.603999H200.003V4.54H201.287V0.352H202.187V10.84ZM196.955 7.276V2.26H194.579V7.276H196.955ZM213.494 5.548H211.79V10.84H210.878V0.352H211.79V4.78H213.494V5.548ZM208.322 1.852H205.238V1.072H208.322V1.852ZM209.87 3.628H203.678V2.872H209.87V3.628ZM209.246 6.472C209.246 7.684 208.262 8.632 206.798 8.632C205.334 8.632 204.35 7.696 204.35 6.472C204.35 5.248 205.334 4.3 206.798 4.3C208.262 4.3 209.246 5.236 209.246 6.472ZM208.334 6.472C208.334 5.644 207.686 5.068 206.798 5.068C205.922 5.068 205.262 5.644 205.262 6.472C205.262 7.288 205.922 7.876 206.798 7.876C207.698 7.876 208.334 7.288 208.334 6.472ZM222.676 7.972H221.764V0.352H222.676V7.972ZM220.444 5.584L219.928 6.316C218.848 5.848 217.768 4.852 217.336 3.748C217.024 4.876 215.812 6.088 214.672 6.664L214.12 5.944C215.5 5.332 216.856 3.796 216.856 2.116V0.952H217.78V2.092C217.78 3.844 219.196 5.14 220.444 5.584ZM222.904 10.516H215.908V7.288H216.82V9.76H222.904V10.516ZM236.464 10.588H229.348V7.276H230.26V9.82H236.464V10.588ZM235.3 4.192H232.996V3.424H235.3V0.352H236.212V7.972H235.3V4.192ZM228.16 1.144H232.96C232.804 3.94 230.944 5.908 228.232 6.808L227.776 6.04C229.996 5.452 231.688 3.748 231.964 1.912H228.16V1.144ZM240.498 1.264C241.95 1.264 242.73 2.596 242.802 4.504H243.93V0.555999H244.818V10.336H243.93V5.26H242.802C242.706 7.156 241.938 8.44 240.498 8.44C238.974 8.44 238.194 6.964 238.194 4.852C238.194 2.752 238.974 1.264 240.498 1.264ZM241.902 4.852C241.902 3.16 241.35 2.068 240.498 2.068C239.658 2.068 239.118 3.16 239.118 4.852C239.118 6.556 239.658 7.636 240.498 7.636C241.35 7.636 241.902 6.556 241.902 4.852ZM246.87 10.84H245.97V0.352H246.87V10.84ZM260.405 10.84H259.505V5.248H258.101V10.3H257.213V0.603999H258.101V4.48H259.505V0.352H260.405V10.84ZM252.797 7.348H253.109C254.165 7.348 255.737 7.276 256.625 7.084L256.709 7.828C255.713 8.02 253.949 8.14 252.581 8.14H251.885V1.636H255.953V2.404H252.797V7.348ZM270.788 10.84H269.888V5.404H268.628V10.312H267.74V0.603999H268.628V4.636H269.888V0.352H270.788V10.84ZM266.948 6.364C266.948 7.624 266.012 8.452 264.656 8.452C263.312 8.452 262.364 7.564 262.364 6.364C262.364 5.092 263.312 4.264 264.656 4.264C266.012 4.264 266.948 5.104 266.948 6.364ZM266.072 6.364C266.072 5.56 265.484 5.032 264.656 5.032C263.828 5.032 263.252 5.56 263.252 6.364C263.252 7.18 263.828 7.696 264.656 7.696C265.484 7.696 266.072 7.156 266.072 6.364ZM267.14 3.664H261.92V2.908H267.14V3.664ZM266.012 1.948H263.144V1.156H266.012V1.948ZM280.931 10.84H280.019V4.864H277.571V4.096H280.019V0.352H280.931V10.84ZM278.603 7.636L278.039 8.332C277.079 7.684 275.867 6.352 275.447 5.092C275.075 6.4 274.043 7.696 272.831 8.572L272.231 7.888C273.755 6.928 274.967 5.068 274.967 3.208V1.264H275.915V3.172C275.915 5.092 277.163 6.796 278.603 7.636ZM292.178 6.532H282.71V5.764H292.178V6.532ZM291.17 10.612H283.946V7.516H284.858V9.856H291.17V10.612ZM291.122 4.456H283.982V0.796H284.894V3.7H291.122V4.456ZM297.013 2.896V2.128H302.461V2.896H300.169C300.325 3.904 301.621 4.588 302.761 4.672L302.353 5.392C301.225 5.212 300.121 4.564 299.725 3.82C299.365 4.612 298.321 5.344 297.025 5.584L296.605 4.9C297.805 4.768 299.089 4.024 299.245 2.896H297.013ZM304.825 10.84H303.913V0.352H304.825V10.84ZM300.133 10.456H299.221V6.94C298.213 6.988 297.229 7 296.281 7.024L296.137 6.232C297.385 6.232 298.537 6.208 299.701 6.16C301.057 6.112 302.389 6.016 303.217 5.932L303.325 6.652C302.545 6.748 301.285 6.832 300.133 6.88V10.456ZM298.309 1.432V0.676H301.153V1.432H298.309ZM315.724 5.536L315.22 6.268C313.384 5.752 311.8 4.444 311.344 3.268C310.948 4.468 309.328 5.764 307.492 6.268L307.012 5.536C308.848 5.188 310.888 3.688 310.888 1.888V1.132H311.836V1.888C311.836 3.688 313.996 5.2 315.724 5.536ZM316.096 9.508H306.628V8.74H310.888V6.052H311.8V8.74H316.096V9.508ZM316.663 10.72L319.483 0.736H320.311L317.491 10.72H316.663ZM329.633 0.352V8.092H328.721V5.188H326.717V4.432H328.721V2.872H326.717V2.104H328.721V0.352H329.633ZM329.897 10.492H322.877V7.312H323.789V9.724H329.897V10.492ZM326.141 6.352H321.533V1.048H322.445V2.968H325.217V1.048H326.141V6.352ZM325.217 5.596V3.724H322.445V5.596H325.217ZM340.1 8.8C340.1 10.024 338.804 10.792 336.536 10.792C334.244 10.792 332.96 10.024 332.96 8.8C332.96 7.588 334.244 6.82 336.536 6.82C338.804 6.82 340.1 7.588 340.1 8.8ZM336.536 7.588C334.88 7.588 333.908 8.032 333.908 8.8C333.908 9.58 334.88 10.036 336.536 10.036C338.192 10.036 339.164 9.58 339.164 8.8C339.164 8.032 338.192 7.588 336.536 7.588ZM336.788 5.2V4.444H339.104V3.004H336.956V2.248H339.104V0.352H340.016V6.976H339.104V5.2H336.788ZM336.848 1.168C336.692 3.808 334.796 5.872 332.024 6.844L331.568 6.064C333.728 5.464 335.504 3.724 335.816 1.948H332.024V1.168H336.848ZM341.483 10.72L344.303 0.736H345.131L342.311 10.72H341.483ZM18.044 23.252C17.288 23.348 15.932 23.468 14.684 23.552C13.508 23.624 12.2 23.66 11.468 23.66L11.312 22.892C12.08 22.892 13.136 22.892 14.192 22.856V22.124C13.076 22.016 12.224 21.548 12.224 20.648C12.224 19.616 13.352 19.112 14.684 19.112C16.04 19.112 17.168 19.604 17.168 20.636C17.168 21.56 16.268 22.028 15.116 22.124V22.808C16.22 22.736 17.372 22.64 17.996 22.544L18.044 23.252ZM21.188 20.876H19.544V24.512H18.62V16.328H19.544V20.108H21.188V20.876ZM19.808 26.66H12.896V24.056H13.808V25.904H19.808V26.66ZM17.696 18.764H11.6V18.02H17.696V18.764ZM16.316 20.636C16.316 20.096 15.608 19.844 14.684 19.844C13.772 19.844 13.088 20.096 13.088 20.636C13.088 21.176 13.772 21.428 14.684 21.428C15.608 21.428 16.316 21.164 16.316 20.636ZM16.16 17.384H13.268V16.616H16.16V17.384ZM30.5268 26.66H22.9788V24.32H29.2188V23.48H22.9428V22.736H26.0988V21.752H21.8388V20.996H31.3068V21.752H27.0108V22.736H30.1308V25.028H23.8908V25.904H30.5268V26.66ZM30.1188 20.24H23.0388V16.628H23.9508V17.72H29.2068V16.628H30.1188V20.24ZM29.2068 19.496V18.452H23.9508V19.496H29.2068ZM40.8496 26.84H39.9376V16.352H40.8496V26.84ZM32.5696 20.84C32.5696 18.632 33.5536 17.144 35.2696 17.144C37.0096 17.144 37.9816 18.632 37.9816 20.852C37.9816 23.072 37.0096 24.56 35.2696 24.56C33.5536 24.56 32.5696 23.072 32.5696 20.84ZM37.1176 20.852C37.1176 19.124 36.3856 17.936 35.2696 17.936C34.1656 17.936 33.4336 19.124 33.4336 20.852C33.4336 22.568 34.1656 23.768 35.2696 23.768C36.3856 23.768 37.1176 22.568 37.1176 20.852ZM54.4448 26.66H46.8968V24.32H53.1368V23.48H46.8608V22.736H50.0168V21.752H45.7568V20.996H55.2248V21.752H50.9288V22.736H54.0488V25.028H47.8088V25.904H54.4448V26.66ZM54.0368 20.24H46.9568V16.628H47.8688V17.72H53.1248V16.628H54.0368V20.24ZM53.1248 19.496V18.452H47.8688V19.496H53.1248ZM64.2036 16.352V20.72H65.9196V21.5H64.2036V26.84H63.2916V16.352H64.2036ZM61.4796 17.48C61.4196 20.888 59.4516 23.348 56.7516 24.752L56.1876 24.032C58.8036 22.82 60.3036 20.612 60.4956 18.248H56.5476V17.48H61.4796ZM76.1824 20.084H74.5864V22.436H73.6744V16.352H74.5864V19.316H76.1824V20.084ZM74.5864 26.768H67.9864V22.952H68.8984V24.068H73.6744V22.94H74.5864V26.768ZM73.6744 26V24.824H68.8984V26H73.6744ZM71.0464 17.264H68.0224V16.496H71.0464V17.264ZM72.5824 18.74H66.4744V17.996H72.5824V18.74ZM71.9704 20.864C71.9704 21.896 70.9504 22.556 69.5344 22.556C68.1064 22.556 67.0984 21.896 67.0984 20.864C67.0984 19.808 68.0824 19.16 69.5344 19.16C70.9504 19.16 71.9704 19.808 71.9704 20.864ZM71.0464 20.864C71.0464 20.252 70.3504 19.892 69.5344 19.892C68.7184 19.892 67.9984 20.252 67.9984 20.864C67.9984 21.464 68.7304 21.836 69.5344 21.836C70.3504 21.836 71.0464 21.464 71.0464 20.864ZM85.4012 16.352V26.84H84.5012V16.352H85.4012ZM83.4332 22.988L83.5172 23.78C82.3052 24.056 79.5692 24.26 77.9612 24.26H77.4932V17.444H78.4172V23.456C79.7612 23.456 82.1852 23.264 83.4332 22.988ZM95.376 16.352V20.516H97.08V21.284H95.376V26.84H94.464V16.352H95.376ZM88.62 23.492H89.22C90.576 23.492 92.652 23.372 93.66 23.156L93.756 23.912C92.628 24.128 90.552 24.272 88.728 24.272H87.696V17.444H92.676V18.212H88.62V23.492ZM97.7188 25.796V24.728H98.7628V25.796H97.7188ZM3.26459 37.596C3.26459 38.292 2.70059 38.844 2.00459 38.844C1.32059 38.844 0.756594 38.292 0.756594 37.596C0.756594 36.912 1.32059 36.348 2.00459 36.348C2.70059 36.348 3.26459 36.912 3.26459 37.596ZM15.3763 34.896V34.128H20.8243V34.896H18.5323C18.6883 35.904 19.9843 36.588 21.1243 36.672L20.7163 37.392C19.5883 37.212 18.4843 36.564 18.0883 35.82C17.7283 36.612 16.6843 37.344 15.3883 37.584L14.9683 36.9C16.1683 36.768 17.4523 36.024 17.6083 34.896H15.3763ZM23.1883 42.84H22.2763V32.352H23.1883V42.84ZM18.4963 42.456H17.5843V38.94C16.5763 38.988 15.5923 39 14.6443 39.024L14.5003 38.232C15.7483 38.232 16.9003 38.208 18.0643 38.16C19.4203 38.112 20.7523 38.016 21.5803 37.932L21.6883 38.652C20.9083 38.748 19.6483 38.832 18.4963 38.88V42.456ZM16.6723 33.432V32.676H19.5163V33.432H16.6723ZM34.0872 37.536L33.5832 38.268C31.7472 37.752 30.1632 36.444 29.7072 35.268C29.3112 36.468 27.6912 37.764 25.8552 38.268L25.3752 37.536C27.2112 37.188 29.2512 35.688 29.2512 33.888V33.132H30.1992V33.888C30.1992 35.688 32.3592 37.2 34.0872 37.536ZM34.4592 41.508H24.9912V40.74H29.2512V38.052H30.1632V40.74H34.4592V41.508ZM47.1663 42.84H46.2423V32.352H47.1663V42.84ZM44.9103 39.624L44.3343 40.32C43.3863 39.672 42.1503 38.376 41.7423 37.116C41.3583 38.424 40.2783 39.708 39.0663 40.572L38.4663 39.888C40.0023 38.928 41.2623 37.02 41.2623 35.16V33.264H42.1863V35.124C42.1863 37.044 43.4583 38.76 44.9103 39.624ZM54.4615 33.204C55.4455 33.204 56.1175 33.828 56.4655 34.848H57.9655V32.556H58.8535V42.312H57.9655V38.892H56.4655C56.1055 39.9 55.4455 40.512 54.4615 40.512C52.9255 40.512 52.1455 39.012 52.1455 36.852C52.1455 34.716 52.9255 33.204 54.4615 33.204ZM55.8895 36.852C55.8895 35.112 55.3375 33.996 54.4615 33.996C53.5735 33.996 53.0335 35.112 53.0335 36.852C53.0335 38.628 53.5735 39.72 54.4615 39.72C55.3375 39.72 55.8895 38.628 55.8895 36.852ZM60.9055 42.84H60.0055V32.352H60.9055V42.84ZM57.9655 35.616H56.6695C56.7415 36 56.7775 36.42 56.7775 36.852C56.7775 37.32 56.7295 37.752 56.6575 38.124H57.9655V35.616ZM66.9563 40.032H62.7923V33.504H66.9563V40.032ZM71.2883 42.84H70.3883V37.308H69.1043V42.312H68.2163V32.604H69.1043V36.54H70.3883V32.352H71.2883V42.84ZM66.0563 39.276V34.26H63.6803V39.276H66.0563ZM77.9991 42.852H77.0871V39.048H72.8271V38.28H82.2951V39.048H77.9991V42.852ZM81.9111 36.384L81.4791 37.164C79.9071 36.84 78.1911 35.856 77.5551 34.632C77.0511 35.856 75.2631 36.876 73.6671 37.188L73.2231 36.408C75.2391 36.144 77.0871 34.812 77.0871 33.384V32.712H78.0471V33.384C78.0471 34.812 80.0631 36.156 81.9111 36.384ZM88.3819 42.852H87.4699V39.048H83.2099V38.28H92.6779V39.048H88.3819V42.852ZM92.2939 36.384L91.8619 37.164C90.2899 36.84 88.5739 35.856 87.9379 34.632C87.4339 35.856 85.6459 36.876 84.0499 37.188L83.6059 36.408C85.6219 36.144 87.4699 34.812 87.4699 33.384V32.712H88.4299V33.384C88.4299 34.812 90.4459 36.156 92.2939 36.384ZM102.173 38.7H100.481V40.74H103.061V41.508H93.5927V40.74H96.2327V38.7H94.7447V35.508H100.961V33.9H94.7807V33.132H101.873V36.264H95.6687V37.944H102.173V38.7ZM97.1447 38.7V40.74H99.5807V38.7H97.1447ZM113.444 38.532H103.976V37.764H113.444V38.532ZM112.436 42.612H105.212V39.516H106.124V41.856H112.436V42.612ZM112.388 36.456H105.248V32.796H106.16V35.7H112.388V36.456ZM119.911 33.204C120.895 33.204 121.567 33.828 121.915 34.848H123.415V32.556H124.303V42.312H123.415V38.892H121.915C121.555 39.9 120.895 40.512 119.911 40.512C118.375 40.512 117.595 39.012 117.595 36.852C117.595 34.716 118.375 33.204 119.911 33.204ZM121.339 36.852C121.339 35.112 120.787 33.996 119.911 33.996C119.023 33.996 118.483 35.112 118.483 36.852C118.483 38.628 119.023 39.72 119.911 39.72C120.787 39.72 121.339 38.628 121.339 36.852ZM126.355 42.84H125.455V32.352H126.355V42.84ZM123.415 35.616H122.119C122.191 36 122.227 36.42 122.227 36.852C122.227 37.32 122.179 37.752 122.107 38.124H123.415V35.616ZM132.406 40.032H128.242V33.504H132.406V40.032ZM136.738 42.84H135.838V37.308H134.554V42.312H133.666V32.604H134.554V36.54H135.838V32.352H136.738V42.84ZM131.506 39.276V34.26H129.13V39.276H131.506ZM151.077 35.868H149.481V38.628H148.569V32.352H149.481V35.112H151.077V35.868ZM149.613 40.8C149.613 41.976 148.401 42.792 146.133 42.792C143.853 42.792 142.665 41.988 142.665 40.8C142.665 39.6 143.853 38.796 146.133 38.796C148.401 38.796 149.613 39.624 149.613 40.8ZM148.665 40.8C148.665 40.044 147.717 39.564 146.133 39.564C144.549 39.564 143.613 40.056 143.613 40.8C143.613 41.544 144.549 42.036 146.133 42.036C147.717 42.036 148.665 41.556 148.665 40.8ZM142.689 37.152H143.205C144.657 37.152 146.433 36.996 147.453 36.804L147.549 37.548C146.385 37.752 144.441 37.908 142.629 37.908H141.777V33.192H146.505V33.96H142.689V37.152ZM160.379 37.656H159.467V32.352H160.379V37.656ZM160.763 42.696H153.587V40.044H159.467V38.952H153.551V38.208H160.379V40.752H154.499V41.952H160.763V42.696ZM154.823 32.676C156.323 32.676 157.535 33.624 157.535 35.052C157.535 36.468 156.323 37.392 154.823 37.392C153.323 37.392 152.087 36.48 152.087 35.052C152.087 33.636 153.311 32.676 154.823 32.676ZM154.823 33.468C153.791 33.468 152.975 34.104 152.975 35.04C152.975 35.976 153.779 36.6 154.823 36.6C155.915 36.6 156.647 35.976 156.647 35.052C156.647 34.116 155.915 33.468 154.823 33.468ZM175.007 35.784H173.411V38.376H172.499V32.352H173.411V35.016H175.007V35.784ZM173.411 42.696H166.775V38.94H173.411V42.696ZM172.499 41.94V39.696H167.687V41.94H172.499ZM170.615 37.908H165.695V32.94H166.607V34.644H169.691V32.94H170.615V37.908ZM169.691 37.152V35.4H166.607V37.152H169.691ZM180.574 41.544V34.404L179.086 34.752V34.2L180.982 33.312H181.486V41.544H180.574ZM183.459 41.496V40.932L185.379 38.94C186.519 37.752 187.287 36.876 187.287 35.724C187.287 34.656 186.771 34.128 185.631 34.128C184.947 34.128 184.299 34.464 183.831 34.788L183.555 34.032C184.059 33.708 184.875 33.3 185.787 33.3C187.407 33.3 188.283 34.2 188.283 35.64C188.283 37.032 187.443 37.992 186.051 39.408L184.791 40.68H188.463V41.496H183.459ZM198.209 42.84H197.285V32.352H198.209V42.84ZM195.953 39.624L195.377 40.32C194.429 39.672 193.193 38.376 192.785 37.116C192.401 38.424 191.321 39.708 190.109 40.572L189.509 39.888C191.045 38.928 192.305 37.02 192.305 35.16V33.264H193.229V35.124C193.229 37.044 194.501 38.76 195.953 39.624ZM211.732 42.84H210.82V32.352H211.732V42.84ZM203.452 36.84C203.452 34.632 204.436 33.144 206.152 33.144C207.892 33.144 208.864 34.632 208.864 36.852C208.864 39.072 207.892 40.56 206.152 40.56C204.436 40.56 203.452 39.072 203.452 36.84ZM208 36.852C208 35.124 207.268 33.936 206.152 33.936C205.048 33.936 204.316 35.124 204.316 36.852C204.316 38.568 205.048 39.768 206.152 39.768C207.268 39.768 208 38.568 208 36.852ZM213.787 34.044V33.276H219.427V34.044H217.075C217.075 34.524 217.075 34.74 217.087 34.896C217.171 36.24 218.467 37.44 219.667 37.836L219.151 38.568C218.155 38.16 217.039 37.164 216.607 36.216C216.319 37.188 215.107 38.328 213.979 38.82L213.451 38.112C214.771 37.596 216.091 36.264 216.139 34.884C216.151 34.74 216.151 34.512 216.151 34.044H213.787ZM222.055 40.032H221.143V36.036H219.055V35.268H221.143V32.352H222.055V40.032ZM222.283 42.492H215.215V39.264H216.127V41.724H222.283V42.492ZM232.09 32.352V36.72H233.686V37.488H232.09V42.84H231.19V32.352H232.09ZM226.894 33.504C226.894 36.144 226.03 38.58 224.278 40.44L223.534 39.9C225.094 38.496 225.946 36 225.97 34.272H224.074V33.504H226.894ZM229.75 33.504C229.75 36.288 229.174 38.844 227.29 41.088L226.522 40.572C228.25 38.844 228.85 35.88 228.85 34.272H227.374V33.504H229.75ZM240.733 39.66L240.169 40.344C239.185 39.708 237.853 38.388 237.493 37.152C237.145 38.46 235.993 39.804 234.781 40.584L234.217 39.912C235.753 39.012 237.013 37.224 237.013 35.244V34.164H234.565V33.408H240.409V34.164H237.961V35.232C237.961 37.188 239.293 38.88 240.733 39.66ZM241.945 32.352H242.857V42.84H241.945V32.352ZM254.376 39.252C253.62 39.348 252.264 39.468 251.016 39.552C249.84 39.624 248.532 39.66 247.8 39.66L247.644 38.892C248.412 38.892 249.468 38.892 250.524 38.856V38.124C249.408 38.016 248.556 37.548 248.556 36.648C248.556 35.616 249.684 35.112 251.016 35.112C252.372 35.112 253.5 35.604 253.5 36.636C253.5 37.56 252.6 38.028 251.448 38.124V38.808C252.552 38.736 253.704 38.64 254.328 38.544L254.376 39.252ZM257.52 36.876H255.876V40.512H254.952V32.328H255.876V36.108H257.52V36.876ZM256.14 42.66H249.228V40.056H250.14V41.904H256.14V42.66ZM254.028 34.764H247.932V34.02H254.028V34.764ZM252.648 36.636C252.648 36.096 251.94 35.844 251.016 35.844C250.104 35.844 249.42 36.096 249.42 36.636C249.42 37.176 250.104 37.428 251.016 37.428C251.94 37.428 252.648 37.164 252.648 36.636ZM252.492 33.384H249.6V32.616H252.492V33.384ZM266.859 42.66H259.311V40.32H265.551V39.48H259.275V38.736H262.431V37.752H258.171V36.996H267.639V37.752H263.343V38.736H266.463V41.028H260.223V41.904H266.859V42.66ZM266.451 36.24H259.371V32.628H260.283V33.72H265.539V32.628H266.451V36.24ZM265.539 35.496V34.452H260.283V35.496H265.539ZM275.586 40.38C274.758 40.488 273.438 40.584 272.154 40.656C270.99 40.716 269.406 40.764 268.722 40.764L268.566 39.96C269.37 39.96 270.426 39.948 271.53 39.912V37.68H269.346V33.408H274.794V34.164H270.258V36.924H274.83V37.68H272.442V39.876C273.606 39.828 274.83 39.744 275.502 39.648L275.586 40.38ZM277.218 42.84H276.318V32.352H277.218V42.84ZM284.66 35.556V34.8H286.652V32.352H287.564V42.84H286.652V38.496H284.66V37.74H286.652V35.556H284.66ZM284.072 40.188H279.32V33.408H284.072V40.188ZM283.16 39.432V34.164H280.232V39.432H283.16ZM289.091 43.056L289.535 40.716H290.627L289.739 43.056H289.091ZM304.647 41.292H295.179V40.524H304.647V41.292ZM303.291 33.528C303.291 35.94 303.147 38.124 302.823 39.732L301.911 39.612C302.199 38.28 302.355 36 302.355 34.284H296.163V33.528H303.291ZM317.342 42.84H316.43V32.352H317.342V42.84ZM309.062 36.84C309.062 34.632 310.046 33.144 311.762 33.144C313.502 33.144 314.474 34.632 314.474 36.852C314.474 39.072 313.502 40.56 311.762 40.56C310.046 40.56 309.062 39.072 309.062 36.84ZM313.61 36.852C313.61 35.124 312.878 33.936 311.762 33.936C310.658 33.936 309.926 35.124 309.926 36.852C309.926 38.568 310.658 39.768 311.762 39.768C312.878 39.768 313.61 38.568 313.61 36.852ZM327.065 36.912C327.065 37.992 325.697 38.508 323.837 38.508C321.989 38.508 320.609 37.992 320.609 36.912C320.609 35.808 321.989 35.304 323.837 35.304C325.697 35.304 327.065 35.808 327.065 36.912ZM324.281 42.852H323.369V39.852H319.097V39.084H328.565V39.852H324.281V42.852ZM328.061 34.848H319.637V34.08H328.061V34.848ZM326.117 36.912C326.117 36.264 324.893 36.06 323.837 36.06C322.805 36.06 321.557 36.264 321.557 36.912C321.557 37.524 322.805 37.752 323.837 37.752C324.893 37.752 326.117 37.524 326.117 36.912ZM325.589 33.288H322.085V32.508H325.589V33.288ZM341.2 42.84H340.288V32.352H341.2V42.84ZM338.116 33.468C338.068 36.876 335.98 39.48 333.268 40.764L332.74 40.044C335.392 38.88 336.952 36.6 337.144 34.236H333.124V33.468H338.116ZM21.116 52.408H19.52V56.2H18.608V48.352H19.52V51.64H21.116V52.408ZM19.844 58.576H12.92V55.336H13.832V57.82H19.844V58.576ZM11.816 49.276H16.592C16.472 52.132 14.528 54.136 11.852 54.988L11.384 54.22C13.64 53.644 15.332 51.976 15.596 50.044H11.816V49.276ZM24.3108 49.264C25.7628 49.264 26.5428 50.596 26.6148 52.504H27.7428V48.556H28.6308V58.336H27.7428V53.26H26.6148C26.5188 55.156 25.7508 56.44 24.3108 56.44C22.7868 56.44 22.0068 54.964 22.0068 52.852C22.0068 50.752 22.7868 49.264 24.3108 49.264ZM25.7148 52.852C25.7148 51.16 25.1628 50.068 24.3108 50.068C23.4708 50.068 22.9308 51.16 22.9308 52.852C22.9308 54.556 23.4708 55.636 24.3108 55.636C25.1628 55.636 25.7148 54.556 25.7148 52.852ZM30.6828 58.84H29.7828V48.352H30.6828V58.84ZM41.6896 54.532H32.2216V53.764H41.6896V54.532ZM40.6816 58.612H33.4576V55.516H34.3696V57.856H40.6816V58.612ZM40.6336 52.456H33.4936V48.796H34.4056V51.7H40.6336V52.456ZM52.3448 55.252C51.5888 55.348 50.2328 55.468 48.9848 55.552C47.8088 55.624 46.5008 55.66 45.7688 55.66L45.6128 54.892C46.3808 54.892 47.4368 54.892 48.4928 54.856V54.124C47.3768 54.016 46.5248 53.548 46.5248 52.648C46.5248 51.616 47.6528 51.112 48.9848 51.112C50.3408 51.112 51.4688 51.604 51.4688 52.636C51.4688 53.56 50.5688 54.028 49.4168 54.124V54.808C50.5208 54.736 51.6728 54.64 52.2968 54.544L52.3448 55.252ZM55.4888 52.876H53.8448V56.512H52.9208V48.328H53.8448V52.108H55.4888V52.876ZM54.1088 58.66H47.1968V56.056H48.1088V57.904H54.1088V58.66ZM51.9968 50.764H45.9008V50.02H51.9968V50.764ZM50.6168 52.636C50.6168 52.096 49.9088 51.844 48.9848 51.844C48.0728 51.844 47.3888 52.096 47.3888 52.636C47.3888 53.176 48.0728 53.428 48.9848 53.428C49.9088 53.428 50.6168 53.164 50.6168 52.636ZM50.4608 49.384H47.5688V48.616H50.4608V49.384ZM64.8276 58.66H57.2796V56.32H63.5196V55.48H57.2436V54.736H60.3996V53.752H56.1396V52.996H65.6076V53.752H61.3116V54.736H64.4316V57.028H58.1916V57.904H64.8276V58.66ZM64.4196 52.24H57.3396V48.628H58.2516V49.72H63.5076V48.628H64.4196V52.24ZM63.5076 51.496V50.452H58.2516V51.496H63.5076ZM73.5544 56.38C72.7264 56.488 71.4064 56.584 70.1224 56.656C68.9584 56.716 67.3744 56.764 66.6904 56.764L66.5344 55.96C67.3384 55.96 68.3944 55.948 69.4984 55.912V53.68H67.3144V49.408H72.7624V50.164H68.2264V52.924H72.7984V53.68H70.4104V55.876C71.5744 55.828 72.7984 55.744 73.4704 55.648L73.5544 56.38ZM75.1864 58.84H74.2864V48.352H75.1864V58.84ZM83.3852 55.66L82.8212 56.344C81.8372 55.708 80.5052 54.388 80.1452 53.152C79.7972 54.46 78.6452 55.804 77.4332 56.584L76.8692 55.912C78.4052 55.012 79.6652 53.224 79.6652 51.244V50.164H77.2172V49.408H83.0612V50.164H80.6132V51.232C80.6132 53.188 81.9452 54.88 83.3852 55.66ZM84.5972 48.352H85.5092V58.84H84.5972V48.352ZM100.1 51.52H98.5044V53.38H97.5924V48.352H98.5044V50.752H100.1V51.52ZM98.1324 54.592H95.7204V53.848H98.1324V54.592ZM99.5124 55.828H94.2684V55.096H99.5124V55.828ZM98.8644 57.556C98.8644 58.408 97.9764 58.972 96.8724 58.972C95.7924 58.972 94.9044 58.408 94.9044 57.556C94.9044 56.68 95.7924 56.152 96.8724 56.152C97.9764 56.152 98.8644 56.68 98.8644 57.556ZM97.9764 57.556C97.9764 57.136 97.4844 56.872 96.8724 56.872C96.2844 56.872 95.7924 57.148 95.7924 57.556C95.7924 57.976 96.2844 58.252 96.8724 58.252C97.4844 58.252 97.9764 57.976 97.9764 57.556ZM94.5684 58.156C93.8244 58.372 92.7324 58.564 91.4004 58.552V54.772H92.3004V57.76C92.8884 57.772 93.8364 57.592 94.4124 57.412L94.5684 58.156ZM93.2724 48.868C94.7604 48.868 95.9844 49.864 95.9844 51.34C95.9844 52.852 94.7604 53.8 93.2724 53.8C91.7724 53.8 90.5484 52.852 90.5484 51.352C90.5484 49.864 91.7724 48.868 93.2724 48.868ZM93.2724 49.648C92.2164 49.648 91.4364 50.368 91.4364 51.34C91.4364 52.348 92.2164 53.02 93.2724 53.02C94.3644 53.02 95.1084 52.348 95.1084 51.352C95.1084 50.368 94.3764 49.648 93.2724 49.648ZM109.799 51.592L109.367 52.384C107.783 52.084 106.079 51.088 105.563 49.996C105.107 51.088 103.367 52.072 101.783 52.384L101.351 51.592C102.995 51.412 105.095 50.296 105.095 48.82V48.484H106.043V48.82C106.043 50.296 108.179 51.412 109.799 51.592ZM110.291 53.98H100.823V53.212H110.291V53.98ZM109.091 58.696H102.035V54.724H102.947V55.948H108.167V54.712H109.091V58.696ZM108.167 57.94V56.692H102.947V57.94H108.167ZM119.702 48.352V58.84H118.802V48.352H119.702ZM117.734 54.988L117.818 55.78C116.606 56.056 113.87 56.26 112.262 56.26H111.794V49.444H112.718V55.456C114.062 55.456 116.486 55.264 117.734 54.988ZM129.677 48.352V52.516H131.381V53.284H129.677V58.84H128.765V48.352H129.677ZM122.921 55.492H123.521C124.877 55.492 126.953 55.372 127.961 55.156L128.057 55.912C126.929 56.128 124.853 56.272 123.029 56.272H121.997V49.444H126.977V50.212H122.921V55.492ZM132.02 57.796V56.728H133.064V57.796H132.02ZM3.26459 69.596C3.26459 70.292 2.70059 70.844 2.00459 70.844C1.32059 70.844 0.756594 70.292 0.756594 69.596C0.756594 68.912 1.32059 68.348 2.00459 68.348C2.70059 68.348 3.26459 68.912 3.26459 69.596ZM19.1443 72.212H14.9563V65.396H15.8563V67.964H18.2443V65.396H19.1443V72.212ZM23.4523 74.84H22.5523V69.428H21.2683V74.312H20.3803V64.604H21.2683V68.66H22.5523V64.352H23.4523V74.84ZM18.2443 71.444V68.72H15.8563V71.444H18.2443ZM33.3312 72.992C33.3312 74.192 32.0232 74.864 29.7192 74.864C27.4272 74.864 26.1312 74.168 26.1312 72.992C26.1312 71.828 27.4272 71.108 29.7192 71.108C32.0232 71.108 33.3312 71.78 33.3312 72.992ZM29.7192 71.864C28.0752 71.864 27.0672 72.284 27.0672 72.992C27.0672 73.7 28.0752 74.108 29.7192 74.108C31.3872 74.108 32.3952 73.7 32.3952 72.992C32.3952 72.284 31.3872 71.864 29.7192 71.864ZM34.4592 70.244H24.9912V69.476H29.2632V67.868H30.1752V69.476H34.4592V70.244ZM34.0032 67.676L33.5832 68.456C31.8432 68.132 30.2232 67.028 29.7192 66.02C29.2992 67.028 27.7152 68.132 25.9152 68.456L25.4832 67.688C27.2472 67.496 29.2632 66.32 29.2632 64.844V64.484H30.2112V64.844C30.2112 66.32 32.4312 67.52 34.0032 67.676ZM44.0463 69.404H39.0063V65.108H44.0463V69.404ZM47.7783 74.3L47.3343 75.02C45.8463 74.84 44.4183 74.144 43.8303 73.208C43.2903 74.156 41.7183 74.876 40.2543 75.008L39.8823 74.288C41.3823 74.168 43.0503 73.412 43.3143 72.464H40.2783V71.708H47.4303V72.464H44.3583C44.6463 73.412 46.4343 74.168 47.7783 74.3ZM43.1463 68.648V65.852H39.9063V68.648H43.1463ZM47.1183 70.064H46.2063V64.352H47.1183V70.064ZM45.4983 70.844H42.1743V70.064H45.4983V70.844ZM61.7215 68.24H60.1255V71.96H59.2135V64.352H60.1255V67.472H61.7215V68.24ZM60.5335 74.48H53.4535V71.252H54.3655V73.724H60.5335V74.48ZM57.3415 70.376H52.3855V65.06H53.2975V66.86H56.4175V65.06H57.3415V70.376ZM56.4175 69.632V67.604H53.2975V69.632H56.4175ZM70.7843 72.992C70.7843 74.192 69.4763 74.864 67.1723 74.864C64.8803 74.864 63.5843 74.168 63.5843 72.992C63.5843 71.828 64.8803 71.108 67.1723 71.108C69.4763 71.108 70.7843 71.78 70.7843 72.992ZM67.1723 71.864C65.5283 71.864 64.5203 72.284 64.5203 72.992C64.5203 73.7 65.5283 74.108 67.1723 74.108C68.8403 74.108 69.8483 73.7 69.8483 72.992C69.8483 72.284 68.8403 71.864 67.1723 71.864ZM71.9123 70.244H62.4443V69.476H66.7163V67.868H67.6283V69.476H71.9123V70.244ZM71.4563 67.676L71.0363 68.456C69.2963 68.132 67.6763 67.028 67.1723 66.02C66.7523 67.028 65.1683 68.132 63.3683 68.456L62.9363 67.688C64.7003 67.496 66.7163 66.32 66.7163 64.844V64.484H67.6643V64.844C67.6643 66.32 69.8843 67.52 71.4563 67.676ZM79.0791 71.948L78.5511 72.644C77.4951 72.14 76.2471 70.928 75.8751 69.836C75.5751 70.952 74.3391 72.332 73.2111 72.932L72.6711 72.248C73.9671 71.624 75.3951 70.004 75.3951 68.06V67.688H72.9591V66.932H78.7551V67.688H76.3311V68.06C76.3311 69.968 77.8671 71.48 79.0791 71.948ZM80.4831 69.728H78.1911V68.96H80.4831V64.352H81.3951V74.84H80.4831V69.728ZM77.4471 65.792H74.2791V65.012H77.4471V65.792ZM90.9139 64.352H91.8259V74.84H90.9139V64.352ZM89.9539 71.228L90.0379 71.984C88.9459 72.152 87.1459 72.332 84.8419 72.332H83.7739V68.288H87.7459V66.08H83.7259V65.324H88.6699V69.044H84.6859V71.552H84.9379C86.6059 71.552 88.6819 71.456 89.9539 71.228ZM100.541 70.556C99.7127 70.664 98.4407 70.772 97.1687 70.844C95.9807 70.892 94.4327 70.928 93.7367 70.928L93.6047 70.136C94.4087 70.136 95.4887 70.136 96.6167 70.112V68.684H94.4207V65.12H99.7607V65.864H95.3327V67.952H99.8207V68.684H97.5407V70.076C98.6687 70.016 99.8087 69.932 100.457 69.836L100.541 70.556ZM102.401 74.576H95.3447V71.612H96.2567V73.82H102.401V74.576ZM102.185 72.272H101.273V64.352H102.185V72.272ZM113.644 71.18L113.74 71.936C112.6 72.152 110.296 72.308 108.628 72.308H107.716V65.348H112.6V66.104H108.64V68.3H112.408V69.044H108.64V71.516C110.284 71.564 112.6 71.396 113.644 71.18ZM115.732 74.84H114.82V64.352H115.732V74.84ZM122.071 65.252C122.047 67.88 120.883 69.836 118.243 70.988L117.643 70.292C119.095 69.764 120.043 68.912 120.571 67.904L117.799 68.228L117.607 67.412L120.883 67.172C121.003 66.8 121.075 66.416 121.099 66.02H118.123V65.252H122.071ZM126.847 74.216L126.343 74.972C125.095 74.72 123.355 73.616 122.839 72.464C122.419 73.58 120.667 74.636 119.203 74.948L118.723 74.204C120.427 73.964 122.395 72.728 122.395 71.228V70.844H123.355V71.228C123.355 72.74 125.299 73.988 126.847 74.216ZM123.535 68.096H121.987V67.34H123.535V64.544H124.411V70.46H123.535V68.096ZM126.355 71.312H125.443V64.352H126.355V71.312ZM135.598 64.352H136.51V74.84H135.598V64.352ZM133.942 67.664C133.942 69.152 132.73 70.1 131.218 70.1C129.67 70.1 128.482 69.068 128.482 67.664C128.482 66.188 129.694 65.168 131.218 65.168C132.766 65.168 133.942 66.128 133.942 67.664ZM133.054 67.664C133.054 66.608 132.238 65.948 131.218 65.948C130.21 65.948 129.37 66.68 129.37 67.664C129.37 68.636 130.198 69.332 131.218 69.332C132.214 69.332 133.054 68.648 133.054 67.664ZM134.986 72.176C134.086 72.284 132.586 72.38 131.254 72.44C130.018 72.5 128.866 72.536 128.074 72.548L127.906 71.744C128.806 71.756 130.042 71.732 131.314 71.66C132.778 71.612 134.134 71.528 134.902 71.432L134.986 72.176ZM145.965 72.212H141.777V65.396H142.677V67.964H145.065V65.396H145.965V72.212ZM150.273 74.84H149.373V69.428H148.089V74.312H147.201V64.604H148.089V68.66H149.373V64.352H150.273V74.84ZM145.065 71.444V68.72H142.677V71.444H145.065ZM160.151 72.992C160.151 74.192 158.843 74.864 156.539 74.864C154.247 74.864 152.951 74.168 152.951 72.992C152.951 71.828 154.247 71.108 156.539 71.108C158.843 71.108 160.151 71.78 160.151 72.992ZM156.539 71.864C154.895 71.864 153.887 72.284 153.887 72.992C153.887 73.7 154.895 74.108 156.539 74.108C158.207 74.108 159.215 73.7 159.215 72.992C159.215 72.284 158.207 71.864 156.539 71.864ZM161.279 70.244H151.811V69.476H156.083V67.868H156.995V69.476H161.279V70.244ZM160.823 67.676L160.403 68.456C158.663 68.132 157.043 67.028 156.539 66.02C156.119 67.028 154.535 68.132 152.735 68.456L152.303 67.688C154.067 67.496 156.083 66.32 156.083 64.844V64.484H157.031V64.844C157.031 66.32 159.251 67.52 160.823 67.676ZM170.774 70.7H169.082V72.74H171.662V73.508H162.194V72.74H164.834V70.7H163.346V67.508H169.562V65.9H163.382V65.132H170.474V68.264H164.27V69.944H170.774V70.7ZM165.746 70.7V72.74H168.182V70.7H165.746ZM182.045 70.532H172.577V69.764H182.045V70.532ZM181.037 74.612H173.813V71.516H174.725V73.856H181.037V74.612ZM180.989 68.456H173.849V64.796H174.761V67.7H180.989V68.456ZM192.7 71.252C191.944 71.348 190.588 71.468 189.34 71.552C188.164 71.624 186.856 71.66 186.124 71.66L185.968 70.892C186.736 70.892 187.792 70.892 188.848 70.856V70.124C187.732 70.016 186.88 69.548 186.88 68.648C186.88 67.616 188.008 67.112 189.34 67.112C190.696 67.112 191.824 67.604 191.824 68.636C191.824 69.56 190.924 70.028 189.772 70.124V70.808C190.876 70.736 192.028 70.64 192.652 70.544L192.7 71.252ZM195.844 68.876H194.2V72.512H193.276V64.328H194.2V68.108H195.844V68.876ZM194.464 74.66H187.552V72.056H188.464V73.904H194.464V74.66ZM192.352 66.764H186.256V66.02H192.352V66.764ZM190.972 68.636C190.972 68.096 190.264 67.844 189.34 67.844C188.428 67.844 187.744 68.096 187.744 68.636C187.744 69.176 188.428 69.428 189.34 69.428C190.264 69.428 190.972 69.164 190.972 68.636ZM190.816 65.384H187.924V64.616H190.816V65.384ZM205.183 74.66H197.635V72.32H203.875V71.48H197.599V70.736H200.755V69.752H196.495V68.996H205.963V69.752H201.667V70.736H204.787V73.028H198.547V73.904H205.183V74.66ZM204.775 68.24H197.695V64.628H198.607V65.72H203.863V64.628H204.775V68.24ZM203.863 67.496V66.452H198.607V67.496H203.863ZM213.91 72.38C213.082 72.488 211.762 72.584 210.478 72.656C209.314 72.716 207.73 72.764 207.046 72.764L206.89 71.96C207.694 71.96 208.75 71.948 209.854 71.912V69.68H207.67V65.408H213.118V66.164H208.582V68.924H213.154V69.68H210.766V71.876C211.93 71.828 213.154 71.744 213.826 71.648L213.91 72.38ZM215.542 74.84H214.642V64.352H215.542V74.84ZM223.741 71.66L223.177 72.344C222.193 71.708 220.861 70.388 220.501 69.152C220.153 70.46 219.001 71.804 217.789 72.584L217.225 71.912C218.761 71.012 220.021 69.224 220.021 67.244V66.164H217.573V65.408H223.417V66.164H220.969V67.232C220.969 69.188 222.301 70.88 223.741 71.66ZM224.953 64.352H225.865V74.84H224.953V64.352ZM240.456 67.52H238.86V69.38H237.948V64.352H238.86V66.752H240.456V67.52ZM238.488 70.592H236.076V69.848H238.488V70.592ZM239.868 71.828H234.624V71.096H239.868V71.828ZM239.22 73.556C239.22 74.408 238.332 74.972 237.228 74.972C236.148 74.972 235.26 74.408 235.26 73.556C235.26 72.68 236.148 72.152 237.228 72.152C238.332 72.152 239.22 72.68 239.22 73.556ZM238.332 73.556C238.332 73.136 237.84 72.872 237.228 72.872C236.64 72.872 236.148 73.148 236.148 73.556C236.148 73.976 236.64 74.252 237.228 74.252C237.84 74.252 238.332 73.976 238.332 73.556ZM234.924 74.156C234.18 74.372 233.088 74.564 231.756 74.552V70.772H232.656V73.76C233.244 73.772 234.192 73.592 234.768 73.412L234.924 74.156ZM233.628 64.868C235.116 64.868 236.34 65.864 236.34 67.34C236.34 68.852 235.116 69.8 233.628 69.8C232.128 69.8 230.904 68.852 230.904 67.352C230.904 65.864 232.128 64.868 233.628 64.868ZM233.628 65.648C232.572 65.648 231.792 66.368 231.792 67.34C231.792 68.348 232.572 69.02 233.628 69.02C234.72 69.02 235.464 68.348 235.464 67.352C235.464 66.368 234.732 65.648 233.628 65.648ZM250.155 67.592L249.723 68.384C248.139 68.084 246.435 67.088 245.919 65.996C245.463 67.088 243.723 68.072 242.139 68.384L241.707 67.592C243.351 67.412 245.451 66.296 245.451 64.82V64.484H246.399V64.82C246.399 66.296 248.535 67.412 250.155 67.592ZM250.647 69.98H241.179V69.212H250.647V69.98ZM249.447 74.696H242.391V70.724H243.303V71.948H248.523V70.712H249.447V74.696ZM248.523 73.94V72.692H243.303V73.94H248.523ZM260.057 64.352V74.84H259.157V64.352H260.057ZM258.089 70.988L258.173 71.78C256.961 72.056 254.225 72.26 252.617 72.26H252.149V65.444H253.073V71.456C254.417 71.456 256.841 71.264 258.089 70.988ZM270.032 64.352V68.516H271.736V69.284H270.032V74.84H269.12V64.352H270.032ZM263.276 71.492H263.876C265.232 71.492 267.308 71.372 268.316 71.156L268.412 71.912C267.284 72.128 265.208 72.272 263.384 72.272H262.352V65.444H267.332V66.212H263.276V71.492ZM272.375 73.796V72.728H273.419V73.796H272.375ZM3.26459 85.596C3.26459 86.292 2.70059 86.844 2.00459 86.844C1.32059 86.844 0.756594 86.292 0.756594 85.596C0.756594 84.912 1.32059 84.348 2.00459 84.348C2.70059 84.348 3.26459 84.912 3.26459 85.596ZM15.3763 82.896V82.128H20.8243V82.896H18.5323C18.6883 83.904 19.9843 84.588 21.1243 84.672L20.7163 85.392C19.5883 85.212 18.4843 84.564 18.0883 83.82C17.7283 84.612 16.6843 85.344 15.3883 85.584L14.9683 84.9C16.1683 84.768 17.4523 84.024 17.6083 82.896H15.3763ZM23.1883 90.84H22.2763V80.352H23.1883V90.84ZM18.4963 90.456H17.5843V86.94C16.5763 86.988 15.5923 87 14.6443 87.024L14.5003 86.232C15.7483 86.232 16.9003 86.208 18.0643 86.16C19.4203 86.112 20.7523 86.016 21.5803 85.932L21.6883 86.652C20.9083 86.748 19.6483 86.832 18.4963 86.88V90.456ZM16.6723 81.432V80.676H19.5163V81.432H16.6723ZM34.0872 85.536L33.5832 86.268C31.7472 85.752 30.1632 84.444 29.7072 83.268C29.3112 84.468 27.6912 85.764 25.8552 86.268L25.3752 85.536C27.2112 85.188 29.2512 83.688 29.2512 81.888V81.132H30.1992V81.888C30.1992 83.688 32.3592 85.2 34.0872 85.536ZM34.4592 89.508H24.9912V88.74H29.2512V86.052H30.1632V88.74H34.4592V89.508ZM43.942 85.656H43.03V80.352H43.942V85.656ZM44.326 90.696H37.15V88.044H43.03V86.952H37.114V86.208H43.942V88.752H38.062V89.952H44.326V90.696ZM38.386 80.676C39.886 80.676 41.098 81.624 41.098 83.052C41.098 84.468 39.886 85.392 38.386 85.392C36.886 85.392 35.65 84.48 35.65 83.052C35.65 81.636 36.874 80.676 38.386 80.676ZM38.386 81.468C37.354 81.468 36.538 82.104 36.538 83.04C36.538 83.976 37.342 84.6 38.386 84.6C39.478 84.6 40.21 83.976 40.21 83.052C40.21 82.116 39.478 81.468 38.386 81.468ZM51.9728 87.696L51.4208 88.38C50.4368 87.756 49.1528 86.436 48.7808 85.188C48.4208 86.46 47.4008 87.756 46.1408 88.632L45.5408 87.948C47.0888 87.036 48.3008 85.188 48.3008 83.304V82.224H45.8768V81.456H51.6728V82.224H49.2488V83.28C49.2488 85.236 50.5328 86.88 51.9728 87.696ZM55.5248 85.38H53.8208V90.84H52.9088V80.352H53.8208V84.612H55.5248V85.38ZM58.6116 81.264C60.0636 81.264 60.8436 82.596 60.9156 84.504H62.0436V80.556H62.9316V90.336H62.0436V85.26H60.9156C60.8196 87.156 60.0516 88.44 58.6116 88.44C57.0876 88.44 56.3076 86.964 56.3076 84.852C56.3076 82.752 57.0876 81.264 58.6116 81.264ZM60.0156 84.852C60.0156 83.16 59.4636 82.068 58.6116 82.068C57.7716 82.068 57.2316 83.16 57.2316 84.852C57.2316 86.556 57.7716 87.636 58.6116 87.636C59.4636 87.636 60.0156 86.556 60.0156 84.852ZM64.9836 90.84H64.0836V80.352H64.9836V90.84ZM79.4428 85.284H77.9188V90.84H77.0068V80.352H77.9188V84.516H79.4428V85.284ZM72.8548 87.756C71.9788 87.948 71.1988 88.032 69.9148 88.032V81.456H72.5428V82.212H70.8148V87.252C71.4268 87.252 72.0028 87.192 72.7228 87.012L72.8548 87.756ZM76.5148 87.804C75.6388 88.008 74.5828 88.056 73.1908 88.056V81.456H75.9868V82.212H74.0908V87.276C74.8708 87.276 75.7588 87.216 76.4068 87.06L76.5148 87.804ZM88.1096 80.352V84.576H89.8016V85.344H88.1096V90.84H87.2096V80.352H88.1096ZM86.2856 87.216L86.4056 87.948C85.2296 88.188 83.0456 88.344 81.3296 88.344H80.4416V84.288H84.3536V82.08H80.4176V81.324H85.2656V85.044H81.3536V87.576C83.0216 87.588 84.8816 87.48 86.2856 87.216ZM103.373 85.344H101.657V90.84H100.745V80.352H101.657V84.576H103.373V85.344ZM93.7367 84.84C93.7367 82.632 94.7207 81.144 96.4247 81.144C98.1287 81.144 99.1007 82.632 99.1007 84.852C99.1007 87.072 98.1287 88.56 96.4247 88.56C94.7207 88.56 93.7367 87.072 93.7367 84.84ZM98.2127 84.852C98.2127 83.124 97.5167 81.936 96.4247 81.936C95.3327 81.936 94.6247 83.124 94.6247 84.852C94.6247 86.568 95.3327 87.768 96.4247 87.768C97.5167 87.768 98.2127 86.568 98.2127 84.852ZM112.82 90.84H111.92V85.308H110.552V90.3H109.652V80.604H110.552V84.54H111.92V80.352H112.82V90.84ZM109.028 87.204L109.124 87.96C108.008 88.164 106.28 88.308 104.972 88.308H104.288V84.36H107.42V82.224H104.264V81.468H108.332V85.116H105.2V87.54C106.148 87.54 107.864 87.444 109.028 87.204ZM117.49 81.036C119.11 81.036 120.346 82.032 120.346 83.556C120.346 84.936 119.338 85.86 117.958 86.04V87.744C119.134 87.672 120.202 87.6 120.874 87.504L120.946 88.236C120.118 88.356 118.678 88.464 117.406 88.548C116.254 88.608 115.222 88.644 114.346 88.644L114.178 87.84C114.958 87.84 115.978 87.84 117.046 87.792V86.04C115.654 85.884 114.646 84.96 114.646 83.568C114.646 82.044 115.87 81.036 117.49 81.036ZM117.49 81.816C116.35 81.816 115.534 82.5 115.534 83.568C115.534 84.624 116.362 85.296 117.49 85.296C118.666 85.296 119.446 84.624 119.446 83.58C119.446 82.5 118.678 81.816 117.49 81.816ZM124.126 85.512H122.446V90.84H121.522V80.352H122.446V84.744H124.126V85.512ZM137.554 83.748H135.958V86.052H135.046V80.352H135.958V82.98H137.554V83.748ZM136.27 90.744H129.346V86.604H136.03V87.324H130.258V88.296H135.898V88.992H130.258V90.036H136.27V90.744ZM128.242 81.048H133.03C132.79 83.916 130.978 85.596 128.326 86.388L127.858 85.656C130.03 85.056 131.626 83.772 131.986 81.804H128.242V81.048ZM146.904 90.84H145.992V80.352H146.904V90.84ZM138.624 84.84C138.624 82.632 139.608 81.144 141.324 81.144C143.064 81.144 144.036 82.632 144.036 84.852C144.036 87.072 143.064 88.56 141.324 88.56C139.608 88.56 138.624 87.072 138.624 84.84ZM143.172 84.852C143.172 83.124 142.44 81.936 141.324 81.936C140.22 81.936 139.488 83.124 139.488 84.852C139.488 86.568 140.22 87.768 141.324 87.768C142.44 87.768 143.172 86.568 143.172 84.852ZM152.579 82.896V82.128H158.027V82.896H155.735C155.891 83.904 157.187 84.588 158.327 84.672L157.919 85.392C156.791 85.212 155.687 84.564 155.291 83.82C154.931 84.612 153.887 85.344 152.591 85.584L152.171 84.9C153.371 84.768 154.655 84.024 154.811 82.896H152.579ZM160.391 90.84H159.479V80.352H160.391V90.84ZM155.699 90.456H154.787V86.94C153.779 86.988 152.795 87 151.847 87.024L151.703 86.232C152.951 86.232 154.103 86.208 155.267 86.16C156.623 86.112 157.955 86.016 158.783 85.932L158.891 86.652C158.111 86.748 156.851 86.832 155.699 86.88V90.456ZM153.875 81.432V80.676H156.719V81.432H153.875ZM171.29 85.536L170.786 86.268C168.95 85.752 167.366 84.444 166.91 83.268C166.514 84.468 164.894 85.764 163.058 86.268L162.578 85.536C164.414 85.188 166.454 83.688 166.454 81.888V81.132H167.402V81.888C167.402 83.688 169.562 85.2 171.29 85.536ZM171.662 89.508H162.194V88.74H166.454V86.052H167.366V88.74H171.662V89.508ZM177.749 90.852H176.837V87.048H172.577V86.28H182.045V87.048H177.749V90.852ZM181.661 84.384L181.229 85.164C179.657 84.84 177.941 83.856 177.305 82.632C176.801 83.856 175.013 84.876 173.417 85.188L172.973 84.408C174.989 84.144 176.837 82.812 176.837 81.384V80.712H177.797V81.384C177.797 82.812 179.813 84.156 181.661 84.384ZM188.132 90.852H187.22V87.048H182.96V86.28H192.428V87.048H188.132V90.852ZM192.044 84.384L191.612 85.164C190.04 84.84 188.324 83.856 187.688 82.632C187.184 83.856 185.396 84.876 183.8 85.188L183.356 84.408C185.372 84.144 187.22 82.812 187.22 81.384V80.712H188.18V81.384C188.18 82.812 190.196 84.156 192.044 84.384ZM201.923 86.7H200.231V88.74H202.811V89.508H193.343V88.74H195.983V86.7H194.495V83.508H200.711V81.9H194.531V81.132H201.623V84.264H195.419V85.944H201.923V86.7ZM196.895 86.7V88.74H199.331V86.7H196.895ZM211.79 80.352V84.72H213.506V85.5H211.79V90.84H210.878V80.352H211.79ZM209.066 81.48C209.006 84.888 207.038 87.348 204.338 88.752L203.774 88.032C206.39 86.82 207.89 84.612 208.082 82.248H204.134V81.48H209.066ZM225.577 85.38H218.401V80.76H219.325V82.308H224.665V80.76H225.577V85.38ZM222.433 90.852H221.521V87.396H217.261V86.628H226.729V87.396H222.433V90.852ZM224.665 84.624V83.052H219.325V84.624H224.665ZM237.472 85.512H235.768V90.84H234.856V80.352H235.768V84.732H237.472V85.512ZM234.256 88.188C233.247 88.32 231.7 88.428 230.68 88.488C229.624 88.536 228.46 88.572 227.583 88.572L227.452 87.768C228.028 87.768 228.964 87.78 229.744 87.756V84.444H230.668V87.732C231.928 87.672 233.247 87.576 234.184 87.432L234.256 88.188ZM233.464 81.456C233.488 83.064 233.32 85.248 233.092 86.268L232.216 86.148C232.444 85.128 232.588 83.4 232.54 82.224H227.979V81.456H233.464ZM246.618 90.696H239.79V86.94H240.702V88.02H245.706V86.916H246.618V90.696ZM244.974 85.908C244.146 86.004 242.874 86.124 241.602 86.184C240.414 86.244 238.866 86.28 238.17 86.28L238.038 85.476C238.842 85.476 239.934 85.476 241.074 85.44V84.168H238.938V80.928H244.026V81.684H239.85V83.412H244.122V84.168H241.986V85.404C243.114 85.356 244.242 85.272 244.89 85.176L244.974 85.908ZM245.706 89.952V88.764H240.702V89.952H245.706ZM246.618 86.352H245.706V80.352H246.618V86.352ZM256.905 80.352V90.84H256.005V80.352H256.905ZM254.937 86.988L255.021 87.78C253.809 88.056 251.073 88.26 249.465 88.26H248.997V81.444H249.921V87.456C251.265 87.456 253.689 87.264 254.937 86.988ZM266.88 80.352V84.516H268.584V85.284H266.88V90.84H265.968V80.352H266.88ZM260.124 87.492H260.724C262.08 87.492 264.156 87.372 265.164 87.156L265.26 87.912C264.132 88.128 262.056 88.272 260.232 88.272H259.2V81.444H264.18V82.212H260.124V87.492ZM269.223 89.796V88.728H270.267V89.796H269.223ZM274.186 90.72C273.082 89.592 272.11 87.948 272.11 85.824V85.632C272.11 83.496 273.082 81.864 274.186 80.736H275.014C273.946 81.924 273.082 83.64 273.082 85.548V85.836C273.082 87.684 273.946 89.52 275.014 90.72H274.186ZM278.09 81.204C279.074 81.204 279.746 81.828 280.094 82.848H281.594V80.556H282.482V90.312H281.594V86.892H280.094C279.734 87.9 279.074 88.512 278.09 88.512C276.554 88.512 275.774 87.012 275.774 84.852C275.774 82.716 276.554 81.204 278.09 81.204ZM279.518 84.852C279.518 83.112 278.966 81.996 278.09 81.996C277.202 81.996 276.662 83.112 276.662 84.852C276.662 86.628 277.202 87.72 278.09 87.72C278.966 87.72 279.518 86.628 279.518 84.852ZM284.534 90.84H283.634V80.352H284.534V90.84ZM281.594 83.616H280.298C280.37 84 280.406 84.42 280.406 84.852C280.406 85.32 280.358 85.752 280.286 86.124H281.594V83.616ZM290.585 88.032H286.421V81.504H290.585V88.032ZM294.917 90.84H294.017V85.308H292.733V90.312H291.845V80.604H292.733V84.54H294.017V80.352H294.917V90.84ZM289.685 87.276V82.26H287.309V87.276H289.685ZM305.024 85.656H304.112V80.352H305.024V85.656ZM305.408 90.696H298.232V88.044H304.112V86.952H298.196V86.208H305.024V88.752H299.144V89.952H305.408V90.696ZM299.468 80.676C300.968 80.676 302.18 81.624 302.18 83.052C302.18 84.468 300.968 85.392 299.468 85.392C297.968 85.392 296.732 84.48 296.732 83.052C296.732 81.636 297.956 80.676 299.468 80.676ZM299.468 81.468C298.436 81.468 297.62 82.104 297.62 83.04C297.62 83.976 298.424 84.6 299.468 84.6C300.56 84.6 301.292 83.976 301.292 83.052C301.292 82.116 300.56 81.468 299.468 81.468ZM318.559 90.84H317.647V80.352H318.559V90.84ZM315.475 81.468C315.427 84.876 313.339 87.48 310.627 88.764L310.099 88.044C312.751 86.88 314.311 84.6 314.503 82.236H310.483V81.468H315.475ZM329.386 84.204L328.966 84.984C327.214 84.684 325.63 83.772 325.102 82.824C324.694 83.784 323.134 84.696 321.286 84.984L320.866 84.216C322.618 84.06 324.55 83.1 324.634 81.708H321.214V80.94H328.978V81.708H325.594C325.678 83.112 327.814 84.06 329.386 84.204ZM325.558 88.548H324.646V86.472H320.374V85.716H329.842V86.472H325.558V88.548ZM328.87 90.516H321.538V87.444H322.45V89.748H328.87V90.516ZM339.073 86.628H335.929V88.764H340.225V89.532H330.757V88.764H335.017V86.628H331.897V81.072H332.821V83.004H338.161V81.072H339.073V86.628ZM338.161 85.872V83.76H332.821V85.872H338.161ZM19.544 96.352V100.516H21.248V101.284H19.544V106.84H18.632V96.352H19.544ZM12.788 103.492H13.388C14.744 103.492 16.82 103.372 17.828 103.156L17.924 103.912C16.796 104.128 14.72 104.272 12.896 104.272H11.864V97.444H16.844V98.212H12.788V103.492ZM34.6632 100.492H33.0912V104.224H32.1792V96.352H33.0912V99.724H34.6632V100.492ZM33.5112 106.588H26.3832V103.528H27.2952V105.82H33.5112V106.588ZM31.5432 102.34C30.5952 102.484 29.1312 102.604 28.1352 102.652C27.0552 102.688 25.7832 102.748 24.9312 102.748L24.8112 101.932C25.4112 101.932 26.3712 101.932 27.1512 101.908V99.424H28.0512V101.884C29.2992 101.836 30.5952 101.752 31.4472 101.608L31.5432 102.34ZM30.7392 97.108C30.7752 98.428 30.6312 99.928 30.4152 100.804L29.5272 100.66C29.7192 99.952 29.8272 98.68 29.8032 97.876H25.4472V97.108H30.7392ZM45.022 99.904H43.426V102.724H42.526V96.352H43.426V99.136H45.022V99.904ZM43.426 106.684H36.706V103.264H43.426V106.684ZM42.514 105.928V104.02H37.618V105.928H42.514ZM41.458 101.236L41.566 101.98C40.474 102.172 38.206 102.328 36.73 102.328H35.746V99.172H39.526V97.768H35.722V97.012H40.45V99.916H36.658V101.56H36.79C38.014 101.56 40.234 101.488 41.458 101.236ZM54.3248 101.656H53.4128V96.352H54.3248V101.656ZM54.7088 106.696H47.5328V104.044H53.4128V102.952H47.4968V102.208H54.3248V104.752H48.4448V105.952H54.7088V106.696ZM48.7688 96.676C50.2688 96.676 51.4808 97.624 51.4808 99.052C51.4808 100.468 50.2688 101.392 48.7688 101.392C47.2688 101.392 46.0328 100.48 46.0328 99.052C46.0328 97.636 47.2568 96.676 48.7688 96.676ZM48.7688 97.468C47.7368 97.468 46.9208 98.104 46.9208 99.04C46.9208 99.976 47.7248 100.6 48.7688 100.6C49.8608 100.6 50.5928 99.976 50.5928 99.052C50.5928 98.116 49.8608 97.468 48.7688 97.468ZM67.8599 106.84H66.9479V96.352H67.8599V106.84ZM64.7759 97.468C64.7279 100.876 62.6399 103.48 59.9279 104.764L59.3999 104.044C62.0519 102.88 63.6119 100.6 63.8039 98.236H59.7839V97.468H64.7759ZM78.6868 100.204L78.2668 100.984C76.5148 100.684 74.9308 99.772 74.4028 98.824C73.9948 99.784 72.4348 100.696 70.5868 100.984L70.1668 100.216C71.9188 100.06 73.8508 99.1 73.9348 97.708H70.5148V96.94H78.2788V97.708H74.8948C74.9788 99.112 77.1148 100.06 78.6868 100.204ZM74.8588 104.548H73.9468V102.472H69.6748V101.716H79.1428V102.472H74.8588V104.548ZM78.1708 106.516H70.8388V103.444H71.7508V105.748H78.1708V106.516ZM91.6939 99.136C91.6939 100.528 90.2899 101.488 87.9379 101.488C85.5979 101.488 84.1819 100.54 84.1819 99.136C84.1819 97.744 85.5979 96.796 87.9379 96.796C90.2899 96.796 91.6939 97.744 91.6939 99.136ZM87.9379 97.588C86.1739 97.588 85.0939 98.176 85.0939 99.136C85.0939 100.108 86.1739 100.696 87.9379 100.696C89.7259 100.696 90.8059 100.108 90.8059 99.136C90.8059 98.176 89.7259 97.588 87.9379 97.588ZM88.3939 106.852H87.4819V103.204H83.2459V102.436H92.7259V103.204H88.3939V106.852ZM102.161 103.972H101.249V99.772H99.0167V99.004H101.249V96.352H102.161V103.972ZM102.389 106.516H95.4167V103.312H96.3287V105.76H102.389V106.516ZM99.7247 101.692L99.2087 102.412C98.1527 101.944 97.0847 100.96 96.6407 99.856C96.3287 100.984 95.2007 102.124 94.0607 102.7L93.4967 101.992C94.8887 101.38 96.1607 99.952 96.1607 98.26V96.952H97.0847V98.224C97.0847 99.976 98.4887 101.236 99.7247 101.692ZM107.404 97.936V97.168H113.056V97.936H110.716C110.716 98.152 110.716 98.428 110.728 98.56C110.812 99.988 112.084 101.152 113.284 101.548L112.78 102.28C111.772 101.872 110.68 100.828 110.248 99.88C109.96 100.864 108.7 102.124 107.572 102.616L107.08 101.884C108.4 101.38 109.732 100.048 109.78 98.56C109.792 98.428 109.792 98.14 109.792 97.936H107.404ZM108.712 103.156H115.708V106.84H114.784V103.912H108.712V103.156ZM115.696 102.604H114.784V99.904H112.684V99.148H114.784V96.352H115.696V102.604ZM125.911 98.56C125.911 99.268 125.419 99.832 124.531 100.168V101.656H126.979V102.412H117.511V101.656H119.923V100.156C119.059 99.82 118.591 99.256 118.591 98.56C118.591 97.36 119.947 96.58 122.239 96.58C124.543 96.58 125.911 97.36 125.911 98.56ZM125.983 104.932C125.983 106.132 124.567 106.78 122.263 106.78C119.959 106.78 118.555 106.132 118.555 104.932C118.555 103.732 119.959 103.072 122.251 103.072C124.567 103.072 125.983 103.732 125.983 104.932ZM125.023 98.56C125.023 97.78 123.919 97.312 122.239 97.312C120.559 97.312 119.479 97.78 119.479 98.56C119.479 99.316 120.559 99.784 122.239 99.784C123.919 99.784 125.023 99.316 125.023 98.56ZM122.251 103.864C120.583 103.864 119.467 104.236 119.467 104.932C119.467 105.616 120.583 105.988 122.251 105.988C123.955 105.988 125.059 105.616 125.059 104.932C125.059 104.236 123.943 103.864 122.251 103.864ZM122.239 100.516C121.723 100.516 121.255 100.48 120.835 100.408V101.656H123.619V100.42C123.199 100.48 122.755 100.516 122.239 100.516ZM127.654 106.72C128.71 105.532 129.586 103.816 129.586 101.92V101.62C129.586 99.772 128.71 97.936 127.654 96.736H128.47C129.586 97.864 130.534 99.508 130.534 101.632V101.824C130.534 103.96 129.586 105.592 128.47 106.72H127.654ZM3.26459 117.596C3.26459 118.292 2.70059 118.844 2.00459 118.844C1.32059 118.844 0.756594 118.292 0.756594 117.596C0.756594 116.912 1.32059 116.348 2.00459 116.348C2.70059 116.348 3.26459 116.912 3.26459 117.596ZM17.384 117.188L16.844 117.92C15.836 117.428 14.804 116.528 14.384 115.472C14.06 116.588 12.992 117.632 11.768 118.268L11.264 117.56C12.764 116.852 13.892 115.532 13.892 113.864V112.856H14.816V113.828C14.816 115.496 16.196 116.78 17.384 117.188ZM19.664 120.824C19.664 122.072 18.344 122.828 16.136 122.828C13.94 122.828 12.632 122.072 12.632 120.824C12.632 119.576 13.94 118.808 16.136 118.808C18.344 118.808 19.664 119.576 19.664 120.824ZM16.136 119.564C14.552 119.564 13.568 120.02 13.568 120.824C13.568 121.628 14.552 122.072 16.136 122.072C17.732 122.072 18.728 121.628 18.728 120.824C18.728 120.02 17.732 119.564 16.136 119.564ZM21.116 115.964H19.52V118.82H18.608V112.352H19.52V115.196H21.116V115.964ZM30.1428 122.696H22.9788V119.396H26.0988V118.208H21.8388V117.452H31.3068V118.208H27.0108V119.396H30.1428V122.696ZM29.2428 121.94V120.152H23.9028V121.94H29.2428ZM30.2508 116.54H22.8348V115.784H24.4308L24.1548 114.104L25.1028 113.996L25.2948 115.784H27.7908L28.0308 113.984L28.9788 114.08L28.6668 115.784H30.2508V116.54ZM30.3228 113.6H22.7628V112.844H30.3228V113.6ZM39.9256 112.352H40.8376V122.84H39.9256V112.352ZM38.2696 115.664C38.2696 117.152 37.0576 118.1 35.5456 118.1C33.9976 118.1 32.8096 117.068 32.8096 115.664C32.8096 114.188 34.0216 113.168 35.5456 113.168C37.0936 113.168 38.2696 114.128 38.2696 115.664ZM37.3816 115.664C37.3816 114.608 36.5656 113.948 35.5456 113.948C34.5376 113.948 33.6976 114.68 33.6976 115.664C33.6976 116.636 34.5256 117.332 35.5456 117.332C36.5416 117.332 37.3816 116.648 37.3816 115.664ZM39.3136 120.176C38.4136 120.284 36.9136 120.38 35.5816 120.44C34.3456 120.5 33.1936 120.536 32.4016 120.548L32.2336 119.744C33.1336 119.756 34.3696 119.732 35.6416 119.66C37.1056 119.612 38.4616 119.528 39.2296 119.432L39.3136 120.176ZM53.7848 115.232H47.8568V116.3H54.0368V117.044H46.9448V112.748H54.0128V113.504H47.8568V114.512H53.7848V115.232ZM46.7648 119.648H53.9888V122.912H53.0768V120.404H46.7648V119.648ZM55.2248 118.7H45.7688V117.944H55.2248V118.7ZM63.7956 115.52H61.5396V114.764H63.7956V112.352H64.7076V118.868H63.7956V115.52ZM64.8156 120.848C64.8156 122.072 63.5556 122.828 61.2996 122.828C59.0556 122.828 57.7956 122.072 57.7956 120.848C57.7956 119.624 59.0556 118.868 61.2996 118.868C63.5556 118.868 64.8156 119.624 64.8156 120.848ZM61.2996 119.612C59.6916 119.612 58.7196 120.068 58.7196 120.848C58.7196 121.64 59.6916 122.084 61.2996 122.084C62.9316 122.084 63.8916 121.64 63.8916 120.848C63.8916 120.068 62.9316 119.612 61.2996 119.612ZM62.1036 117.344L61.5636 118.052C60.5556 117.572 59.5116 116.66 59.1036 115.616C58.7796 116.696 57.7836 117.8 56.5716 118.412L56.0076 117.704C57.5196 117.008 58.6116 115.664 58.6116 113.996V112.952H59.5356V113.972C59.5356 115.652 60.9156 116.912 62.1036 117.344ZM68.9944 113.264C70.4464 113.264 71.2264 114.596 71.2984 116.504H72.4264V112.556H73.3144V122.336H72.4264V117.26H71.2984C71.2024 119.156 70.4344 120.44 68.9944 120.44C67.4704 120.44 66.6904 118.964 66.6904 116.852C66.6904 114.752 67.4704 113.264 68.9944 113.264ZM70.3984 116.852C70.3984 115.16 69.8464 114.068 68.9944 114.068C68.1544 114.068 67.6144 115.16 67.6144 116.852C67.6144 118.556 68.1544 119.636 68.9944 119.636C69.8464 119.636 70.3984 118.556 70.3984 116.852ZM75.3664 122.84H74.4664V112.352H75.3664V122.84ZM89.8256 117.284H88.3016V122.84H87.3896V112.352H88.3016V116.516H89.8256V117.284ZM83.2376 119.756C82.3616 119.948 81.5816 120.032 80.2976 120.032V113.456H82.9256V114.212H81.1976V119.252C81.8096 119.252 82.3856 119.192 83.1056 119.012L83.2376 119.756ZM86.8976 119.804C86.0216 120.008 84.9656 120.056 83.5736 120.056V113.456H86.3696V114.212H84.4736V119.276C85.2536 119.276 86.1416 119.216 86.7896 119.06L86.8976 119.804ZM98.4924 112.352V116.576H100.184V117.344H98.4924V122.84H97.5924V112.352H98.4924ZM96.6684 119.216L96.7884 119.948C95.6124 120.188 93.4284 120.344 91.7124 120.344H90.8244V116.288H94.7364V114.08H90.8004V113.324H95.6484V117.044H91.7364V119.576C93.4044 119.588 95.2644 119.48 96.6684 119.216ZM104.744 114.896V114.128H110.192V114.896H107.9C108.056 115.904 109.352 116.588 110.492 116.672L110.084 117.392C108.956 117.212 107.852 116.564 107.456 115.82C107.096 116.612 106.052 117.344 104.756 117.584L104.336 116.9C105.536 116.768 106.82 116.024 106.976 114.896H104.744ZM112.556 122.84H111.644V112.352H112.556V122.84ZM107.864 122.456H106.952V118.94C105.944 118.988 104.96 119 104.012 119.024L103.868 118.232C105.116 118.232 106.268 118.208 107.432 118.16C108.788 118.112 110.12 118.016 110.948 117.932L111.056 118.652C110.276 118.748 109.016 118.832 107.864 118.88V122.456ZM106.04 113.432V112.676H108.884V113.432H106.04ZM123.454 117.536L122.95 118.268C121.114 117.752 119.53 116.444 119.074 115.268C118.678 116.468 117.058 117.764 115.222 118.268L114.742 117.536C116.578 117.188 118.618 115.688 118.618 113.888V113.132H119.566V113.888C119.566 115.688 121.726 117.2 123.454 117.536ZM123.826 121.508H114.358V120.74H118.618V118.052H119.53V120.74H123.826V121.508ZM136.546 120.848C136.546 122.072 135.274 122.84 133.018 122.84C130.774 122.84 129.514 122.072 129.514 120.848C129.514 119.612 130.774 118.844 133.018 118.844C135.274 118.844 136.546 119.612 136.546 120.848ZM128.17 113.996V113.228H133.846V113.996H131.482C131.482 114.2 131.482 114.44 131.494 114.56C131.578 115.988 132.922 117.128 134.206 117.512L133.666 118.244C132.574 117.812 131.446 116.828 131.014 115.88C130.726 116.864 129.466 118.124 128.338 118.616L127.846 117.884C129.166 117.38 130.498 116.048 130.546 114.56C130.558 114.44 130.558 114.188 130.558 113.996H128.17ZM133.018 119.612C131.41 119.612 130.438 120.056 130.438 120.848C130.438 121.628 131.41 122.072 133.018 122.072C134.662 122.072 135.61 121.628 135.61 120.848C135.61 120.056 134.662 119.612 133.018 119.612ZM135.55 115.844H133.438V115.076H135.55V112.352H136.462V118.868H135.55V115.844ZM147.12 118.76H146.208V115.916H144.936V118.688H144.048V112.544H144.936V115.16H146.208V112.352H147.12V118.76ZM138.456 115.124V114.368H143.268V115.124H141.312C141.36 116.6 142.524 117.404 143.46 117.716L142.968 118.424C142.2 118.136 141.228 117.38 140.88 116.564C140.616 117.404 139.62 118.268 138.708 118.7L138.204 118.016C139.236 117.608 140.376 116.624 140.412 115.124H138.456ZM147.12 122.84H146.184V120.044H140.064V119.288H147.12V122.84ZM139.512 113.456V112.676H142.224V113.456H139.512ZM157.287 122.84H156.375V112.352H157.287V122.84ZM149.007 116.84C149.007 114.632 149.991 113.144 151.707 113.144C153.447 113.144 154.419 114.632 154.419 116.852C154.419 119.072 153.447 120.56 151.707 120.56C149.991 120.56 149.007 119.072 149.007 116.84ZM153.555 116.852C153.555 115.124 152.823 113.936 151.707 113.936C150.603 113.936 149.871 115.124 149.871 116.852C149.871 118.568 150.603 119.768 151.707 119.768C152.823 119.768 153.555 118.568 153.555 116.852ZM171.842 115.448H170.246V117.704H169.334V112.352H170.246V114.68H171.842V115.448ZM170.642 122.732H163.586V120.068H169.334V119H163.55V118.256H170.246V120.764H164.498V121.976H170.642V122.732ZM163.406 116.576H163.922C165.386 116.576 167.258 116.456 168.266 116.252L168.362 116.996C167.198 117.188 165.158 117.332 163.346 117.332H162.494V113.036H167.354V113.804H163.406V116.576ZM180.629 112.352V116.576H182.321V117.344H180.629V122.84H179.729V112.352H180.629ZM178.805 119.216L178.925 119.948C177.749 120.188 175.565 120.344 173.849 120.344H172.961V116.288H176.873V114.08H172.937V113.324H177.785V117.044H173.873V119.576C175.541 119.588 177.401 119.48 178.805 119.216ZM191.912 122.768H184.676V120.176H190.616V119.084H184.676V118.34H191.528V120.86H185.6V122.012H191.912V122.768ZM183.356 113.756V112.988H189.164V113.756H186.704L186.716 114.08C186.728 115.424 188.072 116.564 189.272 116.96L188.768 117.668C187.76 117.26 186.656 116.312 186.224 115.364C185.948 116.348 184.712 117.512 183.512 117.992L182.996 117.296C184.46 116.78 185.744 115.46 185.768 114.068V113.756H183.356ZM191.528 117.764H190.616V112.352H191.528V117.764ZM201.667 122.852H200.755V119.048H196.495V118.28H205.963V119.048H201.667V122.852ZM205.579 116.384L205.147 117.164C203.575 116.84 201.859 115.856 201.223 114.632C200.719 115.856 198.931 116.876 197.335 117.188L196.891 116.408C198.907 116.144 200.755 114.812 200.755 113.384V112.712H201.715V113.384C201.715 114.812 203.731 116.156 205.579 116.384ZM218.598 118.448H217.686V112.352H218.598V118.448ZM219.054 122.864H219.042C218.322 122.516 217.374 121.604 217.122 120.848C216.858 121.64 215.982 122.588 215.13 123.008L214.554 122.396C215.682 121.844 216.654 120.704 216.654 119.432V118.796H217.566V119.396C217.566 120.692 218.61 121.844 219.606 122.216L219.054 122.864ZM215.154 121.424L214.53 122.048C214.002 121.772 213.438 121.232 213.198 120.656C212.946 121.448 212.022 122.456 211.122 122.888L210.57 122.24C211.638 121.772 212.694 120.62 212.694 119.348V118.832H213.606V119.264C213.606 120.38 214.35 121.112 215.154 121.424ZM213.006 112.94C214.494 112.94 215.718 113.948 215.718 115.46C215.718 116.996 214.494 117.956 213.006 117.956C211.518 117.956 210.282 116.996 210.282 115.472C210.282 113.948 211.518 112.94 213.006 112.94ZM213.006 113.684C211.95 113.684 211.17 114.428 211.17 115.46C211.17 116.504 211.95 117.212 213.006 117.212C214.098 117.212 214.842 116.504 214.842 115.472C214.842 114.428 214.11 113.684 213.006 113.684ZM229.389 115.592L228.957 116.384C227.373 116.084 225.669 115.088 225.153 113.996C224.697 115.088 222.957 116.072 221.373 116.384L220.941 115.592C222.585 115.412 224.685 114.296 224.685 112.82V112.484H225.633V112.82C225.633 114.296 227.769 115.412 229.389 115.592ZM229.881 117.98H220.413V117.212H229.881V117.98ZM228.681 122.696H221.625V118.724H222.537V119.948H227.757V118.712H228.681V122.696ZM227.757 121.94V120.692H222.537V121.94H227.757ZM239.292 112.352V122.84H238.392V112.352H239.292ZM237.324 118.988L237.408 119.78C236.196 120.056 233.46 120.26 231.852 120.26H231.384V113.444H232.308V119.456C233.652 119.456 236.076 119.264 237.324 118.988ZM249.267 112.352V116.516H250.971V117.284H249.267V122.84H248.355V112.352H249.267ZM242.511 119.492H243.111C244.467 119.492 246.543 119.372 247.551 119.156L247.647 119.912C246.519 120.128 244.443 120.272 242.619 120.272H241.587V113.444H246.567V114.212H242.511V119.492ZM251.609 121.796V120.728H252.653V121.796H251.609ZM21.116 131.772H19.52V134.58H18.608V128.352H19.52V131.004H21.116V131.772ZM12.572 135.132H19.52V138.912H18.608V135.888H12.572V135.132ZM16.604 129.072C16.4 131.808 14.576 133.596 11.912 134.424L11.42 133.656C13.52 133.188 15.32 131.628 15.608 129.852H11.84V129.072H16.604ZM33.4632 136.86C33.4632 138.036 32.1552 138.744 29.7072 138.744C27.2592 138.744 25.9272 138.036 25.9272 136.86C25.9272 135.684 27.2592 134.964 29.7072 134.964C32.1552 134.964 33.4632 135.684 33.4632 136.86ZM32.5632 136.86C32.5632 136.14 31.4592 135.708 29.7072 135.708C27.9312 135.708 26.8392 136.14 26.8392 136.86C26.8392 137.592 27.9312 138.012 29.7072 138.012C31.4592 138.012 32.5632 137.592 32.5632 136.86ZM34.4592 134.112H24.9912V133.356H28.8912V131.136H29.8032V133.356H34.4592V134.112ZM33.3432 128.928V129.864C33.3432 130.74 33.2112 132.012 33.0432 132.66L32.1432 132.54C32.3112 131.964 32.3832 131.016 32.3952 130.536L32.4072 129.684H26.0352V128.928H33.3432ZM43.03 130.596H41.122V129.84H43.03V128.352H43.942V135.972H43.03V133.284H41.122V132.528H43.03V130.596ZM44.17 138.492H37.162V135.3H38.074V137.736H44.17V138.492ZM38.158 129.06C39.694 129.06 40.882 130.128 40.882 131.688C40.882 133.248 39.706 134.292 38.17 134.292C36.622 134.292 35.434 133.26 35.434 131.688C35.434 130.14 36.622 129.06 38.158 129.06ZM38.158 129.864C37.114 129.864 36.334 130.62 36.334 131.688C36.334 132.744 37.126 133.488 38.17 133.488C39.25 133.488 39.994 132.744 39.994 131.688C39.994 130.62 39.25 129.864 38.158 129.864ZM54.3848 138.84H53.4728V128.352H54.3848V138.84ZM46.1048 132.84C46.1048 130.632 47.0888 129.144 48.8048 129.144C50.5448 129.144 51.5168 130.632 51.5168 132.852C51.5168 135.072 50.5448 136.56 48.8048 136.56C47.0888 136.56 46.1048 135.072 46.1048 132.84ZM50.6528 132.852C50.6528 131.124 49.9208 129.936 48.8048 129.936C47.7008 129.936 46.9688 131.124 46.9688 132.852C46.9688 134.568 47.7008 135.768 48.8048 135.768C49.9208 135.768 50.6528 134.568 50.6528 132.852ZM67.7639 136.86C67.7639 138.036 66.4559 138.744 64.0079 138.744C61.5599 138.744 60.2279 138.036 60.2279 136.86C60.2279 135.684 61.5599 134.964 64.0079 134.964C66.4559 134.964 67.7639 135.684 67.7639 136.86ZM66.8639 136.86C66.8639 136.14 65.7599 135.708 64.0079 135.708C62.2319 135.708 61.1399 136.14 61.1399 136.86C61.1399 137.592 62.2319 138.012 64.0079 138.012C65.7599 138.012 66.8639 137.592 66.8639 136.86ZM68.7599 134.112H59.2919V133.356H63.1919V131.136H64.1039V133.356H68.7599V134.112ZM67.6439 128.928V129.864C67.6439 130.74 67.5119 132.012 67.3439 132.66L66.4439 132.54C66.6119 131.964 66.6839 131.016 66.6959 130.536L66.7079 129.684H60.3359V128.928H67.6439ZM76.1548 135.66L75.5908 136.344C74.6068 135.708 73.2748 134.388 72.9148 133.152C72.5668 134.46 71.4148 135.804 70.2028 136.584L69.6388 135.912C71.1748 135.012 72.4348 133.224 72.4348 131.244V130.164H69.9868V129.408H75.8307V130.164H73.3828V131.232C73.3828 133.188 74.7148 134.88 76.1548 135.66ZM77.3668 128.352H78.2788V138.84H77.3668V128.352ZM89.8256 133.548H88.1216V138.84H87.2096V128.352H88.1216V132.78H89.8256V133.548ZM84.6536 129.852H81.5696V129.072H84.6536V129.852ZM86.2016 131.628H80.0096V130.872H86.2016V131.628ZM85.5776 134.472C85.5776 135.684 84.5936 136.632 83.1296 136.632C81.6656 136.632 80.6816 135.696 80.6816 134.472C80.6816 133.248 81.6656 132.3 83.1296 132.3C84.5936 132.3 85.5776 133.236 85.5776 134.472ZM84.6656 134.472C84.6656 133.644 84.0176 133.068 83.1296 133.068C82.2536 133.068 81.5936 133.644 81.5936 134.472C81.5936 135.288 82.2536 135.876 83.1296 135.876C84.0296 135.876 84.6656 135.288 84.6656 134.472ZM99.9084 134.532H90.4404V133.764H99.9084V134.532ZM98.9004 138.612H91.6764V135.516H92.5884V137.856H98.9004V138.612ZM98.8524 132.456H91.7124V128.796H92.6244V131.7H98.8524V132.456ZM104.744 130.896V130.128H110.192V130.896H107.9C108.056 131.904 109.352 132.588 110.492 132.672L110.084 133.392C108.956 133.212 107.852 132.564 107.456 131.82C107.096 132.612 106.052 133.344 104.756 133.584L104.336 132.9C105.536 132.768 106.82 132.024 106.976 130.896H104.744ZM112.556 138.84H111.644V128.352H112.556V138.84ZM107.864 138.456H106.952V134.94C105.944 134.988 104.96 135 104.012 135.024L103.868 134.232C105.116 134.232 106.268 134.208 107.432 134.16C108.788 134.112 110.12 134.016 110.948 133.932L111.056 134.652C110.276 134.748 109.016 134.832 107.864 134.88V138.456ZM106.04 129.432V128.676H108.884V129.432H106.04ZM123.454 133.536L122.95 134.268C121.114 133.752 119.53 132.444 119.074 131.268C118.678 132.468 117.058 133.764 115.222 134.268L114.742 133.536C116.578 133.188 118.618 131.688 118.618 129.888V129.132H119.566V129.888C119.566 131.688 121.726 133.2 123.454 133.536ZM123.826 137.508H114.358V136.74H118.618V134.052H119.53V136.74H123.826V137.508ZM136.546 136.848C136.546 138.072 135.274 138.84 133.018 138.84C130.774 138.84 129.514 138.072 129.514 136.848C129.514 135.612 130.774 134.844 133.018 134.844C135.274 134.844 136.546 135.612 136.546 136.848ZM128.17 129.996V129.228H133.846V129.996H131.482C131.482 130.2 131.482 130.44 131.494 130.56C131.578 131.988 132.922 133.128 134.206 133.512L133.666 134.244C132.574 133.812 131.446 132.828 131.014 131.88C130.726 132.864 129.466 134.124 128.338 134.616L127.846 133.884C129.166 133.38 130.498 132.048 130.546 130.56C130.558 130.44 130.558 130.188 130.558 129.996H128.17ZM133.018 135.612C131.41 135.612 130.438 136.056 130.438 136.848C130.438 137.628 131.41 138.072 133.018 138.072C134.662 138.072 135.61 137.628 135.61 136.848C135.61 136.056 134.662 135.612 133.018 135.612ZM135.55 131.844H133.438V131.076H135.55V128.352H136.462V134.868H135.55V131.844ZM147.12 134.76H146.208V131.916H144.936V134.688H144.048V128.544H144.936V131.16H146.208V128.352H147.12V134.76ZM138.456 131.124V130.368H143.268V131.124H141.312C141.36 132.6 142.524 133.404 143.46 133.716L142.968 134.424C142.2 134.136 141.228 133.38 140.88 132.564C140.616 133.404 139.62 134.268 138.708 134.7L138.204 134.016C139.236 133.608 140.376 132.624 140.412 131.124H138.456ZM147.12 138.84H146.184V136.044H140.064V135.288H147.12V138.84ZM139.512 129.456V128.676H142.224V129.456H139.512ZM157.287 138.84H156.375V128.352H157.287V138.84ZM149.007 132.84C149.007 130.632 149.991 129.144 151.707 129.144C153.447 129.144 154.419 130.632 154.419 132.852C154.419 135.072 153.447 136.56 151.707 136.56C149.991 136.56 149.007 135.072 149.007 132.84ZM153.555 132.852C153.555 131.124 152.823 129.936 151.707 129.936C150.603 129.936 149.871 131.124 149.871 132.852C149.871 134.568 150.603 135.768 151.707 135.768C152.823 135.768 153.555 134.568 153.555 132.852ZM170.678 131.136C170.678 132.528 169.274 133.488 166.922 133.488C164.582 133.488 163.166 132.54 163.166 131.136C163.166 129.744 164.582 128.796 166.922 128.796C169.274 128.796 170.678 129.744 170.678 131.136ZM166.922 129.588C165.158 129.588 164.078 130.176 164.078 131.136C164.078 132.108 165.158 132.696 166.922 132.696C168.71 132.696 169.79 132.108 169.79 131.136C169.79 130.176 168.71 129.588 166.922 129.588ZM167.378 138.852H166.466V135.204H162.23V134.436H171.71V135.204H167.378V138.852ZM181.145 135.972H180.233V131.772H178.001V131.004H180.233V128.352H181.145V135.972ZM181.373 138.516H174.401V135.312H175.313V137.76H181.373V138.516ZM178.709 133.692L178.193 134.412C177.137 133.944 176.069 132.96 175.625 131.856C175.313 132.984 174.185 134.124 173.045 134.7L172.481 133.992C173.873 133.38 175.145 131.952 175.145 130.26V128.952H176.069V130.224C176.069 131.976 177.473 133.236 178.709 133.692ZM186.388 129.936V129.168H192.04V129.936H189.7C189.7 130.152 189.7 130.428 189.712 130.56C189.796 131.988 191.068 133.152 192.268 133.548L191.764 134.28C190.756 133.872 189.664 132.828 189.232 131.88C188.944 132.864 187.684 134.124 186.556 134.616L186.064 133.884C187.384 133.38 188.716 132.048 188.764 130.56C188.776 130.428 188.776 130.14 188.776 129.936H186.388ZM187.696 135.156H194.692V138.84H193.768V135.912H187.696V135.156ZM194.68 134.604H193.768V131.904H191.668V131.148H193.768V128.352H194.68V134.604ZM204.895 130.56C204.895 131.268 204.403 131.832 203.515 132.168V133.656H205.963V134.412H196.495V133.656H198.907V132.156C198.043 131.82 197.575 131.256 197.575 130.56C197.575 129.36 198.931 128.58 201.223 128.58C203.527 128.58 204.895 129.36 204.895 130.56ZM204.967 136.932C204.967 138.132 203.551 138.78 201.247 138.78C198.943 138.78 197.539 138.132 197.539 136.932C197.539 135.732 198.943 135.072 201.235 135.072C203.551 135.072 204.967 135.732 204.967 136.932ZM204.007 130.56C204.007 129.78 202.903 129.312 201.223 129.312C199.543 129.312 198.463 129.78 198.463 130.56C198.463 131.316 199.543 131.784 201.223 131.784C202.903 131.784 204.007 131.316 204.007 130.56ZM201.235 135.864C199.567 135.864 198.451 136.236 198.451 136.932C198.451 137.616 199.567 137.988 201.235 137.988C202.939 137.988 204.043 137.616 204.043 136.932C204.043 136.236 202.927 135.864 201.235 135.864ZM201.223 132.516C200.707 132.516 200.239 132.48 199.819 132.408V133.656H202.603V132.42C202.183 132.48 201.739 132.516 201.223 132.516ZM213.91 136.38C213.082 136.488 211.762 136.584 210.478 136.656C209.314 136.716 207.73 136.764 207.046 136.764L206.89 135.96C207.694 135.96 208.75 135.948 209.854 135.912V133.68H207.67V129.408H213.118V130.164H208.582V132.924H213.154V133.68H210.766V135.876C211.93 135.828 213.154 135.744 213.826 135.648L213.91 136.38ZM215.542 138.84H214.642V128.352H215.542V138.84ZM225.505 134.232H218.497V129.384H225.505V134.232ZM224.593 133.476V130.14H219.409V133.476H224.593ZM226.729 137.4H217.261V136.632H226.729V137.4ZM237.112 137.508H227.644V136.74H231.904V134.952H228.808V131.676H235.024V129.996H228.796V129.228H235.936V132.432H229.72V134.184H236.236V134.952H232.816V136.74H237.112V137.508ZM237.798 139.056L238.242 136.716H239.334L238.446 139.056H237.798ZM246.286 129.204C247.27 129.204 247.942 129.828 248.29 130.848H249.79V128.556H250.678V138.312H249.79V134.892H248.29C247.93 135.9 247.27 136.512 246.286 136.512C244.75 136.512 243.97 135.012 243.97 132.852C243.97 130.716 244.75 129.204 246.286 129.204ZM247.714 132.852C247.714 131.112 247.162 129.996 246.286 129.996C245.398 129.996 244.858 131.112 244.858 132.852C244.858 134.628 245.398 135.72 246.286 135.72C247.162 135.72 247.714 134.628 247.714 132.852ZM252.73 138.84H251.83V128.352H252.73V138.84ZM249.79 131.616H248.494C248.566 132 248.602 132.42 248.602 132.852C248.602 133.32 248.554 133.752 248.482 134.124H249.79V131.616ZM258.781 136.032H254.617V129.504H258.781V136.032ZM263.113 138.84H262.213V133.308H260.929V138.312H260.041V128.604H260.929V132.54H262.213V128.352H263.113V138.84ZM257.881 135.276V130.26H255.505V135.276H257.881ZM276.444 138.84H275.52V128.352H276.444V138.84ZM274.188 135.624L273.612 136.32C272.664 135.672 271.428 134.376 271.02 133.116C270.636 134.424 269.556 135.708 268.344 136.572L267.744 135.888C269.28 134.928 270.54 133.02 270.54 131.16V129.264H271.464V131.124C271.464 133.044 272.736 134.76 274.188 135.624ZM287.267 133.188L286.727 133.92C285.719 133.428 284.687 132.528 284.267 131.472C283.943 132.588 282.875 133.632 281.651 134.268L281.147 133.56C282.647 132.852 283.775 131.532 283.775 129.864V128.856H284.699V129.828C284.699 131.496 286.079 132.78 287.267 133.188ZM289.547 136.824C289.547 138.072 288.227 138.828 286.019 138.828C283.823 138.828 282.515 138.072 282.515 136.824C282.515 135.576 283.823 134.808 286.019 134.808C288.227 134.808 289.547 135.576 289.547 136.824ZM286.019 135.564C284.435 135.564 283.451 136.02 283.451 136.824C283.451 137.628 284.435 138.072 286.019 138.072C287.615 138.072 288.611 137.628 288.611 136.824C288.611 136.02 287.615 135.564 286.019 135.564ZM290.999 131.964H289.403V134.82H288.491V128.352H289.403V131.196H290.999V131.964ZM300.026 138.696H292.862V135.396H295.982V134.208H291.722V133.452H301.19V134.208H296.894V135.396H300.026V138.696ZM299.126 137.94V136.152H293.786V137.94H299.126ZM300.134 132.54H292.718V131.784H294.314L294.038 130.104L294.986 129.996L295.178 131.784H297.674L297.914 129.984L298.862 130.08L298.55 131.784H300.134V132.54ZM300.206 129.6H292.646V128.844H300.206V129.6ZM314.917 132.192H313.321V135.972H312.409V128.352H313.321V131.424H314.917V132.192ZM313.705 138.48H306.745V135.228H307.657V137.724H313.705V138.48ZM308.173 129.12C309.745 129.12 310.957 130.188 310.957 131.76C310.957 133.344 309.757 134.388 308.185 134.388C306.601 134.388 305.401 133.356 305.401 131.772C305.401 130.2 306.601 129.12 308.173 129.12ZM308.173 129.9C307.117 129.9 306.313 130.68 306.313 131.76C306.313 132.84 307.129 133.608 308.185 133.608C309.289 133.608 310.045 132.84 310.045 131.772C310.045 130.68 309.289 129.9 308.173 129.9ZM324.484 138.84H323.584V133.296H322.204V138.3H321.316V128.604H322.204V132.528H323.584V128.352H324.484V138.84ZM320.608 134.952L320.716 135.72C319.84 135.924 318.232 136.068 316.9 136.068H316.096V129.504H317.008V135.276C318.1 135.3 319.84 135.156 320.608 134.952ZM335.49 133.944H326.022V133.236H335.49V133.944ZM334.698 138.648H327.114V136.32H333.462V135.444H327.126V134.772H334.374V136.968H328.026V137.928H334.698V138.648ZM334.518 132.408H327.222V130.236H333.402V129.42H327.21V128.7H334.314V130.896H328.134V131.724H334.518V132.408ZM19.52 154.696H12.848V151.144H19.52V154.696ZM11.6 147.16V146.416H17.228V147.16H14.912C15.02 148.42 16.244 149.428 17.432 149.728L16.964 150.436C16.04 150.148 14.936 149.284 14.444 148.336C14.096 149.272 13.004 150.316 11.804 150.736L11.3 150.04C12.644 149.644 13.868 148.444 13.94 147.16H11.6ZM18.608 153.94V151.9H13.76V153.94H18.608ZM21.116 147.94H19.52V150.592H18.608V144.352H19.52V147.172H21.116V147.94ZM12.968 145.444V144.664H15.896V145.444H12.968ZM31.3068 153.328H21.8388V152.56H25.4508V148.768H26.3628V152.56H31.3068V153.328ZM30.0348 145.444V146.764C30.0228 148.36 29.9268 149.992 29.6148 151.324L28.7148 151.18C28.9548 150.196 29.0868 148.612 29.0868 147.232V146.212H22.8108V145.444H30.0348ZM41.9896 149.548H40.2856V154.84H39.3736V144.352H40.2856V148.78H41.9896V149.548ZM36.8176 145.852H33.7336V145.072H36.8176V145.852ZM38.3656 147.628H32.1736V146.872H38.3656V147.628ZM37.7416 150.472C37.7416 151.684 36.7576 152.632 35.2936 152.632C33.8296 152.632 32.8456 151.696 32.8456 150.472C32.8456 149.248 33.8296 148.3 35.2936 148.3C36.7576 148.3 37.7416 149.236 37.7416 150.472ZM36.8296 150.472C36.8296 149.644 36.1816 149.068 35.2936 149.068C34.4176 149.068 33.7576 149.644 33.7576 150.472C33.7576 151.288 34.4176 151.876 35.2936 151.876C36.1936 151.876 36.8296 151.288 36.8296 150.472ZM51.2444 154.84H50.3204V144.352H51.2444V154.84ZM48.9884 151.624L48.4124 152.32C47.4644 151.672 46.2284 150.376 45.8204 149.116C45.4364 150.424 44.3564 151.708 43.1444 152.572L42.5444 151.888C44.0804 150.928 45.3404 149.02 45.3404 147.16V145.264H46.2644V147.124C46.2644 149.044 47.5364 150.76 48.9884 151.624ZM61.5553 154.84H60.6433V144.352H61.5553V154.84ZM58.4713 145.468C58.4233 148.876 56.3353 151.48 53.6233 152.764L53.0953 152.044C55.7473 150.88 57.3073 148.6 57.4993 146.236H53.4793V145.468H58.4713ZM76.2904 149.296H74.5864V154.84H73.6744V144.352H74.5864V148.516H76.2904V149.296ZM71.8024 152.236H66.8704V145.24H67.7824V147.904H70.8784V145.24H71.8024V152.236ZM70.8784 151.468V148.66H67.7824V151.468H70.8784ZM86.5532 147.7H84.9572V150.124H84.0572V144.352H84.9572V146.932H86.5532V147.7ZM84.9572 154.696H78.3812V150.712H79.2932V151.948H84.0572V150.688H84.9572V154.696ZM84.0572 153.94V152.692H79.2932V153.94H84.0572ZM82.9532 148.804L83.0492 149.548C81.9692 149.74 79.7732 149.896 78.3092 149.896H77.3132V146.92H80.9852V145.612H77.2892V144.856H81.8972V147.664H78.2372V149.128H78.3692C79.5812 149.128 81.7292 149.044 82.9532 148.804ZM95.784 144.352V154.84H94.884V144.352H95.784ZM93.816 150.988L93.9 151.78C92.688 152.056 89.952 152.26 88.344 152.26H87.876V145.444H88.8V151.456C90.144 151.456 92.568 151.264 93.816 150.988ZM105.759 144.352V148.516H107.463V149.284H105.759V154.84H104.847V144.352H105.759ZM99.0028 151.492H99.6028C100.959 151.492 103.035 151.372 104.043 151.156L104.139 151.912C103.011 152.128 100.935 152.272 99.1108 152.272H98.0788V145.444H103.059V146.212H99.0028V151.492ZM108.102 153.796V152.728H109.146V153.796H108.102Z" fill="#555555"/>
</svg>
