<svg width="12" height="12" viewBox="0 0 12 12" fill="none" xmlns="http://www.w3.org/2000/svg">
<path fill-rule="evenodd" clip-rule="evenodd" d="M5.4531 10.7635C5.7861 10.9835 6.2156 10.9835 6.5481 10.7635C7.6056 10.0655 9.9081 8.397 10.9001 6.53C12.2076 4.067 10.6721 1.6105 8.6421 1.6105C7.4851 1.6105 6.7891 2.215 6.4041 2.7345C6.35786 2.79813 6.29721 2.84991 6.22713 2.88562C6.15704 2.92132 6.0795 2.93993 6.00085 2.93993C5.92219 2.93993 5.84465 2.92132 5.77457 2.88562C5.70448 2.84991 5.64384 2.79813 5.5976 2.7345C5.2126 2.215 4.5166 1.6105 3.3596 1.6105C1.3296 1.6105 -0.205901 4.067 1.1021 6.53C2.0931 8.397 4.3966 10.0655 5.4531 10.7635Z" fill="#ED334B"/>
</svg>
