<svg width="32" height="20" viewBox="0 0 32 20" fill="none" xmlns="http://www.w3.org/2000/svg">
<rect x="0.25" y="0.25" width="31.5" height="19.5" rx="2.75" stroke="white" stroke-width="0.5"/>
<path d="M15.372 8.731H13.942V12.152H12.809V5.068H13.942V7.785H15.372V8.731ZM14.228 14.561H7.738V11.481H8.86V13.648H14.228V14.561ZM11.764 9.226L11.94 10.106C10.928 10.326 9.454 10.447 7.694 10.447H6.671V5.904H11.016V6.806H7.793V9.534C9.256 9.534 10.708 9.457 11.764 9.226ZM23.6466 8.72H20.8196V9.809H24.7026V10.722H15.8476V9.809H19.6976V8.72H17.0136V5.321H23.5696V6.234H18.1466V7.818H23.6466V8.72ZM16.8816 11.58H23.5476V14.902H22.4256V12.493H16.8816V11.58Z" fill="white"/>
</svg>
