<svg width="343" height="109" viewBox="0 0 343 109" fill="none" xmlns="http://www.w3.org/2000/svg">
<path d="M3.26459 5.596C3.26459 6.292 2.70059 6.844 2.00459 6.844C1.32059 6.844 0.756594 6.292 0.756594 5.596C0.756594 4.912 1.32059 4.348 2.00459 4.348C2.70059 4.348 3.26459 4.912 3.26459 5.596ZM15.1843 9.496V1.444H16.6003L18.9283 8.248H18.9523L21.2683 1.444H22.6723V9.496H21.7123V2.692H21.6763L19.3243 9.496H18.4363L16.1083 2.692H16.0723V9.496H15.1843ZM26.5711 9.496V6.328L23.9191 1.444H24.9271L27.0751 5.44H27.0991L29.2351 1.444H30.1471L27.5071 6.328V9.496H26.5711ZM37.3431 7.18L37.4391 7.936C36.2991 8.152 33.9951 8.308 32.3271 8.308H31.4151V1.348H36.2991V2.104H32.3391V4.3H36.1071V5.044H32.3391V7.516C33.9831 7.564 36.2991 7.396 37.3431 7.18ZM39.4311 10.84H38.5191V0.352H39.4311V10.84ZM45.7699 1.252C45.7459 3.88 44.5819 5.836 41.9419 6.988L41.3419 6.292C42.7939 5.764 43.7419 4.912 44.2699 3.904L41.4979 4.228L41.3059 3.412L44.5819 3.172C44.7019 2.8 44.7739 2.416 44.7979 2.02H41.8219V1.252H45.7699ZM50.5459 10.216L50.0419 10.972C48.7939 10.72 47.0539 9.616 46.5379 8.464C46.1179 9.58 44.3659 10.636 42.9019 10.948L42.4219 10.204C44.1259 9.964 46.0939 8.728 46.0939 7.228V6.844H47.0539V7.228C47.0539 8.74 48.9979 9.988 50.5459 10.216ZM47.2339 4.096H45.6859V3.34H47.2339V0.543999H48.1099V6.46H47.2339V4.096ZM50.0539 7.312H49.1419V0.352H50.0539V7.312ZM57.0167 5.896L52.1207 8.656V7.756L56.0567 5.584L52.1207 3.304V2.368L57.0167 5.236V5.896ZM60.9068 1.204C61.8908 1.204 62.5628 1.828 62.9108 2.848H64.4108V0.555999H65.2988V10.312H64.4108V6.892H62.9108C62.5508 7.9 61.8908 8.512 60.9068 8.512C59.3708 8.512 58.5908 7.012 58.5908 4.852C58.5908 2.716 59.3708 1.204 60.9068 1.204ZM62.3348 4.852C62.3348 3.112 61.7828 1.996 60.9068 1.996C60.0188 1.996 59.4788 3.112 59.4788 4.852C59.4788 6.628 60.0188 7.72 60.9068 7.72C61.7828 7.72 62.3348 6.628 62.3348 4.852ZM67.3508 10.84H66.4508V0.352H67.3508V10.84ZM64.4108 3.616H63.1148C63.1868 4 63.2228 4.42 63.2228 4.852C63.2228 5.32 63.1748 5.752 63.1028 6.124H64.4108V3.616ZM73.4016 8.032H69.2376V1.504H73.4016V8.032ZM77.7336 10.84H76.8336V5.308H75.5496V10.312H74.6616V0.603999H75.5496V4.54H76.8336V0.352H77.7336V10.84ZM72.5016 7.276V2.26H70.1256V7.276H72.5016ZM85.8484 6.832C85.0924 6.916 83.8324 7.048 82.5964 7.108C81.4084 7.18 79.9684 7.24 79.2364 7.24L79.0924 6.484C79.8484 6.484 80.9164 6.46 81.9844 6.412V5.704C80.8804 5.596 80.0404 5.176 80.0404 4.324C80.0404 3.352 81.1324 2.908 82.4644 2.908C83.7964 2.908 84.9124 3.34 84.9124 4.312C84.9124 5.164 84.0364 5.608 82.9084 5.704V6.364C84.0124 6.316 85.1524 6.22 85.7644 6.124L85.8484 6.832ZM88.9444 4.6H87.3604V7.324H86.4364V0.352H87.3604V3.832H88.9444V4.6ZM80.4844 7.876H87.3604V10.912H86.4364V8.632H80.4844V7.876ZM85.4884 2.56H79.4644V1.816H85.4884V2.56ZM84.0364 4.312C84.0364 3.832 83.3404 3.592 82.4644 3.592C81.5644 3.592 80.9044 3.832 80.9044 4.312C80.9044 4.816 81.5764 5.044 82.4644 5.044C83.3404 5.044 84.0364 4.804 84.0364 4.312ZM83.9164 1.24H81.0364V0.483999H83.9164V1.24ZM98.2232 8.008H97.3112V0.352H98.2232V8.008ZM98.4872 10.492H91.3832V7.252H92.2952V9.736H98.4872V10.492ZM92.7032 1.048C94.2992 1.048 95.5352 2.104 95.5352 3.664C95.5352 5.224 94.3112 6.268 92.7152 6.268C91.1192 6.268 89.8832 5.236 89.8832 3.676C89.8832 2.116 91.1192 1.048 92.7032 1.048ZM92.7032 1.84C91.5992 1.84 90.7592 2.596 90.7592 3.664C90.7592 4.72 91.6112 5.464 92.7152 5.464C93.8672 5.464 94.6712 4.72 94.6712 3.676C94.6712 2.596 93.8672 1.84 92.7032 1.84ZM99.69 10.72L102.51 0.736H103.338L100.518 10.72H99.69ZM104.861 2.896V2.128H110.309V2.896H108.017C108.173 3.904 109.469 4.588 110.609 4.672L110.201 5.392C109.073 5.212 107.969 4.564 107.573 3.82C107.213 4.612 106.169 5.344 104.873 5.584L104.453 4.9C105.653 4.768 106.937 4.024 107.093 2.896H104.861ZM112.673 10.84H111.761V0.352H112.673V10.84ZM107.981 10.456H107.069V6.94C106.061 6.988 105.077 7 104.129 7.024L103.985 6.232C105.233 6.232 106.385 6.208 107.549 6.16C108.905 6.112 110.237 6.016 111.065 5.932L111.173 6.652C110.393 6.748 109.133 6.832 107.981 6.88V10.456ZM106.157 1.432V0.676H109.001V1.432H106.157ZM123.572 5.536L123.068 6.268C121.232 5.752 119.648 4.444 119.192 3.268C118.796 4.468 117.176 5.764 115.34 6.268L114.86 5.536C116.696 5.188 118.736 3.688 118.736 1.888V1.132H119.684V1.888C119.684 3.688 121.844 5.2 123.572 5.536ZM123.944 9.508H114.476V8.74H118.736V6.052H119.648V8.74H123.944V9.508ZM130.483 1.264C131.935 1.264 132.715 2.596 132.787 4.504H133.915V0.555999H134.803V10.336H133.915V5.26H132.787C132.691 7.156 131.923 8.44 130.483 8.44C128.959 8.44 128.179 6.964 128.179 4.852C128.179 2.752 128.959 1.264 130.483 1.264ZM131.887 4.852C131.887 3.16 131.335 2.068 130.483 2.068C129.643 2.068 129.103 3.16 129.103 4.852C129.103 6.556 129.643 7.636 130.483 7.636C131.335 7.636 131.887 6.556 131.887 4.852ZM136.855 10.84H135.955V0.352H136.855V10.84ZM146.998 10.84H146.086V4.864H143.638V4.096H146.086V0.352H146.998V10.84ZM144.67 7.636L144.105 8.332C143.146 7.684 141.934 6.352 141.514 5.092C141.142 6.4 140.11 7.696 138.898 8.572L138.298 7.888C139.822 6.928 141.034 5.068 141.034 3.208V1.264H141.982V3.172C141.982 5.092 143.23 6.796 144.67 7.636ZM152.337 1.9V1.132H158.109V1.9H155.649C155.649 2.092 155.649 2.32 155.661 2.452C155.733 3.796 157.017 4.948 158.205 5.344L157.701 6.076C156.693 5.668 155.601 4.72 155.169 3.772C154.893 4.756 153.669 5.92 152.541 6.4L152.013 5.692C153.333 5.188 154.653 3.832 154.713 2.44C154.725 2.32 154.725 2.08 154.725 1.9H152.337ZM153.489 7.132H160.497V10.84H159.585V7.888H153.489V7.132ZM160.497 6.58H159.585V0.364H160.497V6.58ZM170.891 10.708H164.147V6.544H165.059V7.876H169.979V6.508H170.891V10.708ZM162.635 1.804V1.036H168.299V1.804H165.899C165.899 1.984 165.899 2.188 165.911 2.344C165.995 3.688 167.279 4.864 168.479 5.26L167.987 5.992C166.991 5.584 165.863 4.612 165.431 3.664C165.143 4.636 163.895 5.8 162.767 6.292L162.251 5.572C163.571 5.068 164.915 3.712 164.963 2.332C164.975 2.176 164.975 1.972 164.975 1.804H162.635ZM170.879 5.956H169.967V3.652H167.963V2.896H169.967V0.352H170.879V5.956ZM169.979 9.952V8.608H165.059V9.952H169.979ZM176.615 2.896V2.128H182.063V2.896H179.771C179.927 3.904 181.223 4.588 182.363 4.672L181.955 5.392C180.827 5.212 179.723 4.564 179.327 3.82C178.967 4.612 177.923 5.344 176.627 5.584L176.207 4.9C177.407 4.768 178.691 4.024 178.847 2.896H176.615ZM184.427 10.84H183.515V0.352H184.427V10.84ZM179.735 10.456H178.823V6.94C177.815 6.988 176.831 7 175.883 7.024L175.739 6.232C176.987 6.232 178.139 6.208 179.303 6.16C180.659 6.112 181.991 6.016 182.819 5.932L182.927 6.652C182.147 6.748 180.887 6.832 179.735 6.88V10.456ZM177.911 1.432V0.676H180.755V1.432H177.911ZM195.325 5.536L194.821 6.268C192.985 5.752 191.401 4.444 190.945 3.268C190.549 4.468 188.929 5.764 187.093 6.268L186.613 5.536C188.449 5.188 190.489 3.688 190.489 1.888V1.132H191.437V1.888C191.437 3.688 193.597 5.2 195.325 5.536ZM195.697 9.508H186.229V8.74H190.489V6.052H191.401V8.74H195.697V9.508ZM209.233 9.508H199.765V8.74H204.025V6.688H204.937V8.74H209.233V9.508ZM208.441 6.1H204.601V1.324H208.429V2.116H205.513V5.344H208.441V6.1ZM204.169 5.884C203.233 6.1 201.745 6.184 200.521 6.184V1.348H203.965V2.128H201.433V5.38C202.153 5.38 203.401 5.284 204.073 5.104L204.169 5.884ZM219.615 6.532H210.147V5.764H219.615V6.532ZM218.607 10.612H211.383V7.516H212.295V9.856H218.607V10.612ZM218.559 4.456H211.419V0.796H212.331V3.7H218.559V4.456ZM233.151 9.328H223.683V8.56H227.295V4.768H228.207V8.56H233.151V9.328ZM231.879 1.444V2.764C231.867 4.36 231.771 5.992 231.459 7.324L230.559 7.18C230.799 6.196 230.931 4.612 230.931 3.232V2.212H224.655V1.444H231.879ZM242.909 6.544H241.997V3.856H240.677V6.448H239.801V0.543999H240.677V3.1H241.997V0.352H242.909V6.544ZM238.601 1.144C238.553 3.7 237.149 5.476 234.737 6.64L234.137 5.944C236.237 5.104 237.461 3.544 237.629 1.9H234.545V1.144H238.601ZM242.909 10.84H241.985V7.828H235.925V7.084H242.909V10.84ZM253.688 10.492H246.404V7.18H247.316V9.736H253.688V10.492ZM249.728 5.644L249.212 6.316C248.36 5.884 247.472 4.948 247.136 4.06C246.884 4.972 246.056 6.028 245 6.64L244.436 5.968C245.72 5.32 246.668 3.988 246.668 2.476V1.192H247.568V2.464C247.568 3.988 248.684 5.116 249.728 5.644ZM251.3 7.816H250.424V3.868H248.852V3.112H250.424V0.543999H251.3V7.816ZM253.292 8.176H252.38V0.352H253.292V8.176ZM256.103 7.624H256.331C258.059 7.624 259.883 7.492 260.927 7.264L261.035 8.032C259.883 8.248 258.119 8.404 256.271 8.404H255.191V1.3H260.159V2.056H256.103V4.228H259.739V4.972H256.103V7.624ZM263.411 10.84H262.499V5.152H260.423V4.372H262.499V0.352H263.411V10.84ZM267.518 10.72C266.414 9.592 265.442 7.948 265.442 5.824V5.632C265.442 3.496 266.414 1.864 267.518 0.736H268.346C267.278 1.924 266.414 3.64 266.414 5.548V5.836C266.414 7.684 267.278 9.52 268.346 10.72H267.518ZM270.714 9.544V2.404L269.226 2.752V2.2L271.122 1.312H271.626V9.544H270.714ZM275.471 9.64C274.535 9.64 273.695 9.376 273.215 9.028L273.395 8.26C273.839 8.56 274.631 8.836 275.291 8.836C276.563 8.836 277.307 8.116 277.307 6.976C277.307 5.752 276.587 5.26 275.327 5.26C274.775 5.26 274.019 5.488 273.647 5.656L273.935 1.432H278.015V2.248H274.703L274.535 4.696C274.859 4.612 275.351 4.528 275.687 4.528C277.307 4.528 278.303 5.296 278.303 6.988C278.303 8.428 277.247 9.64 275.471 9.64ZM282.996 9.688V7.804H279.192V7.084L283.128 1.336H283.872V7.024H285.216V7.804H283.872V9.688H282.996ZM280.212 7.024H282.996V2.848L280.212 7.024ZM289.863 9.688V7.804H286.059V7.084L289.995 1.336H290.739V7.024H292.083V7.804H290.739V9.688H289.863ZM287.079 7.024H289.863V2.848L287.079 7.024ZM292.991 5.992V5.2H296.951V5.992H292.991ZM300.991 9.64C299.191 9.64 298.231 8.32 298.231 6.028V5.404C298.231 2.56 299.491 1.312 301.351 1.312C302.155 1.312 302.899 1.588 303.235 1.792L302.959 2.488C302.671 2.32 301.963 2.116 301.447 2.116C300.079 2.116 299.311 2.812 299.191 5.32C299.623 4.876 300.283 4.456 301.183 4.456C302.527 4.456 303.607 5.38 303.607 6.916C303.607 8.452 302.623 9.64 300.991 9.64ZM300.979 8.848C302.023 8.848 302.647 8.164 302.647 7.012C302.647 5.752 301.963 5.26 300.991 5.26C300.223 5.26 299.527 5.8 299.191 6.28V6.364C299.191 7.864 299.695 8.848 300.979 8.848ZM306.987 9.616C306.051 9.616 305.247 9.352 304.803 9.04L305.007 8.284C305.463 8.584 306.267 8.812 306.867 8.812C308.199 8.812 308.943 8.224 308.943 7.228C308.943 6.196 308.151 5.704 306.927 5.704H306.147V4.888H306.867C307.911 4.888 308.619 4.36 308.619 3.46C308.619 2.476 307.983 2.128 306.999 2.128C306.339 2.128 305.715 2.416 305.211 2.704L305.067 1.936C305.547 1.612 306.495 1.312 307.191 1.312C308.631 1.312 309.615 2.044 309.615 3.304C309.615 4.3 308.991 4.888 308.079 5.188C309.123 5.392 309.915 5.98 309.915 7.228C309.915 8.632 308.775 9.616 306.987 9.616ZM313.688 1.312C315.488 1.312 316.484 2.548 316.484 4.828V5.356C316.484 8.164 315.356 9.64 313.412 9.64C312.584 9.64 311.828 9.388 311.456 9.136L311.72 8.44C312.068 8.644 312.716 8.836 313.364 8.836C314.684 8.836 315.44 7.996 315.524 5.74C315.092 6.232 314.432 6.628 313.544 6.628C312.188 6.628 311.084 5.644 311.084 4.108C311.084 2.596 312.056 1.312 313.688 1.312ZM313.7 2.104C312.656 2.104 312.032 2.908 312.032 4.024C312.032 5.284 312.764 5.824 313.736 5.824C314.504 5.824 315.188 5.284 315.524 4.816V4.588C315.524 3.088 314.984 2.104 313.7 2.104ZM320.227 1.312C322.027 1.312 323.023 2.548 323.023 4.828V5.356C323.023 8.164 321.895 9.64 319.951 9.64C319.123 9.64 318.367 9.388 317.995 9.136L318.259 8.44C318.607 8.644 319.255 8.836 319.903 8.836C321.223 8.836 321.979 7.996 322.063 5.74C321.631 6.232 320.971 6.628 320.083 6.628C318.727 6.628 317.623 5.644 317.623 4.108C317.623 2.596 318.595 1.312 320.227 1.312ZM320.239 2.104C319.195 2.104 318.571 2.908 318.571 4.024C318.571 5.284 319.303 5.824 320.275 5.824C321.043 5.824 321.727 5.284 322.063 4.816V4.588C322.063 3.088 321.523 2.104 320.239 2.104ZM323.907 10.72C324.963 9.532 325.839 7.816 325.839 5.92V5.62C325.839 3.772 324.963 1.936 323.907 0.736H324.723C325.839 1.864 326.787 3.508 326.787 5.632V5.824C326.787 7.96 325.839 9.592 324.723 10.72H323.907ZM337.424 5.944H327.956V5.236H337.424V5.944ZM336.632 10.648H329.048V8.32H335.396V7.444H329.06V6.772H336.308V8.968H329.96V9.928H336.632V10.648ZM336.452 4.408H329.156V2.236H335.336V1.42H329.144V0.7H336.248V2.896H330.068V3.724H336.452V4.408ZM19.808 18.936H16.64V19.932H20.924V20.688H11.456V19.932H15.728V18.936H12.596V14.784H19.736V15.516H13.508V16.488H19.556V17.184H13.508V18.216H19.808V18.936ZM19.868 23.1C19.868 24.228 18.584 24.864 16.184 24.864C13.796 24.864 12.524 24.204 12.524 23.1C12.524 22.008 13.796 21.324 16.184 21.324C18.584 21.324 19.868 21.948 19.868 23.1ZM16.184 22.056C14.492 22.056 13.448 22.452 13.448 23.1C13.448 23.748 14.492 24.12 16.184 24.12C17.888 24.12 18.944 23.748 18.944 23.1C18.944 22.452 17.888 22.056 16.184 22.056ZM30.6828 24.84H29.7828V19.404H28.5228V24.312H27.6348V14.604H28.5228V18.636H29.7828V14.352H30.6828V24.84ZM26.8428 20.364C26.8428 21.624 25.9068 22.452 24.5508 22.452C23.2068 22.452 22.2588 21.564 22.2588 20.364C22.2588 19.092 23.2068 18.264 24.5508 18.264C25.9068 18.264 26.8428 19.104 26.8428 20.364ZM25.9668 20.364C25.9668 19.56 25.3788 19.032 24.5508 19.032C23.7228 19.032 23.1468 19.56 23.1468 20.364C23.1468 21.18 23.7228 21.696 24.5508 21.696C25.3788 21.696 25.9668 21.156 25.9668 20.364ZM27.0348 17.664H21.8148V16.908H27.0348V17.664ZM25.9068 15.948H23.0388V15.156H25.9068V15.948ZM36.142 16.896V16.128H41.59V16.896H39.298C39.454 17.904 40.75 18.588 41.89 18.672L41.482 19.392C40.354 19.212 39.25 18.564 38.854 17.82C38.494 18.612 37.45 19.344 36.154 19.584L35.734 18.9C36.934 18.768 38.218 18.024 38.374 16.896H36.142ZM43.954 24.84H43.042V14.352H43.954V24.84ZM39.262 24.456H38.35V20.94C37.342 20.988 36.358 21 35.41 21.024L35.266 20.232C36.514 20.232 37.666 20.208 38.83 20.16C40.186 20.112 41.518 20.016 42.346 19.932L42.454 20.652C41.674 20.748 40.414 20.832 39.262 20.88V24.456ZM37.438 15.432V14.676H40.282V15.432H37.438ZM54.8528 19.536L54.3488 20.268C52.5128 19.752 50.9288 18.444 50.4728 17.268C50.0768 18.468 48.4568 19.764 46.6208 20.268L46.1408 19.536C47.9768 19.188 50.0168 17.688 50.0168 15.888V15.132H50.9648V15.888C50.9648 17.688 53.1248 19.2 54.8528 19.536ZM55.2248 23.508H45.7568V22.74H50.0168V20.052H50.9288V22.74H55.2248V23.508ZM67.3559 14.352V18.72H69.0719V19.5H67.3559V24.84H66.4439V14.352H67.3559ZM64.6319 15.48C64.5719 18.888 62.6039 21.348 59.9039 22.752L59.3399 22.032C61.9559 20.82 63.4559 18.612 63.6479 16.248H59.6999V15.48H64.6319ZM79.1428 20.004H69.6748V19.248H79.1428V20.004ZM78.0508 18.108H70.9948V14.628H71.9068V17.352H78.0508V18.108ZM78.1108 22.824C78.1108 24.084 76.7068 24.78 74.4268 24.78C72.1348 24.78 70.7548 24.084 70.7548 22.824C70.7548 21.576 72.1348 20.88 74.4148 20.88C76.7068 20.88 78.1108 21.576 78.1108 22.824ZM74.4148 21.624C72.7708 21.624 71.6788 22.008 71.6788 22.824C71.6788 23.64 72.7708 24.024 74.4148 24.024C76.0828 24.024 77.1868 23.64 77.1868 22.824C77.1868 22.008 76.0828 21.624 74.4148 21.624ZM89.7176 18.084H88.1216V20.436H87.2096V14.352H88.1216V17.316H89.7176V18.084ZM88.1216 24.768H81.5216V20.952H82.4336V22.068H87.2096V20.94H88.1216V24.768ZM87.2096 24V22.824H82.4336V24H87.2096ZM84.5816 15.264H81.5576V14.496H84.5816V15.264ZM86.1176 16.74H80.0096V15.996H86.1176V16.74ZM85.5056 18.864C85.5056 19.896 84.4856 20.556 83.0696 20.556C81.6416 20.556 80.6336 19.896 80.6336 18.864C80.6336 17.808 81.6176 17.16 83.0696 17.16C84.4856 17.16 85.5056 17.808 85.5056 18.864ZM84.5816 18.864C84.5816 18.252 83.8856 17.892 83.0696 17.892C82.2536 17.892 81.5336 18.252 81.5336 18.864C81.5336 19.464 82.2656 19.836 83.0696 19.836C83.8856 19.836 84.5816 19.464 84.5816 18.864ZM98.9364 14.352V24.84H98.0364V14.352H98.9364ZM96.9684 20.988L97.0524 21.78C95.8404 22.056 93.1044 22.26 91.4964 22.26H91.0284V15.444H91.9524V21.456C93.2964 21.456 95.7204 21.264 96.9684 20.988ZM108.911 14.352V18.516H110.615V19.284H108.911V24.84H107.999V14.352H108.911ZM102.155 21.492H102.755C104.111 21.492 106.187 21.372 107.195 21.156L107.291 21.912C106.163 22.128 104.087 22.272 102.263 22.272H101.231V15.444H106.211V16.212H102.155V21.492ZM111.254 23.796V22.728H112.298V23.796H111.254ZM3.26459 33.596C3.26459 34.292 2.70059 34.844 2.00459 34.844C1.32059 34.844 0.756594 34.292 0.756594 33.596C0.756594 32.912 1.32059 32.348 2.00459 32.348C2.70059 32.348 3.26459 32.912 3.26459 33.596ZM21.1243 35.18L21.2203 35.936C20.0803 36.152 17.7763 36.308 16.1083 36.308H15.1963V29.348H20.0803V30.104H16.1203V32.3H19.8883V33.044H16.1203V35.516C17.7643 35.564 20.0803 35.396 21.1243 35.18ZM23.2123 38.84H22.3003V28.352H23.2123V38.84ZM29.5512 29.252C29.5272 31.88 28.3632 33.836 25.7232 34.988L25.1232 34.292C26.5752 33.764 27.5232 32.912 28.0512 31.904L25.2792 32.228L25.0872 31.412L28.3632 31.172C28.4832 30.8 28.5552 30.416 28.5792 30.02H25.6032V29.252H29.5512ZM34.3272 38.216L33.8232 38.972C32.5752 38.72 30.8352 37.616 30.3192 36.464C29.8992 37.58 28.1472 38.636 26.6832 38.948L26.2032 38.204C27.9072 37.964 29.8752 36.728 29.8752 35.228V34.844H30.8352V35.228C30.8352 36.74 32.7792 37.988 34.3272 38.216ZM31.0152 32.096H29.4672V31.34H31.0152V28.544H31.8912V34.46H31.0152V32.096ZM33.8352 35.312H32.9232V28.352H33.8352V35.312ZM43.0623 36.212H38.8743V29.396H39.7743V31.964H42.1623V29.396H43.0623V36.212ZM47.3703 38.84H46.4703V33.428H45.1863V38.312H44.2983V28.604H45.1863V32.66H46.4703V28.352H47.3703V38.84ZM42.1623 35.444V32.72H39.7743V35.444H42.1623ZM57.2491 36.992C57.2491 38.192 55.9411 38.864 53.6371 38.864C51.3451 38.864 50.0491 38.168 50.0491 36.992C50.0491 35.828 51.3451 35.108 53.6371 35.108C55.9411 35.108 57.2491 35.78 57.2491 36.992ZM53.6371 35.864C51.9931 35.864 50.9851 36.284 50.9851 36.992C50.9851 37.7 51.9931 38.108 53.6371 38.108C55.3051 38.108 56.3131 37.7 56.3131 36.992C56.3131 36.284 55.3051 35.864 53.6371 35.864ZM58.3771 34.244H48.9091V33.476H53.1811V31.868H54.0931V33.476H58.3771V34.244ZM57.9211 31.676L57.5011 32.456C55.7611 32.132 54.1411 31.028 53.6371 30.02C53.2171 31.028 51.6331 32.132 49.8331 32.456L49.4011 31.688C51.1651 31.496 53.1811 30.32 53.1811 28.844V28.484H54.1291V28.844C54.1291 30.32 56.3491 31.52 57.9211 31.676ZM67.9199 38.84H67.0079V28.352H67.9199V38.84ZM59.6399 32.84C59.6399 30.632 60.6239 29.144 62.3399 29.144C64.0799 29.144 65.0519 30.632 65.0519 32.852C65.0519 35.072 64.0799 36.56 62.3399 36.56C60.6239 36.56 59.6399 35.072 59.6399 32.84ZM64.1879 32.852C64.1879 31.124 63.4559 29.936 62.3399 29.936C61.2359 29.936 60.5039 31.124 60.5039 32.852C60.5039 34.568 61.2359 35.768 62.3399 35.768C63.4559 35.768 64.1879 34.568 64.1879 32.852ZM81.4671 38.84H80.5431V28.352H81.4671V38.84ZM79.2111 35.624L78.6351 36.32C77.6871 35.672 76.4511 34.376 76.0431 33.116C75.6591 34.424 74.5791 35.708 73.3671 36.572L72.7671 35.888C74.3031 34.928 75.5631 33.02 75.5631 31.16V29.264H76.4871V31.124C76.4871 33.044 77.7591 34.76 79.2111 35.624ZM83.2699 29.876V29.108H88.9939V29.876H86.6059C86.6059 30.14 86.6059 30.344 86.6179 30.452C86.7019 31.796 87.9499 32.948 89.1499 33.344L88.6459 34.076C87.6379 33.668 86.5699 32.72 86.1379 31.772C85.8499 32.756 84.6259 33.884 83.4979 34.364L82.9699 33.656C84.2899 33.152 85.6219 31.832 85.6699 30.44C85.6699 30.344 85.6819 30.14 85.6819 29.876H83.2699ZM84.5059 35.132H91.2739V38.852H90.3619V35.888H84.5059V35.132ZM92.8579 31.952H91.2619V34.58H90.3499V28.352H91.2619V31.184H92.8579V31.952ZM93.2447 38.72L96.0647 28.736H96.8927L94.0727 38.72H93.2447ZM104.187 34.64C103.431 34.724 102.111 34.868 100.863 34.94C99.6874 35.012 98.3554 35.06 97.6114 35.06L97.4674 34.256C98.1994 34.268 99.2194 34.256 100.251 34.208V33.152C98.9314 32.984 98.0554 32.156 98.0554 31.004C98.0554 29.756 99.1594 28.82 100.731 28.82C102.315 28.82 103.395 29.756 103.395 31.016C103.395 32.18 102.507 32.996 101.163 33.152V34.172C102.291 34.112 103.479 33.992 104.115 33.908L104.187 34.64ZM107.319 32.708H105.735V36.272H104.811V28.352H105.735V31.94H107.319V32.708ZM102.519 31.004C102.519 30.2 101.835 29.6 100.731 29.6C99.6274 29.6 98.9674 30.224 98.9674 31.004C98.9674 31.868 99.6274 32.408 100.731 32.408C101.835 32.408 102.519 31.82 102.519 31.004ZM106.011 38.612H99.0754V35.744H99.9874V37.856H106.011V38.612ZM116.61 34.7H114.918V36.74H117.498V37.508H108.03V36.74H110.67V34.7H109.182V31.508H115.398V29.9H109.218V29.132H116.31V32.264H110.106V33.944H116.61V34.7ZM111.582 34.7V36.74H114.018V34.7H111.582ZM125.361 34.556C124.533 34.664 123.261 34.772 121.989 34.844C120.801 34.892 119.253 34.928 118.557 34.928L118.425 34.136C119.229 34.136 120.309 34.136 121.437 34.112V32.684H119.241V29.12H124.581V29.864H120.153V31.952H124.641V32.684H122.361V34.076C123.489 34.016 124.629 33.932 125.277 33.836L125.361 34.556ZM127.221 38.576H120.165V35.612H121.077V37.82H127.221V38.576ZM127.005 36.272H126.093V28.352H127.005V36.272ZM134.348 29.204C135.332 29.204 136.004 29.828 136.352 30.848H137.852V28.556H138.74V38.312H137.852V34.892H136.352C135.992 35.9 135.332 36.512 134.348 36.512C132.812 36.512 132.032 35.012 132.032 32.852C132.032 30.716 132.812 29.204 134.348 29.204ZM135.776 32.852C135.776 31.112 135.224 29.996 134.348 29.996C133.46 29.996 132.92 31.112 132.92 32.852C132.92 34.628 133.46 35.72 134.348 35.72C135.224 35.72 135.776 34.628 135.776 32.852ZM140.792 38.84H139.892V28.352H140.792V38.84ZM137.852 31.616H136.556C136.628 32 136.664 32.42 136.664 32.852C136.664 33.32 136.616 33.752 136.544 34.124H137.852V31.616ZM146.843 36.032H142.679V29.504H146.843V36.032ZM151.175 38.84H150.275V33.308H148.991V38.312H148.103V28.604H148.991V32.54H150.275V28.352H151.175V38.84ZM145.943 35.276V30.26H143.567V35.276H145.943ZM164.686 38.588H157.57V35.276H158.482V37.82H164.686V38.588ZM163.522 32.192H161.218V31.424H163.522V28.352H164.434V35.972H163.522V32.192ZM156.382 29.144H161.182C161.026 31.94 159.166 33.908 156.454 34.808L155.998 34.04C158.218 33.452 159.91 31.748 160.186 29.912H156.382V29.144ZM175.717 34.508H166.249V33.74H175.717V34.508ZM174.649 38.54H167.497V35.48H168.409V37.772H174.649V38.54ZM174.637 30.716C174.637 32.06 173.269 32.792 170.977 32.792C168.697 32.792 167.341 32.06 167.341 30.716C167.341 29.396 168.709 28.664 170.989 28.664C173.269 28.664 174.637 29.396 174.637 30.716ZM170.989 29.42C169.333 29.42 168.253 29.852 168.253 30.728C168.253 31.58 169.321 32.024 170.977 32.024C172.645 32.024 173.737 31.58 173.737 30.728C173.737 29.852 172.657 29.42 170.989 29.42ZM180.36 37.496V29.444H182.844C184.656 29.444 185.532 30.308 185.532 31.82C185.532 33.404 184.5 34.268 182.964 34.268H181.32V37.496H180.36ZM181.32 33.476H182.772C184.02 33.476 184.512 32.96 184.512 31.88C184.512 30.74 184.056 30.248 182.748 30.248H181.32V33.476ZM190.229 37.628C188.057 37.628 186.725 36.284 186.725 33.56V33.32C186.725 30.44 188.333 29.312 190.385 29.312C191.249 29.312 191.873 29.492 192.365 29.756V30.548C191.729 30.296 191.129 30.116 190.337 30.116C188.813 30.116 187.733 31.028 187.733 33.164V33.56C187.733 35.624 188.501 36.824 190.349 36.824C191.345 36.824 191.945 36.548 192.449 36.296V37.1C191.909 37.412 191.177 37.628 190.229 37.628ZM193.194 38.72L196.014 28.736H196.842L194.022 38.72H193.194ZM207.065 37.508H197.597V36.74H201.857V34.232H198.737V29.288H205.901V34.232H202.769V36.74H207.065V37.508ZM204.989 33.476V30.044H199.649V33.476H204.989ZM217.747 33.296H216.043V38.84H215.131V28.352H216.043V32.516H217.747V33.296ZM213.259 36.236H208.327V29.24H209.239V31.904H212.335V29.24H213.259V36.236ZM212.335 35.468V32.66H209.239V35.468H212.335ZM226.93 33.656H226.018V28.352H226.93V33.656ZM227.314 38.696H220.138V36.044H226.018V34.952H220.102V34.208H226.93V36.752H221.05V37.952H227.314V38.696ZM221.374 28.676C222.874 28.676 224.086 29.624 224.086 31.052C224.086 32.468 222.874 33.392 221.374 33.392C219.874 33.392 218.638 32.48 218.638 31.052C218.638 29.636 219.862 28.676 221.374 28.676ZM221.374 29.468C220.342 29.468 219.526 30.104 219.526 31.04C219.526 31.976 220.33 32.6 221.374 32.6C222.466 32.6 223.198 31.976 223.198 31.052C223.198 30.116 222.466 29.468 221.374 29.468ZM232.665 30.896V30.128H238.113V30.896H235.821C235.977 31.904 237.273 32.588 238.413 32.672L238.005 33.392C236.877 33.212 235.773 32.564 235.377 31.82C235.017 32.612 233.973 33.344 232.677 33.584L232.257 32.9C233.457 32.768 234.741 32.024 234.897 30.896H232.665ZM240.477 38.84H239.565V28.352H240.477V38.84ZM235.785 38.456H234.873V34.94C233.865 34.988 232.881 35 231.933 35.024L231.789 34.232C233.037 34.232 234.189 34.208 235.353 34.16C236.709 34.112 238.041 34.016 238.869 33.932L238.977 34.652C238.197 34.748 236.937 34.832 235.785 34.88V38.456ZM233.961 29.432V28.676H236.805V29.432H233.961ZM251.376 33.536L250.872 34.268C249.036 33.752 247.452 32.444 246.996 31.268C246.6 32.468 244.98 33.764 243.144 34.268L242.664 33.536C244.5 33.188 246.54 31.688 246.54 29.888V29.132H247.488V29.888C247.488 31.688 249.648 33.2 251.376 33.536ZM251.748 37.508H242.28V36.74H246.54V34.052H247.452V36.74H251.748V37.508ZM260.727 28.352V32.72H262.443V33.5H260.727V38.84H259.815V28.352H260.727ZM258.003 29.48C257.943 32.888 255.975 35.348 253.275 36.752L252.711 36.032C255.327 34.82 256.827 32.612 257.019 30.248H253.071V29.48H258.003ZM274.886 38.66H267.338V36.32H273.578V35.48H267.302V34.736H270.458V33.752H266.198V32.996H275.666V33.752H271.37V34.736H274.49V37.028H268.25V37.904H274.886V38.66ZM274.478 32.24H267.398V28.628H268.31V29.72H273.566V28.628H274.478V32.24ZM273.566 31.496V30.452H268.31V31.496H273.566ZM284.645 28.352V32.72H286.361V33.5H284.645V38.84H283.733V28.352H284.645ZM281.921 29.48C281.861 32.888 279.893 35.348 277.193 36.752L276.629 36.032C279.245 34.82 280.745 32.612 280.937 30.248H276.989V29.48H281.921ZM286.736 39.056L287.18 36.716H288.272L287.384 39.056H286.736ZM293.591 30.896V30.128H299.039V30.896H296.747C296.903 31.904 298.199 32.588 299.339 32.672L298.931 33.392C297.803 33.212 296.699 32.564 296.303 31.82C295.943 32.612 294.899 33.344 293.603 33.584L293.183 32.9C294.383 32.768 295.667 32.024 295.823 30.896H293.591ZM301.403 38.84H300.491V28.352H301.403V38.84ZM296.711 38.456H295.799V34.94C294.791 34.988 293.807 35 292.859 35.024L292.715 34.232C293.963 34.232 295.115 34.208 296.279 34.16C297.635 34.112 298.967 34.016 299.795 33.932L299.903 34.652C299.123 34.748 297.863 34.832 296.711 34.88V38.456ZM294.887 29.432V28.676H297.731V29.432H294.887ZM312.302 33.536L311.798 34.268C309.962 33.752 308.378 32.444 307.922 31.268C307.526 32.468 305.906 33.764 304.07 34.268L303.59 33.536C305.426 33.188 307.466 31.688 307.466 29.888V29.132H308.414V29.888C308.414 31.688 310.574 33.2 312.302 33.536ZM312.674 37.508H303.206V36.74H307.466V34.052H308.378V36.74H312.674V37.508ZM318.821 36.2H313.913V29.432H318.821V36.2ZM317.909 35.444V30.188H314.825V35.444H317.909ZM323.369 33.344H321.653V38.84H320.741V28.352H321.653V32.576H323.369V33.344ZM333.632 31.868H332.036V34.412H331.124V28.352H332.036V31.112H333.632V31.868ZM332.036 38.696H325.448V34.952H332.036V38.696ZM331.124 37.94V35.708H326.36V37.94H331.124ZM324.38 29.156H329.216C329.06 32.036 326.96 33.74 324.284 34.508L323.864 33.752C325.928 33.32 327.932 31.82 328.184 29.924H324.38V29.156ZM342.994 38.84H342.07V28.352H342.994V38.84ZM340.738 35.624L340.162 36.32C339.214 35.672 337.978 34.376 337.57 33.116C337.186 34.424 336.106 35.708 334.894 36.572L334.294 35.888C335.83 34.928 337.09 33.02 337.09 31.16V29.264H338.014V31.124C338.014 33.044 339.286 34.76 340.738 35.624ZM21.116 46.408H19.52V50.2H18.608V42.352H19.52V45.64H21.116V46.408ZM19.844 52.576H12.92V49.336H13.832V51.82H19.844V52.576ZM11.816 43.276H16.592C16.472 46.132 14.528 48.136 11.852 48.988L11.384 48.22C13.64 47.644 15.332 45.976 15.596 44.044H11.816V43.276ZM33.6192 52.84H32.7072V42.352H33.6192V52.84ZM25.3392 46.84C25.3392 44.632 26.3232 43.144 28.0392 43.144C29.7792 43.144 30.7512 44.632 30.7512 46.852C30.7512 49.072 29.7792 50.56 28.0392 50.56C26.3232 50.56 25.3392 49.072 25.3392 46.84ZM29.8872 46.852C29.8872 45.124 29.1552 43.936 28.0392 43.936C26.9352 43.936 26.2032 45.124 26.2032 46.852C26.2032 48.568 26.9352 49.768 28.0392 49.768C29.1552 49.768 29.8872 48.568 29.8872 46.852ZM35.674 44.044V43.276H41.314V44.044H38.962C38.962 44.524 38.962 44.74 38.974 44.896C39.058 46.24 40.354 47.44 41.554 47.836L41.038 48.568C40.042 48.16 38.926 47.164 38.494 46.216C38.206 47.188 36.994 48.328 35.866 48.82L35.338 48.112C36.658 47.596 37.978 46.264 38.026 44.884C38.038 44.74 38.038 44.512 38.038 44.044H35.674ZM43.942 50.032H43.03V46.036H40.942V45.268H43.03V42.352H43.942V50.032ZM44.17 52.492H37.102V49.264H38.014V51.724H44.17V52.492ZM48.2288 43.264C49.6808 43.264 50.4608 44.596 50.5328 46.504H51.6608V42.556H52.5488V52.336H51.6608V47.26H50.5328C50.4368 49.156 49.6688 50.44 48.2288 50.44C46.7048 50.44 45.9248 48.964 45.9248 46.852C45.9248 44.752 46.7048 43.264 48.2288 43.264ZM49.6328 46.852C49.6328 45.16 49.0808 44.068 48.2288 44.068C47.3888 44.068 46.8488 45.16 46.8488 46.852C46.8488 48.556 47.3888 49.636 48.2288 49.636C49.0808 49.636 49.6328 48.556 49.6328 46.852ZM54.6008 52.84H53.7008V42.352H54.6008V52.84ZM61.6919 43.204C62.6759 43.204 63.3479 43.828 63.6959 44.848H65.1959V42.556H66.0839V52.312H65.1959V48.892H63.6959C63.3359 49.9 62.6759 50.512 61.6919 50.512C60.1559 50.512 59.3759 49.012 59.3759 46.852C59.3759 44.716 60.1559 43.204 61.6919 43.204ZM63.1199 46.852C63.1199 45.112 62.5679 43.996 61.6919 43.996C60.8039 43.996 60.2639 45.112 60.2639 46.852C60.2639 48.628 60.8039 49.72 61.6919 49.72C62.5679 49.72 63.1199 48.628 63.1199 46.852ZM68.1359 52.84H67.2359V42.352H68.1359V52.84ZM65.1959 45.616H63.8999C63.9719 46 64.0079 46.42 64.0079 46.852C64.0079 47.32 63.9599 47.752 63.8879 48.124H65.1959V45.616ZM78.7948 47.752L78.2908 48.52C76.5268 47.992 74.8228 46.504 74.3908 45.436C74.0188 46.504 72.3508 47.992 70.5268 48.508L70.0468 47.728C71.7508 47.392 73.9348 45.772 73.9348 44.056V43.228H74.8828V44.056C74.8828 45.772 77.1868 47.392 78.7948 47.752ZM79.1428 51.4H69.6748V50.632H79.1428V51.4ZM80.3456 51.496V50.932L82.2656 48.94C83.4056 47.752 84.1736 46.876 84.1736 45.724C84.1736 44.656 83.6576 44.128 82.5176 44.128C81.8336 44.128 81.1856 44.464 80.7176 44.788L80.4416 44.032C80.9456 43.708 81.7616 43.3 82.6736 43.3C84.2936 43.3 85.1696 44.2 85.1696 45.64C85.1696 47.032 84.3296 47.992 82.9376 49.408L81.6776 50.68H85.3496V51.496H80.3456ZM89.9645 51.688V49.804H86.1605V49.084L90.0965 43.336H90.8405V49.024H92.1845V49.804H90.8405V51.688H89.9645ZM87.1805 49.024H89.9645V44.848L87.1805 49.024ZM105.545 51.328H96.0771V50.56H99.6891V46.768H100.601V50.56H105.545V51.328ZM104.273 43.444V44.764C104.261 46.36 104.165 47.992 103.853 49.324L102.953 49.18C103.193 48.196 103.325 46.612 103.325 45.232V44.212H97.0491V43.444H104.273ZM115.304 48.544H114.392V45.856H113.072V48.448H112.196V42.544H113.072V45.1H114.392V42.352H115.304V48.544ZM110.996 43.144C110.948 45.7 109.544 47.476 107.132 48.64L106.532 47.944C108.632 47.104 109.856 45.544 110.024 43.9H106.94V43.144H110.996ZM115.304 52.84H114.38V49.828H108.32V49.084H115.304V52.84ZM126.083 52.492H118.799V49.18H119.711V51.736H126.083V52.492ZM122.123 47.644L121.607 48.316C120.755 47.884 119.867 46.948 119.531 46.06C119.279 46.972 118.451 48.028 117.395 48.64L116.831 47.968C118.115 47.32 119.063 45.988 119.063 44.476V43.192H119.963V44.464C119.963 45.988 121.079 47.116 122.123 47.644ZM123.695 49.816H122.819V45.868H121.247V45.112H122.819V42.544H123.695V49.816ZM125.687 50.176H124.775V42.352H125.687V50.176ZM128.498 49.624H128.726C130.454 49.624 132.278 49.492 133.322 49.264L133.43 50.032C132.278 50.248 130.514 50.404 128.666 50.404H127.586V43.3H132.554V44.056H128.498V46.228H132.134V46.972H128.498V49.624ZM135.806 52.84H134.894V47.152H132.818V46.372H134.894V42.352H135.806V52.84ZM147.076 51.508H137.608V50.74H141.868V48.952H138.772V45.676H144.988V43.996H138.76V43.228H145.9V46.432H139.684V48.184H146.2V48.952H142.78V50.74H147.076V51.508ZM157.66 49.18L157.756 49.936C156.616 50.152 154.312 50.308 152.644 50.308H151.732V43.348H156.616V44.104H152.656V46.3H156.424V47.044H152.656V49.516C154.3 49.564 156.616 49.396 157.66 49.18ZM159.748 52.84H158.836V42.352H159.748V52.84ZM166.086 43.252C166.062 45.88 164.898 47.836 162.258 48.988L161.658 48.292C163.11 47.764 164.058 46.912 164.586 45.904L161.814 46.228L161.622 45.412L164.898 45.172C165.018 44.8 165.09 44.416 165.114 44.02H162.138V43.252H166.086ZM170.862 52.216L170.358 52.972C169.11 52.72 167.37 51.616 166.854 50.464C166.434 51.58 164.682 52.636 163.218 52.948L162.738 52.204C164.442 51.964 166.41 50.728 166.41 49.228V48.844H167.37V49.228C167.37 50.74 169.314 51.988 170.862 52.216ZM167.55 46.096H166.002V45.34H167.55V42.544H168.426V48.46H167.55V46.096ZM170.37 49.312H169.458V42.352H170.37V49.312ZM180.537 52.84H179.625V42.352H180.537V52.84ZM172.257 46.84C172.257 44.632 173.241 43.144 174.957 43.144C176.697 43.144 177.669 44.632 177.669 46.852C177.669 49.072 176.697 50.56 174.957 50.56C173.241 50.56 172.257 49.072 172.257 46.84ZM176.805 46.852C176.805 45.124 176.073 43.936 174.957 43.936C173.853 43.936 173.121 45.124 173.121 46.852C173.121 48.568 173.853 49.768 174.957 49.768C176.073 49.768 176.805 48.568 176.805 46.852ZM195.104 46.24H193.508V49.96H192.596V42.352H193.508V45.472H195.104V46.24ZM193.916 52.48H186.836V49.252H187.748V51.724H193.916V52.48ZM190.724 48.376H185.768V43.06H186.68V44.86H189.8V43.06H190.724V48.376ZM189.8 47.632V45.604H186.68V47.632H189.8ZM204.167 50.992C204.167 52.192 202.859 52.864 200.555 52.864C198.263 52.864 196.967 52.168 196.967 50.992C196.967 49.828 198.263 49.108 200.555 49.108C202.859 49.108 204.167 49.78 204.167 50.992ZM200.555 49.864C198.911 49.864 197.903 50.284 197.903 50.992C197.903 51.7 198.911 52.108 200.555 52.108C202.223 52.108 203.231 51.7 203.231 50.992C203.231 50.284 202.223 49.864 200.555 49.864ZM205.295 48.244H195.827V47.476H200.099V45.868H201.011V47.476H205.295V48.244ZM204.839 45.676L204.419 46.456C202.679 46.132 201.059 45.028 200.555 44.02C200.135 45.028 198.551 46.132 196.751 46.456L196.319 45.688C198.083 45.496 200.099 44.32 200.099 42.844V42.484H201.047V42.844C201.047 44.32 203.267 45.52 204.839 45.676ZM213.242 50.38C212.414 50.488 211.094 50.584 209.81 50.656C208.646 50.716 207.062 50.764 206.378 50.764L206.222 49.96C207.026 49.96 208.082 49.948 209.186 49.912V47.68H207.002V43.408H212.45V44.164H207.914V46.924H212.486V47.68H210.098V49.876C211.262 49.828 212.486 49.744 213.158 49.648L213.242 50.38ZM214.874 52.84H213.974V42.352H214.874V52.84ZM216.725 46.792C216.725 44.572 217.685 43.084 219.377 43.084C220.961 43.084 221.885 44.392 222.005 46.384H224.249V42.352H225.161V52.84H224.249V47.164H222.005C221.909 49.18 220.973 50.5 219.377 50.5C217.685 50.5 216.725 49.024 216.725 46.792ZM221.117 46.804C221.117 45.076 220.409 43.876 219.377 43.876C218.333 43.876 217.637 45.076 217.637 46.804C217.637 48.508 218.333 49.708 219.377 49.708C220.409 49.708 221.117 48.508 221.117 46.804ZM227.12 46.84C227.12 44.632 228.104 43.144 229.808 43.144C231.512 43.144 232.484 44.632 232.484 46.852C232.484 49.072 231.512 50.56 229.808 50.56C228.104 50.56 227.12 49.072 227.12 46.84ZM231.596 46.852C231.596 45.124 230.9 43.936 229.808 43.936C228.716 43.936 228.008 45.124 228.008 46.852C228.008 48.568 228.716 49.768 229.808 49.768C230.9 49.768 231.596 48.568 231.596 46.852ZM236.744 44.992V45.76H234.908V48.196H236.744V48.964H234.908V52.84H233.996V42.352H234.908V44.992H236.744ZM241.279 44.896V44.128H246.727V44.896H244.435C244.591 45.904 245.887 46.588 247.027 46.672L246.619 47.392C245.491 47.212 244.387 46.564 243.991 45.82C243.631 46.612 242.587 47.344 241.291 47.584L240.871 46.9C242.071 46.768 243.355 46.024 243.511 44.896H241.279ZM249.091 52.84H248.179V42.352H249.091V52.84ZM244.399 52.456H243.487V48.94C242.479 48.988 241.495 49 240.547 49.024L240.403 48.232C241.651 48.232 242.803 48.208 243.967 48.16C245.323 48.112 246.655 48.016 247.483 47.932L247.591 48.652C246.811 48.748 245.551 48.832 244.399 48.88V52.456ZM242.575 43.432V42.676H245.419V43.432H242.575ZM259.99 47.536L259.486 48.268C257.65 47.752 256.066 46.444 255.61 45.268C255.214 46.468 253.594 47.764 251.758 48.268L251.278 47.536C253.114 47.188 255.154 45.688 255.154 43.888V43.132H256.102V43.888C256.102 45.688 258.262 47.2 259.99 47.536ZM260.362 51.508H250.894V50.74H255.154V48.052H256.066V50.74H260.362V51.508ZM272.493 42.352V46.72H274.209V47.5H272.493V52.84H271.581V42.352H272.493ZM269.769 43.48C269.709 46.888 267.741 49.348 265.041 50.752L264.477 50.032C267.093 48.82 268.593 46.612 268.785 44.248H264.837V43.48H269.769ZM284.279 48.004H274.811V47.248H284.279V48.004ZM283.187 46.108H276.131V42.628H277.043V45.352H283.187V46.108ZM283.247 50.824C283.247 52.084 281.843 52.78 279.563 52.78C277.271 52.78 275.891 52.084 275.891 50.824C275.891 49.576 277.271 48.88 279.551 48.88C281.843 48.88 283.247 49.576 283.247 50.824ZM279.551 49.624C277.907 49.624 276.815 50.008 276.815 50.824C276.815 51.64 277.907 52.024 279.551 52.024C281.219 52.024 282.323 51.64 282.323 50.824C282.323 50.008 281.219 49.624 279.551 49.624ZM294.854 46.084H293.258V48.436H292.346V42.352H293.258V45.316H294.854V46.084ZM293.258 52.768H286.658V48.952H287.57V50.068H292.346V48.94H293.258V52.768ZM292.346 52V50.824H287.57V52H292.346ZM289.718 43.264H286.694V42.496H289.718V43.264ZM291.254 44.74H285.146V43.996H291.254V44.74ZM290.642 46.864C290.642 47.896 289.622 48.556 288.206 48.556C286.778 48.556 285.77 47.896 285.77 46.864C285.77 45.808 286.754 45.16 288.206 45.16C289.622 45.16 290.642 45.808 290.642 46.864ZM289.718 46.864C289.718 46.252 289.022 45.892 288.206 45.892C287.39 45.892 286.67 46.252 286.67 46.864C286.67 47.464 287.402 47.836 288.206 47.836C289.022 47.836 289.718 47.464 289.718 46.864ZM304.073 42.352V52.84H303.173V42.352H304.073ZM302.105 48.988L302.189 49.78C300.977 50.056 298.241 50.26 296.633 50.26H296.165V43.444H297.089V49.456C298.433 49.456 300.857 49.264 302.105 48.988ZM314.048 42.352V46.516H315.752V47.284H314.048V52.84H313.136V42.352H314.048ZM307.292 49.492H307.892C309.248 49.492 311.324 49.372 312.332 49.156L312.428 49.912C311.3 50.128 309.224 50.272 307.4 50.272H306.368V43.444H311.348V44.212H307.292V49.492ZM316.391 51.796V50.728H317.435V51.796H316.391ZM321.354 52.72C320.25 51.592 319.278 49.948 319.278 47.824V47.632C319.278 45.496 320.25 43.864 321.354 42.736H322.182C321.114 43.924 320.25 45.64 320.25 47.548V47.836C320.25 49.684 321.114 51.52 322.182 52.72H321.354ZM323.626 44.896V44.128H329.074V44.896H326.782C326.938 45.904 328.234 46.588 329.374 46.672L328.966 47.392C327.838 47.212 326.734 46.564 326.338 45.82C325.978 46.612 324.934 47.344 323.638 47.584L323.218 46.9C324.418 46.768 325.702 46.024 325.858 44.896H323.626ZM331.438 52.84H330.526V42.352H331.438V52.84ZM326.746 52.456H325.834V48.94C324.826 48.988 323.842 49 322.894 49.024L322.75 48.232C323.998 48.232 325.15 48.208 326.314 48.16C327.67 48.112 329.002 48.016 329.83 47.932L329.938 48.652C329.158 48.748 327.898 48.832 326.746 48.88V52.456ZM324.922 43.432V42.676H327.766V43.432H324.922ZM342.337 47.536L341.833 48.268C339.997 47.752 338.413 46.444 337.957 45.268C337.561 46.468 335.941 47.764 334.105 48.268L333.625 47.536C335.461 47.188 337.501 45.688 337.501 43.888V43.132H338.449V43.888C338.449 45.688 340.609 47.2 342.337 47.536ZM342.709 51.508H333.241V50.74H337.501V48.052H338.413V50.74H342.709V51.508ZM16.628 66.852H15.716V63.048H11.456V62.28H20.924V63.048H16.628V66.852ZM20.54 60.384L20.108 61.164C18.536 60.84 16.82 59.856 16.184 58.632C15.68 59.856 13.892 60.876 12.296 61.188L11.852 60.408C13.868 60.144 15.716 58.812 15.716 57.384V56.712H16.676V57.384C16.676 58.812 18.692 60.156 20.54 60.384ZM27.0108 66.852H26.0988V63.048H21.8388V62.28H31.3068V63.048H27.0108V66.852ZM30.9228 60.384L30.4908 61.164C28.9188 60.84 27.2028 59.856 26.5668 58.632C26.0628 59.856 24.2748 60.876 22.6788 61.188L22.2348 60.408C24.2508 60.144 26.0988 58.812 26.0988 57.384V56.712H27.0588V57.384C27.0588 58.812 29.0748 60.156 30.9228 60.384ZM40.8016 62.7H39.1096V64.74H41.6896V65.508H32.2216V64.74H34.8616V62.7H33.3736V59.508H39.5896V57.9H33.4096V57.132H40.5016V60.264H34.2976V61.944H40.8016V62.7ZM35.7736 62.7V64.74H38.2096V62.7H35.7736ZM52.0724 62.532H42.6044V61.764H52.0724V62.532ZM51.0644 66.612H43.8404V63.516H44.7524V65.856H51.0644V66.612ZM51.0164 60.456H43.8764V56.796H44.7884V59.7H51.0164V60.456ZM62.6556 63.18L62.7516 63.936C61.6116 64.152 59.3076 64.308 57.6396 64.308H56.7276V57.348H61.6116V58.104H57.6516V60.3H61.4196V61.044H57.6516V63.516C59.2956 63.564 61.6116 63.396 62.6556 63.18ZM64.7436 66.84H63.8316V56.352H64.7436V66.84ZM71.0824 57.252C71.0584 59.88 69.8944 61.836 67.2544 62.988L66.6544 62.292C68.1064 61.764 69.0544 60.912 69.5824 59.904L66.8104 60.228L66.6184 59.412L69.8944 59.172C70.0144 58.8 70.0864 58.416 70.1104 58.02H67.1344V57.252H71.0824ZM75.8584 66.216L75.3544 66.972C74.1064 66.72 72.3664 65.616 71.8504 64.464C71.4304 65.58 69.6784 66.636 68.2144 66.948L67.7344 66.204C69.4384 65.964 71.4064 64.728 71.4064 63.228V62.844H72.3664V63.228C72.3664 64.74 74.3104 65.988 75.8584 66.216ZM72.5464 60.096H70.9984V59.34H72.5464V56.544H73.4224V62.46H72.5464V60.096ZM75.3664 63.312H74.4544V56.352H75.3664V63.312ZM89.5256 65.508H80.0576V64.74H84.3176V62.172H81.1976V57.24H88.3976V57.996H82.1216V61.416H88.4576V62.172H85.2296V64.74H89.5256V65.508ZM90.5844 59.16V58.416H96.2124V59.16H93.8964C93.9804 60.432 95.2164 61.476 96.4164 61.764L95.9484 62.484C95.0244 62.196 93.9204 61.332 93.4284 60.384C93.0804 61.32 91.9884 62.364 90.7884 62.784L90.2844 62.088C91.6524 61.68 92.8764 60.456 92.9364 59.16H90.5844ZM91.7124 63.252H98.4924V66.84H97.5804V64.008H91.7124V63.252ZM100.088 59.904H98.4924V62.712H97.5924V56.352H98.4924V59.136H100.088V59.904ZM91.9524 57.444V56.664H94.8804V57.444H91.9524ZM109.391 61.656H108.479V56.352H109.391V61.656ZM109.775 66.696H102.599V64.044H108.479V62.952H102.563V62.208H109.391V64.752H103.511V65.952H109.775V66.696ZM103.835 56.676C105.335 56.676 106.547 57.624 106.547 59.052C106.547 60.468 105.335 61.392 103.835 61.392C102.335 61.392 101.099 60.48 101.099 59.052C101.099 57.636 102.323 56.676 103.835 56.676ZM103.835 57.468C102.803 57.468 101.987 58.104 101.987 59.04C101.987 59.976 102.791 60.6 103.835 60.6C104.927 60.6 105.659 59.976 105.659 59.052C105.659 58.116 104.927 57.468 103.835 57.468ZM122.926 66.84H122.014V56.352H122.926V66.84ZM119.842 57.468C119.794 60.876 117.706 63.48 114.994 64.764L114.466 64.044C117.118 62.88 118.678 60.6 118.87 58.236H114.85V57.468H119.842ZM133.753 60.204L133.333 60.984C131.581 60.684 129.997 59.772 129.469 58.824C129.061 59.784 127.501 60.696 125.653 60.984L125.233 60.216C126.985 60.06 128.917 59.1 129.001 57.708H125.581V56.94H133.345V57.708H129.961C130.045 59.112 132.181 60.06 133.753 60.204ZM129.925 64.548H129.013V62.472H124.741V61.716H134.209V62.472H129.925V64.548ZM133.237 66.516H125.905V63.444H126.817V65.748H133.237V66.516ZM144.592 65.4H135.124V64.632H144.592V65.4ZM143.668 59.916C143.668 61.524 142.144 62.568 139.84 62.568C137.56 62.568 136.036 61.524 136.036 59.916C136.036 58.32 137.56 57.264 139.84 57.264C142.156 57.264 143.668 58.32 143.668 59.916ZM142.756 59.928C142.756 58.788 141.604 58.032 139.84 58.032C138.1 58.032 136.948 58.788 136.948 59.928C136.948 61.044 138.1 61.788 139.84 61.788C141.592 61.788 142.756 61.044 142.756 59.928ZM154.975 65.508H145.507V64.74H149.767V62.952H146.671V59.676H152.887V57.996H146.659V57.228H153.799V60.432H147.583V62.184H154.099V62.952H150.679V64.74H154.975V65.508ZM167.358 61.38H160.182V56.76H161.106V58.308H166.446V56.76H167.358V61.38ZM164.214 66.852H163.302V63.396H159.042V62.628H168.51V63.396H164.214V66.852ZM166.446 60.624V59.052H161.106V60.624H166.446ZM179.253 61.512H177.549V66.84H176.637V56.352H177.549V60.732H179.253V61.512ZM176.037 64.188C175.029 64.32 173.481 64.428 172.461 64.488C171.405 64.536 170.241 64.572 169.365 64.572L169.233 63.768C169.809 63.768 170.745 63.78 171.525 63.756V60.444H172.449V63.732C173.709 63.672 175.029 63.576 175.965 63.432L176.037 64.188ZM175.245 57.456C175.269 59.064 175.101 61.248 174.873 62.268L173.997 62.148C174.225 61.128 174.369 59.4 174.321 58.224H169.761V57.456H175.245ZM179.58 67.056L180.024 64.716H181.116L180.228 67.056H179.58ZM190.203 64.212H186.015V57.396H186.915V59.964H189.303V57.396H190.203V64.212ZM194.511 66.84H193.611V61.428H192.327V66.312H191.439V56.604H192.327V60.66H193.611V56.352H194.511V66.84ZM189.303 63.444V60.72H186.915V63.444H189.303ZM204.39 64.992C204.39 66.192 203.082 66.864 200.778 66.864C198.486 66.864 197.19 66.168 197.19 64.992C197.19 63.828 198.486 63.108 200.778 63.108C203.082 63.108 204.39 63.78 204.39 64.992ZM200.778 63.864C199.134 63.864 198.126 64.284 198.126 64.992C198.126 65.7 199.134 66.108 200.778 66.108C202.446 66.108 203.454 65.7 203.454 64.992C203.454 64.284 202.446 63.864 200.778 63.864ZM205.518 62.244H196.05V61.476H200.322V59.868H201.234V61.476H205.518V62.244ZM205.062 59.676L204.642 60.456C202.902 60.132 201.282 59.028 200.778 58.02C200.358 59.028 198.774 60.132 196.974 60.456L196.542 59.688C198.306 59.496 200.322 58.32 200.322 56.844V56.484H201.27V56.844C201.27 58.32 203.49 59.52 205.062 59.676ZM215.013 62.7H213.321V64.74H215.901V65.508H206.433V64.74H209.073V62.7H207.585V59.508H213.801V57.9H207.621V57.132H214.713V60.264H208.509V61.944H215.013V62.7ZM209.985 62.7V64.74H212.421V62.7H209.985ZM226.283 62.532H216.815V61.764H226.283V62.532ZM225.275 66.612H218.051V63.516H218.963V65.856H225.275V66.612ZM225.227 60.456H218.087V56.796H218.999V59.7H225.227V60.456ZM236.939 63.252C236.183 63.348 234.827 63.468 233.579 63.552C232.403 63.624 231.095 63.66 230.363 63.66L230.207 62.892C230.975 62.892 232.031 62.892 233.087 62.856V62.124C231.971 62.016 231.119 61.548 231.119 60.648C231.119 59.616 232.247 59.112 233.579 59.112C234.935 59.112 236.063 59.604 236.063 60.636C236.063 61.56 235.163 62.028 234.011 62.124V62.808C235.115 62.736 236.267 62.64 236.891 62.544L236.939 63.252ZM240.083 60.876H238.439V64.512H237.515V56.328H238.439V60.108H240.083V60.876ZM238.703 66.66H231.791V64.056H232.703V65.904H238.703V66.66ZM236.591 58.764H230.495V58.02H236.591V58.764ZM235.211 60.636C235.211 60.096 234.503 59.844 233.579 59.844C232.667 59.844 231.983 60.096 231.983 60.636C231.983 61.176 232.667 61.428 233.579 61.428C234.503 61.428 235.211 61.164 235.211 60.636ZM235.055 57.384H232.163V56.616H235.055V57.384ZM249.421 66.66H241.873V64.32H248.113V63.48H241.837V62.736H244.993V61.752H240.733V60.996H250.201V61.752H245.905V62.736H249.025V65.028H242.785V65.904H249.421V66.66ZM249.013 60.24H241.933V56.628H242.845V57.72H248.101V56.628H249.013V60.24ZM248.101 59.496V58.452H242.845V59.496H248.101ZM258.148 64.38C257.32 64.488 256 64.584 254.716 64.656C253.552 64.716 251.968 64.764 251.284 64.764L251.128 63.96C251.932 63.96 252.988 63.948 254.092 63.912V61.68H251.908V57.408H257.356V58.164H252.82V60.924H257.392V61.68H255.004V63.876C256.168 63.828 257.392 63.744 258.064 63.648L258.148 64.38ZM259.78 66.84H258.88V56.352H259.78V66.84ZM267.979 63.66L267.415 64.344C266.431 63.708 265.099 62.388 264.739 61.152C264.391 62.46 263.239 63.804 262.027 64.584L261.463 63.912C262.999 63.012 264.259 61.224 264.259 59.244V58.164H261.811V57.408H267.655V58.164H265.207V59.232C265.207 61.188 266.539 62.88 267.979 63.66ZM269.191 56.352H270.103V66.84H269.191V56.352ZM284.694 59.52H283.098V61.38H282.186V56.352H283.098V58.752H284.694V59.52ZM282.726 62.592H280.314V61.848H282.726V62.592ZM284.106 63.828H278.862V63.096H284.106V63.828ZM283.458 65.556C283.458 66.408 282.57 66.972 281.466 66.972C280.386 66.972 279.498 66.408 279.498 65.556C279.498 64.68 280.386 64.152 281.466 64.152C282.57 64.152 283.458 64.68 283.458 65.556ZM282.57 65.556C282.57 65.136 282.078 64.872 281.466 64.872C280.878 64.872 280.386 65.148 280.386 65.556C280.386 65.976 280.878 66.252 281.466 66.252C282.078 66.252 282.57 65.976 282.57 65.556ZM279.162 66.156C278.418 66.372 277.326 66.564 275.994 66.552V62.772H276.894V65.76C277.482 65.772 278.43 65.592 279.006 65.412L279.162 66.156ZM277.866 56.868C279.354 56.868 280.578 57.864 280.578 59.34C280.578 60.852 279.354 61.8 277.866 61.8C276.366 61.8 275.142 60.852 275.142 59.352C275.142 57.864 276.366 56.868 277.866 56.868ZM277.866 57.648C276.81 57.648 276.03 58.368 276.03 59.34C276.03 60.348 276.81 61.02 277.866 61.02C278.958 61.02 279.702 60.348 279.702 59.352C279.702 58.368 278.97 57.648 277.866 57.648ZM294.393 59.592L293.961 60.384C292.377 60.084 290.673 59.088 290.157 57.996C289.701 59.088 287.961 60.072 286.377 60.384L285.945 59.592C287.589 59.412 289.689 58.296 289.689 56.82V56.484H290.637V56.82C290.637 58.296 292.773 59.412 294.393 59.592ZM294.885 61.98H285.417V61.212H294.885V61.98ZM293.685 66.696H286.629V62.724H287.541V63.948H292.761V62.712H293.685V66.696ZM292.761 65.94V64.692H287.541V65.94H292.761ZM304.296 56.352V66.84H303.396V56.352H304.296ZM302.328 62.988L302.412 63.78C301.2 64.056 298.464 64.26 296.856 64.26H296.388V57.444H297.312V63.456C298.656 63.456 301.08 63.264 302.328 62.988ZM314.271 56.352V60.516H315.975V61.284H314.271V66.84H313.359V56.352H314.271ZM307.515 63.492H308.115C309.471 63.492 311.547 63.372 312.555 63.156L312.651 63.912C311.523 64.128 309.447 64.272 307.623 64.272H306.591V57.444H311.571V58.212H307.515V63.492ZM316.613 65.796V64.728H317.657V65.796H316.613ZM319.032 66.72C320.088 65.532 320.964 63.816 320.964 61.92V61.62C320.964 59.772 320.088 57.936 319.032 56.736H319.848C320.964 57.864 321.912 59.508 321.912 61.632V61.824C321.912 63.96 320.964 65.592 319.848 66.72H319.032ZM3.26459 75.596C3.26459 76.292 2.70059 76.844 2.00459 76.844C1.32059 76.844 0.756594 76.292 0.756594 75.596C0.756594 74.912 1.32059 74.348 2.00459 74.348C2.70059 74.348 3.26459 74.912 3.26459 75.596ZM17.0203 79.496V76.328L14.3683 71.444H15.3763L17.5243 75.44H17.5483L19.6843 71.444H20.5963L17.9563 76.328V79.496H17.0203ZM21.8643 79.496V71.444H26.6403V72.248H22.8123V74.948H25.7643V75.752H22.8123V78.692H26.6763V79.496H21.8643ZM30.178 79.64C29.194 79.64 28.426 79.4 27.886 79.1V78.296C28.498 78.608 29.29 78.824 30.142 78.824C31.378 78.824 31.918 78.248 31.918 77.372C31.918 76.544 31.522 76.208 30.55 75.896L29.77 75.62C28.642 75.248 28.006 74.672 28.006 73.448C28.006 72.2 28.834 71.312 30.514 71.312C31.462 71.312 32.026 71.54 32.47 71.756V72.56C32.002 72.344 31.366 72.116 30.478 72.116C29.494 72.116 28.942 72.596 28.942 73.364C28.942 74.132 29.23 74.468 30.142 74.78L30.934 75.032C32.122 75.44 32.878 75.944 32.878 77.3C32.878 78.704 32.062 79.64 30.178 79.64ZM41.5768 75.032H39.6328V74.264H41.5768V70.352H42.4888V80.84H41.5768V75.032ZM39.1528 78.128H34.3048V71.432H39.1528V78.128ZM38.2408 77.372V72.188H35.2288V77.372H38.2408ZM52.7997 70.352V80.84H51.8997V70.352H52.7997ZM50.8317 76.988L50.9157 77.78C49.7037 78.056 46.9677 78.26 45.3597 78.26H44.8917V71.444H45.8157V77.456C47.1597 77.456 49.5837 77.264 50.8317 76.988ZM54.4585 81.056L54.9025 78.716H55.9945L55.1065 81.056H54.4585ZM68.7658 71.036C68.7658 72.368 68.7178 74.348 68.3818 76.004H70.0138V76.772H65.7298V80.84H64.8178V76.772H60.5458V76.004H67.4698C67.6018 75.5 67.6858 74.768 67.7338 74.036L61.6378 74.288L61.4938 73.496L67.7698 73.304C67.8058 72.704 67.8178 72.152 67.8178 71.792H61.7698V71.036H68.7658ZM80.3967 76.952H70.9287V76.184H75.1887V74.936H71.8047V74.192H73.5327L73.2087 72.176L74.1567 72.056L74.3967 74.192H76.8687L77.1447 72.032L78.0807 72.164L77.7447 74.192H79.4727V74.936H76.1007V76.184H80.3967V76.952ZM79.3047 80.516H72.1047V77.696H73.0167V79.748H79.3047V80.516ZM79.4727 71.636H71.7927V70.88H79.4727V71.636ZM93.9318 76.16H84.4638V75.404H93.9318V76.16ZM92.8158 74.36H85.6278V70.796H92.7678V71.564H86.5398V73.592H92.8158V74.36ZM92.9358 78.92C92.9358 80.12 91.5198 80.768 89.2158 80.768C86.9118 80.768 85.5078 80.12 85.5078 78.92C85.5078 77.72 86.9118 77.072 89.2038 77.072C91.5198 77.072 92.9358 77.72 92.9358 78.92ZM89.2038 77.852C87.5358 77.852 86.4198 78.224 86.4198 78.92C86.4198 79.604 87.5358 79.976 89.2038 79.976C90.9078 79.976 92.0118 79.604 92.0118 78.92C92.0118 78.224 90.8958 77.852 89.2038 77.852ZM100.399 71.204C101.383 71.204 102.055 71.828 102.403 72.848H103.903V70.556H104.791V80.312H103.903V76.892H102.403C102.043 77.9 101.383 78.512 100.399 78.512C98.863 78.512 98.083 77.012 98.083 74.852C98.083 72.716 98.863 71.204 100.399 71.204ZM101.827 74.852C101.827 73.112 101.275 71.996 100.399 71.996C99.511 71.996 98.971 73.112 98.971 74.852C98.971 76.628 99.511 77.72 100.399 77.72C101.275 77.72 101.827 76.628 101.827 74.852ZM106.843 80.84H105.943V70.352H106.843V80.84ZM103.903 73.616H102.607C102.679 74 102.715 74.42 102.715 74.852C102.715 75.32 102.667 75.752 102.595 76.124H103.903V73.616ZM117.502 75.752L116.998 76.52C115.234 75.992 113.53 74.504 113.098 73.436C112.726 74.504 111.058 75.992 109.234 76.508L108.754 75.728C110.458 75.392 112.642 73.772 112.642 72.056V71.228H113.59V72.056C113.59 73.772 115.894 75.392 117.502 75.752ZM117.85 79.4H108.382V78.632H117.85V79.4ZM119.053 79.496V78.932L120.973 76.94C122.113 75.752 122.881 74.876 122.881 73.724C122.881 72.656 122.365 72.128 121.225 72.128C120.541 72.128 119.893 72.464 119.425 72.788L119.149 72.032C119.653 71.708 120.469 71.3 121.381 71.3C123.001 71.3 123.877 72.2 123.877 73.64C123.877 75.032 123.037 75.992 121.645 77.408L120.385 78.68H124.057V79.496H119.053ZM128.672 79.688V77.804H124.868V77.084L128.804 71.336H129.548V77.024H130.892V77.804H129.548V79.688H128.672ZM125.888 77.024H128.672V72.848L125.888 77.024ZM143.748 80.78H136.572V78.14H142.44V76.988H136.536V76.268H143.352V78.8H137.484V80.06H143.748V80.78ZM140.148 70.928C139.932 73.688 137.988 75.368 135.372 76.124L134.916 75.38C137.22 74.804 138.756 73.412 139.104 71.696H135.36V70.928H140.148ZM140.256 72.62V71.9H142.44V70.352H143.352V75.692H142.44V74.564H140.124V73.832H142.44V72.62H140.256ZM150.519 77.696L149.943 78.368C149.199 77.84 148.095 76.616 147.795 75.512C147.579 76.676 146.631 77.924 145.611 78.644L144.999 78.008C146.235 77.216 147.339 75.56 147.339 73.52V72.344H145.251V71.588H150.255V72.344H148.239V73.496C148.239 75.56 149.223 76.856 150.519 77.696ZM151.935 80.312H151.035V74.96H149.355V74.204H151.035V70.604H151.935V80.312ZM154.011 80.84H153.111V70.352H154.011V80.84ZM160.722 80.852H159.81V77.048H155.55V76.28H165.018V77.048H160.722V80.852ZM164.634 74.384L164.202 75.164C162.63 74.84 160.914 73.856 160.278 72.632C159.774 73.856 157.986 74.876 156.39 75.188L155.946 74.408C157.962 74.144 159.81 72.812 159.81 71.384V70.712H160.77V71.384C160.77 72.812 162.786 74.156 164.634 74.384ZM175.581 74.156H173.985V77.96H173.073V70.352H173.985V73.388H175.581V74.156ZM174.393 80.48H167.469V77.276H168.393V79.724H174.393V80.48ZM167.205 75.5H167.721C169.173 75.5 171.021 75.356 172.029 75.152L172.113 75.896C170.949 76.1 168.957 76.256 167.145 76.256H166.293V71.288H171.105V72.056H167.205V75.5ZM185.783 75.656H176.315V74.888H185.783V75.656ZM184.727 72.32C184.727 73.472 183.335 74.132 181.055 74.132C178.799 74.132 177.407 73.472 177.407 72.32C177.407 71.168 178.799 70.496 181.055 70.496C183.335 70.496 184.727 71.168 184.727 72.32ZM181.055 71.24C179.411 71.24 178.343 71.66 178.343 72.32C178.343 72.968 179.411 73.376 181.055 73.376C182.723 73.376 183.803 72.968 183.803 72.32C183.803 71.66 182.723 71.24 181.055 71.24ZM184.943 80.744H177.419V78.248H183.683V77.324H177.395V76.592H184.595V78.944H178.331V80H184.943V80.744ZM199.607 75.356H197.915V80.84H197.003V70.352H197.915V74.588H199.607V75.356ZM196.007 77.588L195.431 78.284C194.351 77.54 193.175 76.292 192.755 75.02C192.383 76.328 191.363 77.66 190.127 78.524L189.539 77.816C191.063 76.88 192.299 74.996 192.299 73.136V71.276H193.235V73.112C193.235 75.02 194.555 76.736 196.007 77.588ZM208.633 72.56C208.633 73.268 208.141 73.832 207.253 74.168V75.656H209.701V76.412H200.233V75.656H202.645V74.156C201.781 73.82 201.313 73.256 201.313 72.56C201.313 71.36 202.669 70.58 204.961 70.58C207.265 70.58 208.633 71.36 208.633 72.56ZM208.705 78.932C208.705 80.132 207.289 80.78 204.985 80.78C202.681 80.78 201.277 80.132 201.277 78.932C201.277 77.732 202.681 77.072 204.973 77.072C207.289 77.072 208.705 77.732 208.705 78.932ZM207.745 72.56C207.745 71.78 206.641 71.312 204.961 71.312C203.281 71.312 202.201 71.78 202.201 72.56C202.201 73.316 203.281 73.784 204.961 73.784C206.641 73.784 207.745 73.316 207.745 72.56ZM204.973 77.864C203.305 77.864 202.189 78.236 202.189 78.932C202.189 79.616 203.305 79.988 204.973 79.988C206.677 79.988 207.781 79.616 207.781 78.932C207.781 78.236 206.665 77.864 204.973 77.864ZM204.961 74.516C204.445 74.516 203.977 74.48 203.557 74.408V75.656H206.341V74.42C205.921 74.48 205.477 74.516 204.961 74.516ZM220.276 74.672H218.68V78.092H217.768V70.352H218.68V73.904H220.276V74.672ZM219.088 80.504H212.104V77.816H213.016V79.736H219.088V80.504ZM215.092 71.528H212.068V70.724H215.092V71.528ZM216.712 73.076H210.568V72.32H216.712V73.076ZM216.112 75.476C216.112 76.58 215.056 77.312 213.64 77.312C212.248 77.312 211.18 76.58 211.18 75.476C211.18 74.348 212.236 73.64 213.64 73.64C215.056 73.64 216.112 74.348 216.112 75.476ZM215.248 75.476C215.248 74.78 214.492 74.36 213.64 74.36C212.8 74.36 212.044 74.78 212.044 75.476C212.044 76.16 212.8 76.58 213.64 76.58C214.492 76.58 215.248 76.16 215.248 75.476ZM232.803 78.8C232.803 80.024 231.507 80.792 229.239 80.792C226.947 80.792 225.663 80.024 225.663 78.8C225.663 77.588 226.947 76.82 229.239 76.82C231.507 76.82 232.803 77.588 232.803 78.8ZM229.239 77.588C227.583 77.588 226.611 78.032 226.611 78.8C226.611 79.58 227.583 80.036 229.239 80.036C230.895 80.036 231.867 79.58 231.867 78.8C231.867 78.032 230.895 77.588 229.239 77.588ZM229.491 75.2V74.444H231.807V73.004H229.659V72.248H231.807V70.352H232.719V76.976H231.807V75.2H229.491ZM229.551 71.168C229.395 73.808 227.499 75.872 224.727 76.844L224.271 76.064C226.431 75.464 228.207 73.724 228.519 71.948H224.727V71.168H229.551ZM243.018 73.136C243.018 74.528 241.614 75.488 239.262 75.488C236.922 75.488 235.506 74.54 235.506 73.136C235.506 71.744 236.922 70.796 239.262 70.796C241.614 70.796 243.018 71.744 243.018 73.136ZM239.262 71.588C237.498 71.588 236.418 72.176 236.418 73.136C236.418 74.108 237.498 74.696 239.262 74.696C241.05 74.696 242.13 74.108 242.13 73.136C242.13 72.176 241.05 71.588 239.262 71.588ZM239.718 80.852H238.806V77.204H234.57V76.436H244.05V77.204H239.718V80.852ZM244.689 81.056L245.133 78.716H246.225L245.337 81.056H244.689ZM259.056 75.176H251.94V70.94H259.056V75.176ZM258.144 74.42V71.696H252.864V74.42H258.144ZM255.948 80.852H255.036V77.276H250.776V76.508H260.244V77.276H255.948V80.852ZM269.511 74.936H266.343V75.932H270.627V76.688H261.159V75.932H265.431V74.936H262.299V70.784H269.439V71.516H263.211V72.488H269.259V73.184H263.211V74.216H269.511V74.936ZM269.571 79.1C269.571 80.228 268.287 80.864 265.887 80.864C263.499 80.864 262.227 80.204 262.227 79.1C262.227 78.008 263.499 77.324 265.887 77.324C268.287 77.324 269.571 77.948 269.571 79.1ZM265.887 78.056C264.195 78.056 263.151 78.452 263.151 79.1C263.151 79.748 264.195 80.12 265.887 80.12C267.591 80.12 268.647 79.748 268.647 79.1C268.647 78.452 267.591 78.056 265.887 78.056ZM279.75 78.836C279.75 80.072 278.418 80.828 276.222 80.828C274.026 80.828 272.706 80.072 272.706 78.836C272.706 77.576 274.026 76.82 276.222 76.82C278.418 76.82 279.75 77.576 279.75 78.836ZM271.602 71.876V71.108H277.326V71.876H274.938C274.938 72.14 274.938 72.344 274.95 72.452C275.034 73.796 276.282 74.948 277.482 75.344L276.978 76.076C275.97 75.668 274.902 74.72 274.47 73.772C274.182 74.756 272.958 75.884 271.83 76.364L271.302 75.656C272.622 75.152 273.954 73.832 274.002 72.44C274.002 72.344 274.014 72.14 274.014 71.876H271.602ZM278.814 78.836C278.814 78.02 277.806 77.588 276.222 77.588C274.638 77.588 273.654 78.02 273.654 78.836C273.654 79.616 274.638 80.072 276.222 80.072C277.806 80.072 278.814 79.616 278.814 78.836ZM281.226 74.024H279.606V76.796H278.694V70.352H279.606V73.256H281.226V74.024ZM290.493 75.968H289.581V70.352H290.493V75.968ZM290.505 80.696H283.737V76.544H284.649V77.876H289.593V76.544H290.505V80.696ZM289.593 79.952V78.62H284.649V79.952H289.593ZM284.901 70.868C286.377 70.868 287.589 71.828 287.589 73.316C287.589 74.816 286.377 75.752 284.901 75.752C283.437 75.752 282.201 74.816 282.201 73.328C282.201 71.852 283.425 70.868 284.901 70.868ZM284.901 71.66C283.869 71.66 283.113 72.332 283.113 73.316C283.113 74.324 283.869 74.996 284.901 74.996C285.969 74.996 286.677 74.324 286.677 73.328C286.677 72.344 285.981 71.66 284.901 71.66ZM300.636 80.624H293.448V76.976H300.636V80.624ZM300.54 70.976C300.54 72.38 300.42 73.856 300.18 74.912H301.776V75.68H292.308V74.912H299.28C299.472 74.12 299.604 72.608 299.604 71.732H293.52V70.976H300.54ZM299.724 79.868V77.732H294.36V79.868H299.724ZM308.243 71.204C309.227 71.204 309.899 71.828 310.247 72.848H311.747V70.556H312.635V80.312H311.747V76.892H310.247C309.887 77.9 309.227 78.512 308.243 78.512C306.707 78.512 305.927 77.012 305.927 74.852C305.927 72.716 306.707 71.204 308.243 71.204ZM309.671 74.852C309.671 73.112 309.119 71.996 308.243 71.996C307.355 71.996 306.815 73.112 306.815 74.852C306.815 76.628 307.355 77.72 308.243 77.72C309.119 77.72 309.671 76.628 309.671 74.852ZM314.687 80.84H313.787V70.352H314.687V80.84ZM311.747 73.616H310.451C310.523 74 310.559 74.42 310.559 74.852C310.559 75.32 310.511 75.752 310.439 76.124H311.747V73.616ZM320.738 78.032H316.574V71.504H320.738V78.032ZM325.07 80.84H324.17V75.308H322.886V80.312H321.998V70.604H322.886V74.54H324.17V70.352H325.07V80.84ZM319.838 77.276V72.26H317.462V77.276H319.838ZM337.729 74.912C337.729 75.992 336.361 76.508 334.501 76.508C332.653 76.508 331.273 75.992 331.273 74.912C331.273 73.808 332.653 73.304 334.501 73.304C336.361 73.304 337.729 73.808 337.729 74.912ZM334.945 80.852H334.033V77.852H329.761V77.084H339.229V77.852H334.945V80.852ZM338.725 72.848H330.301V72.08H338.725V72.848ZM336.781 74.912C336.781 74.264 335.557 74.06 334.501 74.06C333.469 74.06 332.221 74.264 332.221 74.912C332.221 75.524 333.469 75.752 334.501 75.752C335.557 75.752 336.781 75.524 336.781 74.912ZM336.253 71.288H332.749V70.508H336.253V71.288ZM20.024 91.972H19.112V84.352H20.024V91.972ZM17.792 89.584L17.276 90.316C16.196 89.848 15.116 88.852 14.684 87.748C14.372 88.876 13.16 90.088 12.02 90.664L11.468 89.944C12.848 89.332 14.204 87.796 14.204 86.116V84.952H15.128V86.092C15.128 87.844 16.544 89.14 17.792 89.584ZM20.252 94.516H13.256V91.288H14.168V93.76H20.252V94.516ZM30.2388 86.56C30.2388 87.268 29.7468 87.832 28.8588 88.168V89.656H31.3068V90.412H21.8388V89.656H24.2508V88.156C23.3868 87.82 22.9188 87.256 22.9188 86.56C22.9188 85.36 24.2748 84.58 26.5668 84.58C28.8708 84.58 30.2388 85.36 30.2388 86.56ZM30.3108 92.932C30.3108 94.132 28.8948 94.78 26.5908 94.78C24.2868 94.78 22.8828 94.132 22.8828 92.932C22.8828 91.732 24.2868 91.072 26.5788 91.072C28.8948 91.072 30.3108 91.732 30.3108 92.932ZM29.3508 86.56C29.3508 85.78 28.2468 85.312 26.5668 85.312C24.8868 85.312 23.8068 85.78 23.8068 86.56C23.8068 87.316 24.8868 87.784 26.5668 87.784C28.2468 87.784 29.3508 87.316 29.3508 86.56ZM26.5788 91.864C24.9108 91.864 23.7948 92.236 23.7948 92.932C23.7948 93.616 24.9108 93.988 26.5788 93.988C28.2828 93.988 29.3868 93.616 29.3868 92.932C29.3868 92.236 28.2708 91.864 26.5788 91.864ZM26.5668 88.516C26.0508 88.516 25.5828 88.48 25.1628 88.408V89.656H27.9468V88.42C27.5268 88.48 27.0828 88.516 26.5668 88.516ZM37.6816 85.432C37.6096 89.224 35.7736 91.48 32.8936 92.872L32.3296 92.188C34.0576 91.444 35.3896 90.268 36.1216 88.708L32.5816 89.02L32.3896 88.192L36.4096 87.952C36.5776 87.4 36.6856 86.812 36.7216 86.188H32.8336V85.432H37.6816ZM40.2856 84.352V88.648H42.0016V89.428H40.2856V94.84H39.3736V84.352H40.2856ZM50.9324 90.328H43.7924V85.396H50.8364V86.152H44.7044V89.572H50.9324V90.328ZM52.0724 93.4H42.6044V92.632H52.0724V93.4ZM62.4553 93.508H52.9873V92.74H57.2473V90.952H54.1513V87.676H60.3673V85.996H54.1393V85.228H61.2793V88.432H55.0633V90.184H61.5793V90.952H58.1593V92.74H62.4553V93.508ZM71.0584 92.212H66.8704V85.396H67.7704V87.964H70.1584V85.396H71.0584V92.212ZM75.3664 94.84H74.4664V89.428H73.1824V94.312H72.2944V84.604H73.1824V88.66H74.4664V84.352H75.3664V94.84ZM70.1584 91.444V88.72H67.7704V91.444H70.1584ZM85.2452 92.992C85.2452 94.192 83.9372 94.864 81.6332 94.864C79.3412 94.864 78.0452 94.168 78.0452 92.992C78.0452 91.828 79.3412 91.108 81.6332 91.108C83.9372 91.108 85.2452 91.78 85.2452 92.992ZM81.6332 91.864C79.9892 91.864 78.9812 92.284 78.9812 92.992C78.9812 93.7 79.9892 94.108 81.6332 94.108C83.3012 94.108 84.3092 93.7 84.3092 92.992C84.3092 92.284 83.3012 91.864 81.6332 91.864ZM86.3732 90.244H76.9052V89.476H81.1772V87.868H82.0892V89.476H86.3732V90.244ZM85.9172 87.676L85.4972 88.456C83.7572 88.132 82.1372 87.028 81.6332 86.02C81.2132 87.028 79.6292 88.132 77.8292 88.456L77.3972 87.688C79.1612 87.496 81.1772 86.32 81.1772 84.844V84.484H82.1252V84.844C82.1252 86.32 84.3452 87.52 85.9172 87.676ZM95.868 90.7H94.176V92.74H96.756V93.508H87.288V92.74H89.928V90.7H88.44V87.508H94.656V85.9H88.476V85.132H95.568V88.264H89.364V89.944H95.868V90.7ZM90.84 90.7V92.74H93.276V90.7H90.84ZM107.139 89.944H97.6708V89.236H107.139V89.944ZM106.347 94.648H98.7628V92.32H105.111V91.444H98.7748V90.772H106.023V92.968H99.6748V93.928H106.347V94.648ZM106.167 88.408H98.8708V86.236H105.051V85.42H98.8588V84.7H105.963V86.896H99.7828V87.724H106.167V88.408ZM120.182 89.164L119.762 89.932C118.058 89.692 116.474 88.828 115.934 87.868C115.454 88.84 113.942 89.728 112.13 89.956L111.722 89.188C113.402 89.02 115.178 88.204 115.454 86.956H112.094V86.188H119.774V86.956H116.45C116.714 88.204 118.586 89.008 120.182 89.164ZM116.378 94.852H115.466V91.516H111.206V90.748H120.674V91.516H116.378V94.852ZM117.65 85.276H114.23V84.484H117.65V85.276ZM129.653 84.352V88.72H131.369V89.5H129.653V94.84H128.741V84.352H129.653ZM126.929 85.48C126.869 88.888 124.901 91.348 122.201 92.752L121.637 92.032C124.253 90.82 125.753 88.612 125.945 86.248H121.997V85.48H126.929ZM144.088 94.78H136.912V92.14H142.78V90.988H136.876V90.268H143.692V92.8H137.824V94.06H144.088V94.78ZM140.488 84.928C140.272 87.688 138.328 89.368 135.712 90.124L135.256 89.38C137.56 88.804 139.096 87.412 139.444 85.696H135.7V84.928H140.488ZM140.596 86.62V85.9H142.78V84.352H143.692V89.692H142.78V88.564H140.464V87.832H142.78V86.62H140.596ZM150.859 91.696L150.283 92.368C149.539 91.84 148.435 90.616 148.135 89.512C147.919 90.676 146.971 91.924 145.951 92.644L145.339 92.008C146.575 91.216 147.679 89.56 147.679 87.52V86.344H145.591V85.588H150.595V86.344H148.579V87.496C148.579 89.56 149.563 90.856 150.859 91.696ZM152.275 94.312H151.375V88.96H149.695V88.204H151.375V84.604H152.275V94.312ZM154.351 94.84H153.451V84.352H154.351V94.84ZM165.55 88.672H163.954V92.092H163.042V84.352H163.954V87.904H165.55V88.672ZM164.362 94.504H157.378V91.816H158.29V93.736H164.362V94.504ZM160.366 85.528H157.342V84.724H160.366V85.528ZM161.986 87.076H155.842V86.32H161.986V87.076ZM161.386 89.476C161.386 90.58 160.33 91.312 158.914 91.312C157.522 91.312 156.454 90.58 156.454 89.476C156.454 88.348 157.51 87.64 158.914 87.64C160.33 87.64 161.386 88.348 161.386 89.476ZM160.522 89.476C160.522 88.78 159.766 88.36 158.914 88.36C158.074 88.36 157.318 88.78 157.318 89.476C157.318 90.16 158.074 90.58 158.914 90.58C159.766 90.58 160.522 90.16 160.522 89.476ZM178.077 92.8C178.077 94.024 176.781 94.792 174.513 94.792C172.221 94.792 170.937 94.024 170.937 92.8C170.937 91.588 172.221 90.82 174.513 90.82C176.781 90.82 178.077 91.588 178.077 92.8ZM174.513 91.588C172.857 91.588 171.885 92.032 171.885 92.8C171.885 93.58 172.857 94.036 174.513 94.036C176.169 94.036 177.141 93.58 177.141 92.8C177.141 92.032 176.169 91.588 174.513 91.588ZM174.765 89.2V88.444H177.081V87.004H174.933V86.248H177.081V84.352H177.993V90.976H177.081V89.2H174.765ZM174.825 85.168C174.669 87.808 172.773 89.872 170.001 90.844L169.545 90.064C171.705 89.464 173.481 87.724 173.793 85.948H170.001V85.168H174.825ZM188.292 87.136C188.292 88.528 186.888 89.488 184.536 89.488C182.196 89.488 180.78 88.54 180.78 87.136C180.78 85.744 182.196 84.796 184.536 84.796C186.888 84.796 188.292 85.744 188.292 87.136ZM184.536 85.588C182.772 85.588 181.692 86.176 181.692 87.136C181.692 88.108 182.772 88.696 184.536 88.696C186.324 88.696 187.404 88.108 187.404 87.136C187.404 86.176 186.324 85.588 184.536 85.588ZM184.992 94.852H184.08V91.204H179.844V90.436H189.324V91.204H184.992V94.852ZM193.919 93.496V85.444H196.403C198.215 85.444 199.091 86.308 199.091 87.82C199.091 89.404 198.059 90.268 196.523 90.268H194.879V93.496H193.919ZM194.879 89.476H196.331C197.579 89.476 198.071 88.96 198.071 87.88C198.071 86.74 197.615 86.248 196.307 86.248H194.879V89.476ZM203.787 93.628C201.615 93.628 200.283 92.284 200.283 89.56V89.32C200.283 86.44 201.891 85.312 203.943 85.312C204.807 85.312 205.431 85.492 205.923 85.756V86.548C205.287 86.296 204.687 86.116 203.895 86.116C202.371 86.116 201.291 87.028 201.291 89.164V89.56C201.291 91.624 202.059 92.824 203.907 92.824C204.903 92.824 205.503 92.548 206.007 92.296V93.1C205.467 93.412 204.735 93.628 203.787 93.628ZM206.753 94.72L209.573 84.736H210.401L207.581 94.72H206.753ZM220.623 93.508H211.155V92.74H215.415V90.232H212.295V85.288H219.459V90.232H216.327V92.74H220.623V93.508ZM218.547 89.476V86.044H213.207V89.476H218.547ZM231.306 89.296H229.602V94.84H228.69V84.352H229.602V88.516H231.306V89.296ZM226.818 92.236H221.886V85.24H222.798V87.904H225.894V85.24H226.818V92.236ZM225.894 91.468V88.66H222.798V91.468H225.894ZM240.489 89.656H239.577V84.352H240.489V89.656ZM240.873 94.696H233.697V92.044H239.577V90.952H233.661V90.208H240.489V92.752H234.609V93.952H240.873V94.696ZM234.933 84.676C236.433 84.676 237.645 85.624 237.645 87.052C237.645 88.468 236.433 89.392 234.933 89.392C233.433 89.392 232.197 88.48 232.197 87.052C232.197 85.636 233.421 84.676 234.933 84.676ZM234.933 85.468C233.901 85.468 233.085 86.104 233.085 87.04C233.085 87.976 233.889 88.6 234.933 88.6C236.025 88.6 236.757 87.976 236.757 87.052C236.757 86.116 236.025 85.468 234.933 85.468ZM244.776 85.264C246.228 85.264 247.008 86.596 247.08 88.504H248.208V84.556H249.096V94.336H248.208V89.26H247.08C246.984 91.156 246.216 92.44 244.776 92.44C243.252 92.44 242.472 90.964 242.472 88.852C242.472 86.752 243.252 85.264 244.776 85.264ZM246.18 88.852C246.18 87.16 245.628 86.068 244.776 86.068C243.936 86.068 243.396 87.16 243.396 88.852C243.396 90.556 243.936 91.636 244.776 91.636C245.628 91.636 246.18 90.556 246.18 88.852ZM251.148 94.84H250.248V84.352H251.148V94.84ZM261.29 94.84H260.378V88.864H257.93V88.096H260.378V84.352H261.29V94.84ZM258.962 91.636L258.398 92.332C257.438 91.684 256.226 90.352 255.806 89.092C255.434 90.4 254.402 91.696 253.19 92.572L252.59 91.888C254.114 90.928 255.326 89.068 255.326 87.208V85.264H256.274V87.172C256.274 89.092 257.522 90.796 258.962 91.636ZM266.99 86.896V86.128H272.438V86.896H270.146C270.302 87.904 271.598 88.588 272.738 88.672L272.33 89.392C271.202 89.212 270.098 88.564 269.702 87.82C269.342 88.612 268.298 89.344 267.002 89.584L266.582 88.9C267.782 88.768 269.066 88.024 269.222 86.896H266.99ZM274.802 94.84H273.89V84.352H274.802V94.84ZM270.11 94.456H269.198V90.94C268.19 90.988 267.206 91 266.258 91.024L266.114 90.232C267.362 90.232 268.514 90.208 269.678 90.16C271.034 90.112 272.366 90.016 273.194 89.932L273.302 90.652C272.522 90.748 271.262 90.832 270.11 90.88V94.456ZM268.286 85.432V84.676H271.13V85.432H268.286ZM285.7 89.536L285.196 90.268C283.36 89.752 281.776 88.444 281.32 87.268C280.924 88.468 279.304 89.764 277.468 90.268L276.988 89.536C278.824 89.188 280.864 87.688 280.864 85.888V85.132H281.812V85.888C281.812 87.688 283.972 89.2 285.7 89.536ZM286.072 93.508H276.604V92.74H280.864V90.052H281.776V92.74H286.072V93.508ZM295.051 84.352V88.72H296.767V89.5H295.051V94.84H294.139V84.352H295.051ZM292.327 85.48C292.267 88.888 290.299 91.348 287.599 92.752L287.035 92.032C289.651 90.82 291.151 88.612 291.343 86.248H287.395V85.48H292.327ZM309.21 94.66H301.662V92.32H307.902V91.48H301.626V90.736H304.782V89.752H300.522V88.996H309.99V89.752H305.694V90.736H308.814V93.028H302.574V93.904H309.21V94.66ZM308.802 88.24H301.722V84.628H302.634V85.72H307.89V84.628H308.802V88.24ZM307.89 87.496V86.452H302.634V87.496H307.89ZM318.969 84.352V88.72H320.685V89.5H318.969V94.84H318.057V84.352H318.969ZM316.245 85.48C316.185 88.888 314.217 91.348 311.517 92.752L310.953 92.032C313.569 90.82 315.069 88.612 315.261 86.248H311.313V85.48H316.245ZM331.056 89.548H329.352V94.84H328.44V84.352H329.352V88.78H331.056V89.548ZM325.884 85.852H322.8V85.072H325.884V85.852ZM327.432 87.628H321.24V86.872H327.432V87.628ZM326.808 90.472C326.808 91.684 325.824 92.632 324.36 92.632C322.896 92.632 321.912 91.696 321.912 90.472C321.912 89.248 322.896 88.3 324.36 88.3C325.824 88.3 326.808 89.236 326.808 90.472ZM325.896 90.472C325.896 89.644 325.248 89.068 324.36 89.068C323.484 89.068 322.824 89.644 322.824 90.472C322.824 91.288 323.484 91.876 324.36 91.876C325.26 91.876 325.896 91.288 325.896 90.472ZM340.179 87.868C340.179 89.476 338.859 90.568 336.843 90.7V92.692H341.139V93.46H331.671V92.692H335.931V90.7C333.927 90.556 332.619 89.476 332.619 87.868C332.619 86.14 334.131 85.012 336.387 85.012C338.679 85.012 340.179 86.14 340.179 87.868ZM339.303 87.88C339.303 86.62 338.163 85.78 336.387 85.78C334.647 85.78 333.507 86.62 333.507 87.88C333.507 89.14 334.647 89.968 336.387 89.968C338.151 89.968 339.303 89.14 339.303 87.88ZM19.952 98.352V108.84H19.052V98.352H19.952ZM17.984 104.988L18.068 105.78C16.856 106.056 14.12 106.26 12.512 106.26H12.044V99.444H12.968V105.456C14.312 105.456 16.736 105.264 17.984 104.988ZM34.4592 107.328H24.9912V106.56H28.6032V102.768H29.5152V106.56H34.4592V107.328ZM33.1872 99.444V100.764C33.1752 102.36 33.0792 103.992 32.7672 105.324L31.8672 105.18C32.1072 104.196 32.2392 102.612 32.2392 101.232V100.212H25.9632V99.444H33.1872ZM44.218 104.544H43.306V101.856H41.986V104.448H41.11V98.544H41.986V101.1H43.306V98.352H44.218V104.544ZM39.91 99.144C39.862 101.7 38.458 103.476 36.046 104.64L35.446 103.944C37.546 103.104 38.77 101.544 38.938 99.9H35.854V99.144H39.91ZM44.218 108.84H43.294V105.828H37.234V105.084H44.218V108.84ZM54.9968 108.492H47.7128V105.18H48.6248V107.736H54.9968V108.492ZM51.0368 103.644L50.5208 104.316C49.6688 103.884 48.7808 102.948 48.4448 102.06C48.1928 102.972 47.3648 104.028 46.3088 104.64L45.7448 103.968C47.0288 103.32 47.9768 101.988 47.9768 100.476V99.192H48.8768V100.464C48.8768 101.988 49.9928 103.116 51.0368 103.644ZM52.6088 105.816H51.7328V101.868H50.1608V101.112H51.7328V98.544H52.6088V105.816ZM54.6008 106.176H53.6888V98.352H54.6008V106.176ZM57.4116 105.624H57.6396C59.3676 105.624 61.1916 105.492 62.2356 105.264L62.3436 106.032C61.1916 106.248 59.4276 106.404 57.5796 106.404H56.4996V99.3H61.4676V100.056H57.4116V102.228H61.0476V102.972H57.4116V105.624ZM64.7196 108.84H63.8076V103.152H61.7316V102.372H63.8076V98.352H64.7196V108.84ZM75.9904 107.508H66.5224V106.74H70.7824V104.952H67.6864V101.676H73.9024V99.996H67.6744V99.228H74.8144V102.432H68.5984V104.184H75.1144V104.952H71.6944V106.74H75.9904V107.508ZM88.3376 102.624H81.2456V98.928H88.3376V102.624ZM87.4256 101.868V99.684H82.1576V101.868H87.4256ZM85.2656 106.62H84.3536V104.556H80.0576V103.8H89.5256V104.556H85.2656V106.62ZM88.4576 108.504H81.2336V105.54H82.1456V107.748H88.4576V108.504ZM98.1444 98.352H99.0564V108.84H98.1444V98.352ZM96.4884 101.664C96.4884 103.152 95.2764 104.1 93.7644 104.1C92.2164 104.1 91.0284 103.068 91.0284 101.664C91.0284 100.188 92.2404 99.168 93.7644 99.168C95.3124 99.168 96.4884 100.128 96.4884 101.664ZM95.6004 101.664C95.6004 100.608 94.7844 99.948 93.7644 99.948C92.7564 99.948 91.9164 100.68 91.9164 101.664C91.9164 102.636 92.7444 103.332 93.7644 103.332C94.7604 103.332 95.6004 102.648 95.6004 101.664ZM97.5324 106.176C96.6324 106.284 95.1324 106.38 93.8004 106.44C92.5644 106.5 91.4124 106.536 90.6204 106.548L90.4524 105.744C91.3524 105.756 92.5884 105.732 93.8604 105.66C95.3244 105.612 96.6804 105.528 97.4484 105.432L97.5324 106.176ZM109.847 102.576L109.415 103.344C107.699 103.044 106.031 101.988 105.551 101.004C105.131 101.988 103.499 103.068 101.711 103.368L101.291 102.6C103.007 102.42 105.035 101.316 105.083 99.852H101.687V99.096H109.415V99.852H106.043C106.091 101.328 108.239 102.396 109.847 102.576ZM105.995 108.84H105.083V105.084H100.823V104.316H110.291V105.084H105.995V108.84ZM119.846 108.84H118.922V98.352H119.846V108.84ZM117.59 105.624L117.014 106.32C116.066 105.672 114.83 104.376 114.422 103.116C114.038 104.424 112.958 105.708 111.746 106.572L111.146 105.888C112.682 104.928 113.942 103.02 113.942 101.16V99.264H114.866V101.124C114.866 103.044 116.138 104.76 117.59 105.624ZM130.157 108.84H129.245V98.352H130.157V108.84ZM127.073 99.468C127.025 102.876 124.937 105.48 122.225 106.764L121.697 106.044C124.349 104.88 125.909 102.6 126.101 100.236H122.081V99.468H127.073ZM144.892 103.296H143.188V108.84H142.276V98.352H143.188V102.516H144.892V103.296ZM140.404 106.236H135.472V99.24H136.384V101.904H139.48V99.24H140.404V106.236ZM139.48 105.468V102.66H136.384V105.468H139.48ZM155.155 101.7H153.559V104.124H152.659V98.352H153.559V100.932H155.155V101.7ZM153.559 108.696H146.983V104.712H147.895V105.948H152.659V104.688H153.559V108.696ZM152.659 107.94V106.692H147.895V107.94H152.659ZM151.555 102.804L151.651 103.548C150.571 103.74 148.375 103.896 146.911 103.896H145.915V100.92H149.587V99.612H145.891V98.856H150.499V101.664H146.839V103.128H146.971C148.183 103.128 150.331 103.044 151.555 102.804ZM164.386 98.352V108.84H163.486V98.352H164.386ZM162.418 104.988L162.502 105.78C161.29 106.056 158.554 106.26 156.946 106.26H156.478V99.444H157.402V105.456C158.746 105.456 161.17 105.264 162.418 104.988ZM174.36 98.352V102.516H176.064V103.284H174.36V108.84H173.448V98.352H174.36ZM167.604 105.492H168.204C169.56 105.492 171.636 105.372 172.644 105.156L172.74 105.912C171.612 106.128 169.536 106.272 167.712 106.272H166.68V99.444H171.66V100.212H167.604V105.492ZM176.703 107.796V106.728H177.747V107.796H176.703Z" fill="#555555"/>
</svg>
