<svg width="16" height="16" viewBox="0 0 16 16" fill="none" xmlns="http://www.w3.org/2000/svg">
<circle cx="8" cy="8" r="7" fill="white"/>
<path d="M8.49754 9.31643C8.40195 9.39255 8.30689 9.46972 8.21023 9.54424C7.72802 9.91682 7.19536 10.134 6.57241 10.0855C5.87511 10.0313 5.32652 9.53838 5.16295 8.81878C5.02699 8.21999 5.12365 7.63877 5.26757 7.05649C5.43698 6.36935 5.59524 5.68008 5.76306 4.99241C5.77315 4.95036 5.82466 4.88649 5.85706 4.88596C6.31643 4.87904 6.77581 4.88117 7.25802 4.88117C7.15393 5.32028 7.05569 5.72266 6.96434 6.12664C6.83317 6.70573 6.69721 7.28376 6.58356 7.86658C6.55064 8.0369 6.56816 8.22372 6.59631 8.39723C6.6457 8.70168 6.86769 8.87626 7.17836 8.88957C7.796 8.91512 8.25113 8.63834 8.58942 8.13749C8.89744 7.68135 9.04773 7.16507 9.17678 6.6392C9.31114 6.09151 9.44869 5.54436 9.58996 4.99826C9.60058 4.95728 9.64997 4.8966 9.68236 4.89607C10.1566 4.88968 10.6314 4.89128 11.1311 4.89128C11.0812 5.10152 11.0392 5.28302 10.9952 5.46399C10.6877 6.72383 10.3998 7.98846 10.0658 9.24139C9.77318 10.3394 9.16775 11.2363 8.16297 11.8111C7.37061 12.2641 6.50709 12.3881 5.60639 12.2715C5.50336 12.2582 5.39874 12.2476 5.29996 12.2188C5.26385 12.2082 5.21181 12.1411 5.21871 12.1124C5.32121 11.6892 5.4322 11.2687 5.54266 10.8477C5.54691 10.8307 5.56497 10.8174 5.58249 10.795C6.26598 11.1075 6.93885 11.091 7.58835 10.712C8.11464 10.4049 8.35469 9.89499 8.49754 9.3159V9.31643Z" fill="black"/>
<path d="M9.86684 3.91973C9.77019 3.99585 9.65972 4.04428 9.61618 4.12784C9.57157 4.21407 9.59175 4.33383 9.58219 4.45678C9.53652 4.43176 9.51049 4.42112 9.48819 4.40462C9.38888 4.3317 9.32887 4.35725 9.29116 4.47221C9.27364 4.52597 9.23859 4.57387 9.2115 4.62444C9.19929 4.62018 9.18707 4.61592 9.17433 4.61113C9.15839 4.53236 9.16477 4.43123 9.11803 4.38226C9.08617 4.34873 8.97836 4.38758 8.88702 4.39504C8.91357 4.24228 9.08033 4.04481 8.75 3.95114C8.96508 3.7888 9.07926 3.61582 8.87905 3.34543C9.20938 3.43804 9.24921 3.2294 9.27948 3.01703C9.36339 3.09208 9.41862 3.14158 9.47385 3.19108C9.51687 3.12721 9.56041 3.06387 9.60343 3C9.62308 3.01544 9.64273 3.03034 9.66238 3.04577C9.65548 3.1304 9.61777 3.231 9.65123 3.29487C9.67831 3.34703 9.78931 3.35608 9.89021 3.3944C9.76806 3.55674 9.62202 3.7377 9.86684 3.9192V3.91973Z" fill="#FF3804"/>
<path d="M8.07631 4.41045C7.9616 4.46367 7.94142 4.24066 7.8368 4.3668C7.78316 4.43174 7.74811 4.51264 7.69022 4.61057C7.65942 4.49986 7.63765 4.42162 7.61003 4.32369C7.52878 4.35935 7.46452 4.38756 7.37742 4.42588C7.40504 4.24864 7.5856 4.04319 7.23828 3.95697C7.43425 3.79037 7.58719 3.62803 7.37105 3.35073C7.69606 3.42631 7.74227 3.24055 7.75661 3.03351C7.83467 3.09631 7.89522 3.182 7.95204 3.17988C8.01364 3.17721 8.07153 3.09205 8.15438 3.02393C8.14694 3.1357 8.11189 3.23523 8.14535 3.29963C8.1719 3.3502 8.28237 3.35765 8.37318 3.39012C8.3445 3.43802 8.31636 3.49923 8.27599 3.55032C8.20377 3.64134 8.19421 3.72703 8.2744 3.81592C8.353 3.90321 8.35565 3.97134 8.22873 4.00966C8.10393 4.04745 8.05985 4.13314 8.07578 4.25929C8.08268 4.31198 8.07684 4.36627 8.07684 4.40991L8.07631 4.41045Z" fill="#FF3804"/>
</svg>
